G04 #@! TF.GenerationSoftware,KiCad,Pcbnew,(5.1.0-0)*
G04 #@! TF.CreationDate,2020-08-21T20:36:15-04:00*
G04 #@! TF.ProjectId,Rick Flash,5269636b-2046-46c6-9173-682e6b696361,1.1*
G04 #@! TF.SameCoordinates,Original*
G04 #@! TF.FileFunction,Legend,Top*
G04 #@! TF.FilePolarity,Positive*
%FSLAX46Y46*%
G04 Gerber Fmt 4.6, Leading zero omitted, Abs format (unit mm)*
G04 Created by KiCad (PCBNEW (5.1.0-0)) date 2020-08-21 20:36:15*
%MOMM*%
%LPD*%
G04 APERTURE LIST*
%ADD10C,0.150000*%
%ADD11C,0.010000*%
%ADD12C,0.120000*%
G04 APERTURE END LIST*
D10*
X133166666Y-96522619D02*
X133166666Y-97522619D01*
X132833333Y-97189285D02*
X132452380Y-97189285D01*
X132690476Y-96522619D02*
X132690476Y-97379761D01*
X132642857Y-97475000D01*
X132547619Y-97522619D01*
X132452380Y-97522619D01*
X131452380Y-97189285D02*
X131214285Y-96522619D01*
X130976190Y-97189285D02*
X131214285Y-96522619D01*
X131309523Y-96284523D01*
X131357142Y-96236904D01*
X131452380Y-96189285D01*
X130452380Y-96522619D02*
X130547619Y-96570238D01*
X130595238Y-96617857D01*
X130642857Y-96713095D01*
X130642857Y-96998809D01*
X130595238Y-97094047D01*
X130547619Y-97141666D01*
X130452380Y-97189285D01*
X130309523Y-97189285D01*
X130214285Y-97141666D01*
X130166666Y-97094047D01*
X130119047Y-96998809D01*
X130119047Y-96713095D01*
X130166666Y-96617857D01*
X130214285Y-96570238D01*
X130309523Y-96522619D01*
X130452380Y-96522619D01*
X129261904Y-97189285D02*
X129261904Y-96522619D01*
X129690476Y-97189285D02*
X129690476Y-96665476D01*
X129642857Y-96570238D01*
X129547619Y-96522619D01*
X129404761Y-96522619D01*
X129309523Y-96570238D01*
X129261904Y-96617857D01*
X127595238Y-96570238D02*
X127690476Y-96522619D01*
X127880952Y-96522619D01*
X127976190Y-96570238D01*
X128023809Y-96617857D01*
X128071428Y-96713095D01*
X128071428Y-96998809D01*
X128023809Y-97094047D01*
X127976190Y-97141666D01*
X127880952Y-97189285D01*
X127690476Y-97189285D01*
X127595238Y-97141666D01*
X126738095Y-96522619D02*
X126738095Y-97046428D01*
X126785714Y-97141666D01*
X126880952Y-97189285D01*
X127071428Y-97189285D01*
X127166666Y-97141666D01*
X126738095Y-96570238D02*
X126833333Y-96522619D01*
X127071428Y-96522619D01*
X127166666Y-96570238D01*
X127214285Y-96665476D01*
X127214285Y-96760714D01*
X127166666Y-96855952D01*
X127071428Y-96903571D01*
X126833333Y-96903571D01*
X126738095Y-96951190D01*
X126261904Y-97189285D02*
X126261904Y-96522619D01*
X126261904Y-97094047D02*
X126214285Y-97141666D01*
X126119047Y-97189285D01*
X125976190Y-97189285D01*
X125880952Y-97141666D01*
X125833333Y-97046428D01*
X125833333Y-96522619D01*
X132904761Y-94872619D02*
X132904761Y-95539285D01*
X132904761Y-95348809D02*
X132857142Y-95444047D01*
X132809523Y-95491666D01*
X132714285Y-95539285D01*
X132619047Y-95539285D01*
X131904761Y-94920238D02*
X132000000Y-94872619D01*
X132190476Y-94872619D01*
X132285714Y-94920238D01*
X132333333Y-95015476D01*
X132333333Y-95396428D01*
X132285714Y-95491666D01*
X132190476Y-95539285D01*
X132000000Y-95539285D01*
X131904761Y-95491666D01*
X131857142Y-95396428D01*
X131857142Y-95301190D01*
X132333333Y-95205952D01*
X131000000Y-94872619D02*
X131000000Y-95396428D01*
X131047619Y-95491666D01*
X131142857Y-95539285D01*
X131333333Y-95539285D01*
X131428571Y-95491666D01*
X131000000Y-94920238D02*
X131095238Y-94872619D01*
X131333333Y-94872619D01*
X131428571Y-94920238D01*
X131476190Y-95015476D01*
X131476190Y-95110714D01*
X131428571Y-95205952D01*
X131333333Y-95253571D01*
X131095238Y-95253571D01*
X131000000Y-95301190D01*
X130095238Y-94872619D02*
X130095238Y-95872619D01*
X130095238Y-94920238D02*
X130190476Y-94872619D01*
X130380952Y-94872619D01*
X130476190Y-94920238D01*
X130523809Y-94967857D01*
X130571428Y-95063095D01*
X130571428Y-95348809D01*
X130523809Y-95444047D01*
X130476190Y-95491666D01*
X130380952Y-95539285D01*
X130190476Y-95539285D01*
X130095238Y-95491666D01*
X129000000Y-95539285D02*
X128619047Y-95539285D01*
X128857142Y-95872619D02*
X128857142Y-95015476D01*
X128809523Y-94920238D01*
X128714285Y-94872619D01*
X128619047Y-94872619D01*
X128285714Y-94872619D02*
X128285714Y-95872619D01*
X127857142Y-94872619D02*
X127857142Y-95396428D01*
X127904761Y-95491666D01*
X128000000Y-95539285D01*
X128142857Y-95539285D01*
X128238095Y-95491666D01*
X128285714Y-95444047D01*
X127380952Y-94872619D02*
X127380952Y-95539285D01*
X127380952Y-95872619D02*
X127428571Y-95825000D01*
X127380952Y-95777380D01*
X127333333Y-95825000D01*
X127380952Y-95872619D01*
X127380952Y-95777380D01*
X126952380Y-94920238D02*
X126857142Y-94872619D01*
X126666666Y-94872619D01*
X126571428Y-94920238D01*
X126523809Y-95015476D01*
X126523809Y-95063095D01*
X126571428Y-95158333D01*
X126666666Y-95205952D01*
X126809523Y-95205952D01*
X126904761Y-95253571D01*
X126952380Y-95348809D01*
X126952380Y-95396428D01*
X126904761Y-95491666D01*
X126809523Y-95539285D01*
X126666666Y-95539285D01*
X126571428Y-95491666D01*
X126047619Y-94920238D02*
X126047619Y-94872619D01*
X126095238Y-94777380D01*
X126142857Y-94729761D01*
X134500000Y-93889285D02*
X134261904Y-93222619D01*
X134023809Y-93889285D02*
X134261904Y-93222619D01*
X134357142Y-92984523D01*
X134404761Y-92936904D01*
X134500000Y-92889285D01*
X133500000Y-93222619D02*
X133595238Y-93270238D01*
X133642857Y-93317857D01*
X133690476Y-93413095D01*
X133690476Y-93698809D01*
X133642857Y-93794047D01*
X133595238Y-93841666D01*
X133500000Y-93889285D01*
X133357142Y-93889285D01*
X133261904Y-93841666D01*
X133214285Y-93794047D01*
X133166666Y-93698809D01*
X133166666Y-93413095D01*
X133214285Y-93317857D01*
X133261904Y-93270238D01*
X133357142Y-93222619D01*
X133500000Y-93222619D01*
X132309523Y-93889285D02*
X132309523Y-93222619D01*
X132738095Y-93889285D02*
X132738095Y-93365476D01*
X132690476Y-93270238D01*
X132595238Y-93222619D01*
X132452380Y-93222619D01*
X132357142Y-93270238D01*
X132309523Y-93317857D01*
X131833333Y-93222619D02*
X131833333Y-93889285D01*
X131833333Y-93698809D02*
X131785714Y-93794047D01*
X131738095Y-93841666D01*
X131642857Y-93889285D01*
X131547619Y-93889285D01*
X130547619Y-93889285D02*
X130357142Y-93222619D01*
X130166666Y-93698809D01*
X129976190Y-93222619D01*
X129785714Y-93889285D01*
X128976190Y-93222619D02*
X128976190Y-93746428D01*
X129023809Y-93841666D01*
X129119047Y-93889285D01*
X129309523Y-93889285D01*
X129404761Y-93841666D01*
X128976190Y-93270238D02*
X129071428Y-93222619D01*
X129309523Y-93222619D01*
X129404761Y-93270238D01*
X129452380Y-93365476D01*
X129452380Y-93460714D01*
X129404761Y-93555952D01*
X129309523Y-93603571D01*
X129071428Y-93603571D01*
X128976190Y-93651190D01*
X128500000Y-93222619D02*
X128500000Y-93889285D01*
X128500000Y-93698809D02*
X128452380Y-93794047D01*
X128404761Y-93841666D01*
X128309523Y-93889285D01*
X128214285Y-93889285D01*
X127880952Y-93222619D02*
X127880952Y-93889285D01*
X127880952Y-93698809D02*
X127833333Y-93794047D01*
X127785714Y-93841666D01*
X127690476Y-93889285D01*
X127595238Y-93889285D01*
X126833333Y-93222619D02*
X126833333Y-93746428D01*
X126880952Y-93841666D01*
X126976190Y-93889285D01*
X127166666Y-93889285D01*
X127261904Y-93841666D01*
X126833333Y-93270238D02*
X126928571Y-93222619D01*
X127166666Y-93222619D01*
X127261904Y-93270238D01*
X127309523Y-93365476D01*
X127309523Y-93460714D01*
X127261904Y-93555952D01*
X127166666Y-93603571D01*
X126928571Y-93603571D01*
X126833333Y-93651190D01*
X126357142Y-93889285D02*
X126357142Y-93222619D01*
X126357142Y-93794047D02*
X126309523Y-93841666D01*
X126214285Y-93889285D01*
X126071428Y-93889285D01*
X125976190Y-93841666D01*
X125928571Y-93746428D01*
X125928571Y-93222619D01*
X125595238Y-93889285D02*
X125214285Y-93889285D01*
X125452380Y-94222619D02*
X125452380Y-93365476D01*
X125404761Y-93270238D01*
X125309523Y-93222619D01*
X125214285Y-93222619D01*
X124976190Y-93889285D02*
X124738095Y-93222619D01*
X124500000Y-93889285D02*
X124738095Y-93222619D01*
X124833333Y-92984523D01*
X124880952Y-92936904D01*
X124976190Y-92889285D01*
X132047619Y-91572619D02*
X132047619Y-92239285D01*
X132047619Y-92572619D02*
X132095238Y-92525000D01*
X132047619Y-92477380D01*
X132000000Y-92525000D01*
X132047619Y-92572619D01*
X132047619Y-92477380D01*
X131619047Y-91620238D02*
X131523809Y-91572619D01*
X131333333Y-91572619D01*
X131238095Y-91620238D01*
X131190476Y-91715476D01*
X131190476Y-91763095D01*
X131238095Y-91858333D01*
X131333333Y-91905952D01*
X131476190Y-91905952D01*
X131571428Y-91953571D01*
X131619047Y-92048809D01*
X131619047Y-92096428D01*
X131571428Y-92191666D01*
X131476190Y-92239285D01*
X131333333Y-92239285D01*
X131238095Y-92191666D01*
X130095238Y-92239285D02*
X129857142Y-91572619D01*
X129619047Y-92239285D01*
X129095238Y-91572619D02*
X129190476Y-91620238D01*
X129238095Y-91667857D01*
X129285714Y-91763095D01*
X129285714Y-92048809D01*
X129238095Y-92144047D01*
X129190476Y-92191666D01*
X129095238Y-92239285D01*
X128952380Y-92239285D01*
X128857142Y-92191666D01*
X128809523Y-92144047D01*
X128761904Y-92048809D01*
X128761904Y-91763095D01*
X128809523Y-91667857D01*
X128857142Y-91620238D01*
X128952380Y-91572619D01*
X129095238Y-91572619D01*
X128333333Y-91572619D02*
X128333333Y-92239285D01*
X128333333Y-92572619D02*
X128380952Y-92525000D01*
X128333333Y-92477380D01*
X128285714Y-92525000D01*
X128333333Y-92572619D01*
X128333333Y-92477380D01*
X127428571Y-91572619D02*
X127428571Y-92572619D01*
X127428571Y-91620238D02*
X127523809Y-91572619D01*
X127714285Y-91572619D01*
X127809523Y-91620238D01*
X127857142Y-91667857D01*
X127904761Y-91763095D01*
X127904761Y-92048809D01*
X127857142Y-92144047D01*
X127809523Y-92191666D01*
X127714285Y-92239285D01*
X127523809Y-92239285D01*
X127428571Y-92191666D01*
X126952380Y-91667857D02*
X126904761Y-91620238D01*
X126952380Y-91572619D01*
X127000000Y-91620238D01*
X126952380Y-91667857D01*
X126952380Y-91572619D01*
X189452380Y-92880952D02*
X188452380Y-92880952D01*
X188452380Y-92642857D01*
X188500000Y-92500000D01*
X188595238Y-92404761D01*
X188690476Y-92357142D01*
X188880952Y-92309523D01*
X189023809Y-92309523D01*
X189214285Y-92357142D01*
X189309523Y-92404761D01*
X189404761Y-92500000D01*
X189452380Y-92642857D01*
X189452380Y-92880952D01*
X188452380Y-91690476D02*
X188452380Y-91500000D01*
X188500000Y-91404761D01*
X188595238Y-91309523D01*
X188785714Y-91261904D01*
X189119047Y-91261904D01*
X189309523Y-91309523D01*
X189404761Y-91404761D01*
X189452380Y-91500000D01*
X189452380Y-91690476D01*
X189404761Y-91785714D01*
X189309523Y-91880952D01*
X189119047Y-91928571D01*
X188785714Y-91928571D01*
X188595238Y-91880952D01*
X188500000Y-91785714D01*
X188452380Y-91690476D01*
X188452380Y-90928571D02*
X189452380Y-90690476D01*
X188738095Y-90500000D01*
X189452380Y-90309523D01*
X188452380Y-90071428D01*
X189452380Y-89690476D02*
X188452380Y-89690476D01*
X189452380Y-89119047D01*
X188452380Y-89119047D01*
X152452380Y-93119047D02*
X151452380Y-93119047D01*
X152452380Y-92547619D01*
X151452380Y-92547619D01*
X151928571Y-92071428D02*
X151928571Y-91738095D01*
X152452380Y-91595238D02*
X152452380Y-92071428D01*
X151452380Y-92071428D01*
X151452380Y-91595238D01*
X151452380Y-91309523D02*
X152452380Y-90976190D01*
X151452380Y-90642857D01*
X151928571Y-90309523D02*
X151928571Y-89976190D01*
X152452380Y-89833333D02*
X152452380Y-90309523D01*
X151452380Y-90309523D01*
X151452380Y-89833333D01*
X152452380Y-88833333D02*
X151976190Y-89166666D01*
X152452380Y-89404761D02*
X151452380Y-89404761D01*
X151452380Y-89023809D01*
X151500000Y-88928571D01*
X151547619Y-88880952D01*
X151642857Y-88833333D01*
X151785714Y-88833333D01*
X151880952Y-88880952D01*
X151928571Y-88928571D01*
X151976190Y-89023809D01*
X151976190Y-89404761D01*
X160000000Y-92738095D02*
X159952380Y-92833333D01*
X159952380Y-92976190D01*
X160000000Y-93119047D01*
X160095238Y-93214285D01*
X160190476Y-93261904D01*
X160380952Y-93309523D01*
X160523809Y-93309523D01*
X160714285Y-93261904D01*
X160809523Y-93214285D01*
X160904761Y-93119047D01*
X160952380Y-92976190D01*
X160952380Y-92880952D01*
X160904761Y-92738095D01*
X160857142Y-92690476D01*
X160523809Y-92690476D01*
X160523809Y-92880952D01*
X159952380Y-92071428D02*
X159952380Y-91880952D01*
X160000000Y-91785714D01*
X160095238Y-91690476D01*
X160285714Y-91642857D01*
X160619047Y-91642857D01*
X160809523Y-91690476D01*
X160904761Y-91785714D01*
X160952380Y-91880952D01*
X160952380Y-92071428D01*
X160904761Y-92166666D01*
X160809523Y-92261904D01*
X160619047Y-92309523D01*
X160285714Y-92309523D01*
X160095238Y-92261904D01*
X160000000Y-92166666D01*
X159952380Y-92071428D01*
X160952380Y-91214285D02*
X159952380Y-91214285D01*
X160952380Y-90642857D01*
X159952380Y-90642857D01*
X160952380Y-90166666D02*
X159952380Y-90166666D01*
X160952380Y-89595238D01*
X159952380Y-89595238D01*
X160666666Y-89166666D02*
X160666666Y-88690476D01*
X160952380Y-89261904D02*
X159952380Y-88928571D01*
X160952380Y-88595238D01*
X169452380Y-91523809D02*
X169452380Y-92000000D01*
X168452380Y-92000000D01*
X168928571Y-91190476D02*
X168928571Y-90857142D01*
X169452380Y-90714285D02*
X169452380Y-91190476D01*
X168452380Y-91190476D01*
X168452380Y-90714285D01*
X168452380Y-90428571D02*
X168452380Y-89857142D01*
X169452380Y-90142857D02*
X168452380Y-90142857D01*
X177476190Y-92047619D02*
X177952380Y-92047619D01*
X176952380Y-92380952D02*
X177476190Y-92047619D01*
X176952380Y-91714285D01*
X176952380Y-91190476D02*
X176952380Y-91000000D01*
X177000000Y-90904761D01*
X177095238Y-90809523D01*
X177285714Y-90761904D01*
X177619047Y-90761904D01*
X177809523Y-90809523D01*
X177904761Y-90904761D01*
X177952380Y-91000000D01*
X177952380Y-91190476D01*
X177904761Y-91285714D01*
X177809523Y-91380952D01*
X177619047Y-91428571D01*
X177285714Y-91428571D01*
X177095238Y-91380952D01*
X177000000Y-91285714D01*
X176952380Y-91190476D01*
X176952380Y-90333333D02*
X177761904Y-90333333D01*
X177857142Y-90285714D01*
X177904761Y-90238095D01*
X177952380Y-90142857D01*
X177952380Y-89952380D01*
X177904761Y-89857142D01*
X177857142Y-89809523D01*
X177761904Y-89761904D01*
X176952380Y-89761904D01*
X185452380Y-103785714D02*
X186261904Y-103785714D01*
X186357142Y-103738095D01*
X186404761Y-103690476D01*
X186452380Y-103595238D01*
X186452380Y-103404761D01*
X186404761Y-103309523D01*
X186357142Y-103261904D01*
X186261904Y-103214285D01*
X185452380Y-103214285D01*
X186452380Y-102738095D02*
X185452380Y-102738095D01*
X185452380Y-102357142D01*
X185500000Y-102261904D01*
X185547619Y-102214285D01*
X185642857Y-102166666D01*
X185785714Y-102166666D01*
X185880952Y-102214285D01*
X185928571Y-102261904D01*
X185976190Y-102357142D01*
X185976190Y-102738095D01*
X177476190Y-104047619D02*
X177952380Y-104047619D01*
X176952380Y-104380952D02*
X177476190Y-104047619D01*
X176952380Y-103714285D01*
X176952380Y-103190476D02*
X176952380Y-103000000D01*
X177000000Y-102904761D01*
X177095238Y-102809523D01*
X177285714Y-102761904D01*
X177619047Y-102761904D01*
X177809523Y-102809523D01*
X177904761Y-102904761D01*
X177952380Y-103000000D01*
X177952380Y-103190476D01*
X177904761Y-103285714D01*
X177809523Y-103380952D01*
X177619047Y-103428571D01*
X177285714Y-103428571D01*
X177095238Y-103380952D01*
X177000000Y-103285714D01*
X176952380Y-103190476D01*
X176952380Y-102333333D02*
X177761904Y-102333333D01*
X177857142Y-102285714D01*
X177904761Y-102238095D01*
X177952380Y-102142857D01*
X177952380Y-101952380D01*
X177904761Y-101857142D01*
X177857142Y-101809523D01*
X177761904Y-101761904D01*
X176952380Y-101761904D01*
X168500000Y-103857142D02*
X168452380Y-103952380D01*
X168452380Y-104095238D01*
X168500000Y-104238095D01*
X168595238Y-104333333D01*
X168690476Y-104380952D01*
X168880952Y-104428571D01*
X169023809Y-104428571D01*
X169214285Y-104380952D01*
X169309523Y-104333333D01*
X169404761Y-104238095D01*
X169452380Y-104095238D01*
X169452380Y-104000000D01*
X169404761Y-103857142D01*
X169357142Y-103809523D01*
X169023809Y-103809523D01*
X169023809Y-104000000D01*
X169452380Y-103380952D02*
X168452380Y-103380952D01*
X168452380Y-103047619D02*
X169452380Y-102714285D01*
X168452380Y-102380952D01*
X168928571Y-102047619D02*
X168928571Y-101714285D01*
X169452380Y-101571428D02*
X169452380Y-102047619D01*
X168452380Y-102047619D01*
X168452380Y-101571428D01*
X160000000Y-104738095D02*
X159952380Y-104833333D01*
X159952380Y-104976190D01*
X160000000Y-105119047D01*
X160095238Y-105214285D01*
X160190476Y-105261904D01*
X160380952Y-105309523D01*
X160523809Y-105309523D01*
X160714285Y-105261904D01*
X160809523Y-105214285D01*
X160904761Y-105119047D01*
X160952380Y-104976190D01*
X160952380Y-104880952D01*
X160904761Y-104738095D01*
X160857142Y-104690476D01*
X160523809Y-104690476D01*
X160523809Y-104880952D01*
X159952380Y-104071428D02*
X159952380Y-103880952D01*
X160000000Y-103785714D01*
X160095238Y-103690476D01*
X160285714Y-103642857D01*
X160619047Y-103642857D01*
X160809523Y-103690476D01*
X160904761Y-103785714D01*
X160952380Y-103880952D01*
X160952380Y-104071428D01*
X160904761Y-104166666D01*
X160809523Y-104261904D01*
X160619047Y-104309523D01*
X160285714Y-104309523D01*
X160095238Y-104261904D01*
X160000000Y-104166666D01*
X159952380Y-104071428D01*
X160952380Y-103214285D02*
X159952380Y-103214285D01*
X160952380Y-102642857D01*
X159952380Y-102642857D01*
X160952380Y-102166666D02*
X159952380Y-102166666D01*
X160952380Y-101595238D01*
X159952380Y-101595238D01*
X160666666Y-101166666D02*
X160666666Y-100690476D01*
X160952380Y-101261904D02*
X159952380Y-100928571D01*
X160952380Y-100595238D01*
X152452380Y-105119047D02*
X151452380Y-105119047D01*
X152452380Y-104547619D01*
X151452380Y-104547619D01*
X151928571Y-104071428D02*
X151928571Y-103738095D01*
X152452380Y-103595238D02*
X152452380Y-104071428D01*
X151452380Y-104071428D01*
X151452380Y-103595238D01*
X151452380Y-103309523D02*
X152452380Y-102976190D01*
X151452380Y-102642857D01*
X151928571Y-102309523D02*
X151928571Y-101976190D01*
X152452380Y-101833333D02*
X152452380Y-102309523D01*
X151452380Y-102309523D01*
X151452380Y-101833333D01*
X152452380Y-100833333D02*
X151976190Y-101166666D01*
X152452380Y-101404761D02*
X151452380Y-101404761D01*
X151452380Y-101023809D01*
X151500000Y-100928571D01*
X151547619Y-100880952D01*
X151642857Y-100833333D01*
X151785714Y-100833333D01*
X151880952Y-100880952D01*
X151928571Y-100928571D01*
X151976190Y-101023809D01*
X151976190Y-101404761D01*
D11*
G36*
X134856600Y-93939600D02*
G01*
X135053450Y-93939566D01*
X135313917Y-93922690D01*
X135598635Y-93873691D01*
X135894510Y-93794883D01*
X135922874Y-93785882D01*
X136027979Y-93751758D01*
X136115584Y-93722778D01*
X136173938Y-93702857D01*
X136190386Y-93696723D01*
X136218510Y-93708032D01*
X136241186Y-93742655D01*
X136287740Y-93792034D01*
X136377187Y-93835952D01*
X136501709Y-93871950D01*
X136653490Y-93897566D01*
X136765243Y-93907617D01*
X136984785Y-93920938D01*
X136999517Y-94012819D01*
X137014541Y-94100745D01*
X137029980Y-94183150D01*
X137029985Y-94183173D01*
X137034971Y-94229370D01*
X137021993Y-94265673D01*
X136982514Y-94305075D01*
X136918303Y-94353185D01*
X136847348Y-94410489D01*
X136790479Y-94474712D01*
X136736592Y-94560404D01*
X136687421Y-94655712D01*
X136591629Y-94893152D01*
X136530292Y-95138829D01*
X136507642Y-95375563D01*
X136507600Y-95385517D01*
X136518585Y-95498622D01*
X136555659Y-95601607D01*
X136624998Y-95707147D01*
X136713446Y-95807834D01*
X136787242Y-95885368D01*
X136742671Y-96023734D01*
X136723870Y-96094333D01*
X136711251Y-96175563D01*
X136703970Y-96278076D01*
X136701184Y-96412525D01*
X136701558Y-96543100D01*
X136713044Y-96848371D01*
X136741280Y-97116261D01*
X136785722Y-97343142D01*
X136845827Y-97525385D01*
X136850383Y-97535871D01*
X136939461Y-97702932D01*
X137057142Y-97872597D01*
X137195799Y-98037584D01*
X137347803Y-98190612D01*
X137505527Y-98324398D01*
X137661342Y-98431662D01*
X137807621Y-98505122D01*
X137892953Y-98531084D01*
X137990958Y-98551446D01*
X138018801Y-98721578D01*
X138042811Y-98832947D01*
X138075833Y-98911072D01*
X138120074Y-98968355D01*
X138168759Y-99015935D01*
X138202274Y-99042813D01*
X138207803Y-99045035D01*
X138214196Y-99022150D01*
X138215709Y-98963063D01*
X138213400Y-98905335D01*
X138212147Y-98829037D01*
X138218025Y-98778463D01*
X138226100Y-98766028D01*
X138245460Y-98787644D01*
X138280452Y-98845549D01*
X138325421Y-98929905D01*
X138357585Y-98994805D01*
X138407882Y-99098055D01*
X138441902Y-99161826D01*
X138465272Y-99192473D01*
X138483622Y-99196351D01*
X138502581Y-99179817D01*
X138511687Y-99168797D01*
X138550253Y-99132054D01*
X138590028Y-99133769D01*
X138617502Y-99146698D01*
X138673419Y-99186978D01*
X138735850Y-99247142D01*
X138751194Y-99264615D01*
X138800258Y-99312866D01*
X138840062Y-99334552D01*
X138850684Y-99333217D01*
X138890605Y-99322137D01*
X138961627Y-99312884D01*
X139007391Y-99309619D01*
X139106505Y-99301920D01*
X139202874Y-99290307D01*
X139232517Y-99285470D01*
X139303845Y-99279787D01*
X139366531Y-99297667D01*
X139430031Y-99335032D01*
X139496831Y-99375212D01*
X139547931Y-99389070D01*
X139608006Y-99381114D01*
X139638815Y-99373175D01*
X139729061Y-99358853D01*
X139836162Y-99355488D01*
X139885800Y-99358542D01*
X140049154Y-99350461D01*
X140206455Y-99291959D01*
X140310101Y-99223247D01*
X140384010Y-99185822D01*
X140487149Y-99172232D01*
X140506671Y-99172001D01*
X140594806Y-99165003D01*
X140665957Y-99147040D01*
X140687396Y-99135863D01*
X140752005Y-99112215D01*
X140803033Y-99112935D01*
X140873499Y-99110823D01*
X140942733Y-99088455D01*
X141006573Y-99062131D01*
X141098094Y-99031920D01*
X141179825Y-99009035D01*
X141313194Y-98959973D01*
X141446812Y-98885182D01*
X141564158Y-98795577D01*
X141648714Y-98702072D01*
X141652112Y-98696992D01*
X141694853Y-98631761D01*
X141635575Y-98673281D01*
X141577594Y-98709022D01*
X141555628Y-98710885D01*
X141569497Y-98680634D01*
X141619016Y-98620032D01*
X141643905Y-98592866D01*
X141707866Y-98511184D01*
X141769972Y-98409654D01*
X141822350Y-98303847D01*
X141857131Y-98209335D01*
X141867000Y-98151489D01*
X141878319Y-98120494D01*
X141909590Y-98052958D01*
X141956787Y-97957128D01*
X142015882Y-97841247D01*
X142057501Y-97761482D01*
X142130736Y-97620482D01*
X142182676Y-97514634D01*
X142216845Y-97434767D01*
X142236769Y-97371712D01*
X142245971Y-97316296D01*
X142248001Y-97265845D01*
X142245444Y-97193251D01*
X142232553Y-97139572D01*
X142201490Y-97088280D01*
X142144421Y-97022845D01*
X142121000Y-96997925D01*
X142039578Y-96901104D01*
X141998676Y-96826317D01*
X141994001Y-96799841D01*
X141978886Y-96747270D01*
X141928216Y-96693213D01*
X141883303Y-96659879D01*
X141812314Y-96600502D01*
X141756972Y-96535658D01*
X141740666Y-96506608D01*
X141724081Y-96456104D01*
X141729653Y-96416499D01*
X141762836Y-96368463D01*
X141787863Y-96339365D01*
X141843212Y-96271232D01*
X141863643Y-96228625D01*
X141851614Y-96202661D01*
X141828900Y-96191015D01*
X141797799Y-96156630D01*
X141790800Y-96123462D01*
X141773187Y-95978090D01*
X141722284Y-95805315D01*
X141640997Y-95613379D01*
X141550601Y-95442052D01*
X141482564Y-95319019D01*
X141418971Y-95195954D01*
X141367276Y-95087763D01*
X141336608Y-95014110D01*
X141283675Y-94866700D01*
X141289588Y-95055856D01*
X141295500Y-95245011D01*
X141189577Y-95319593D01*
X141118118Y-95360471D01*
X141038368Y-95384133D01*
X140940648Y-95391132D01*
X140815277Y-95382022D01*
X140652576Y-95357355D01*
X140622400Y-95351996D01*
X140533089Y-95334905D01*
X140484690Y-95320976D01*
X140479074Y-95307195D01*
X140518109Y-95290547D01*
X140603661Y-95268019D01*
X140686580Y-95248450D01*
X140778300Y-95225582D01*
X140851265Y-95204603D01*
X140890514Y-95189837D01*
X140891529Y-95189204D01*
X140915171Y-95157786D01*
X140944425Y-95099794D01*
X140972224Y-95032542D01*
X140991500Y-94973345D01*
X140995187Y-94939517D01*
X140994124Y-94937857D01*
X140964841Y-94940170D01*
X140909337Y-94964064D01*
X140842673Y-95001516D01*
X140779913Y-95044506D01*
X140755233Y-95065085D01*
X140697566Y-95117827D01*
X140658543Y-95062114D01*
X140598248Y-95015845D01*
X140515960Y-95011308D01*
X140418376Y-95048309D01*
X140383278Y-95070063D01*
X140316158Y-95109258D01*
X140269234Y-95117465D01*
X140240034Y-95107269D01*
X140201692Y-95093964D01*
X140190661Y-95115969D01*
X140190600Y-95119807D01*
X140170207Y-95154009D01*
X140151473Y-95158801D01*
X140134059Y-95168320D01*
X140152692Y-95200880D01*
X140176873Y-95228391D01*
X140228809Y-95292723D01*
X140238898Y-95328528D01*
X140218963Y-95336600D01*
X140195342Y-95357766D01*
X140183024Y-95388231D01*
X140186737Y-95434724D01*
X140227323Y-95475391D01*
X140309416Y-95513211D01*
X140435567Y-95550630D01*
X140575297Y-95576920D01*
X140723148Y-95588928D01*
X140863777Y-95586673D01*
X140981840Y-95570175D01*
X141043415Y-95549890D01*
X141111823Y-95506197D01*
X141187673Y-95441719D01*
X141220678Y-95407931D01*
X141272235Y-95353435D01*
X141308081Y-95320380D01*
X141318234Y-95315292D01*
X141325175Y-95344095D01*
X141337646Y-95413730D01*
X141354194Y-95514710D01*
X141373369Y-95637549D01*
X141393718Y-95772761D01*
X141413791Y-95910858D01*
X141432136Y-96042355D01*
X141447301Y-96157765D01*
X141448036Y-96163632D01*
X141464861Y-96388252D01*
X141452648Y-96573686D01*
X141409309Y-96723813D01*
X141332755Y-96842509D01*
X141220900Y-96933651D01*
X141071655Y-97001115D01*
X140983115Y-97026988D01*
X140915641Y-97042783D01*
X140856701Y-97051772D01*
X140794494Y-97053672D01*
X140717215Y-97048198D01*
X140613063Y-97035064D01*
X140475115Y-97014724D01*
X140297562Y-96988738D01*
X140161764Y-96971899D01*
X140059435Y-96964581D01*
X139982293Y-96967159D01*
X139922055Y-96980006D01*
X139870437Y-97003497D01*
X139819156Y-97038006D01*
X139810198Y-97044750D01*
X139656480Y-97154688D01*
X139516134Y-97241692D01*
X139397850Y-97300642D01*
X139343300Y-97319820D01*
X139281508Y-97329921D01*
X139181737Y-97338590D01*
X139056803Y-97345010D01*
X138919523Y-97348364D01*
X138892158Y-97348592D01*
X138741047Y-97348681D01*
X138631180Y-97344615D01*
X138553003Y-97332798D01*
X138496962Y-97309635D01*
X138453504Y-97271531D01*
X138413076Y-97214888D01*
X138377016Y-97154702D01*
X138319070Y-97035772D01*
X138275549Y-96897656D01*
X138244659Y-96731746D01*
X138224607Y-96529432D01*
X138217038Y-96387186D01*
X138202589Y-96028071D01*
X138334245Y-95999836D01*
X138417949Y-95983616D01*
X138486178Y-95973406D01*
X138510114Y-95971601D01*
X138606500Y-95959466D01*
X138732908Y-95926626D01*
X138875747Y-95878427D01*
X139021428Y-95820216D01*
X139156362Y-95757339D01*
X139266959Y-95695144D01*
X139328694Y-95649549D01*
X139431989Y-95522955D01*
X139503890Y-95361357D01*
X139543222Y-95170586D01*
X139548807Y-94956472D01*
X139519471Y-94724847D01*
X139517350Y-94714300D01*
X139495362Y-94599719D01*
X139476098Y-94487220D01*
X139463409Y-94399426D01*
X139462635Y-94392747D01*
X139457779Y-94321550D01*
X139468344Y-94271796D01*
X139502320Y-94223373D01*
X139549335Y-94174466D01*
X139643793Y-94098247D01*
X139747838Y-94056078D01*
X139878730Y-94041428D01*
X139901675Y-94041200D01*
X139959162Y-94034602D01*
X139986934Y-94018451D01*
X139987400Y-94015800D01*
X139965015Y-93999253D01*
X139909726Y-93990717D01*
X139895229Y-93990401D01*
X139818698Y-93978205D01*
X139744964Y-93935576D01*
X139706169Y-93902867D01*
X139575284Y-93816084D01*
X139429173Y-93776950D01*
X139270469Y-93785554D01*
X139101799Y-93841986D01*
X139029018Y-93879743D01*
X138938052Y-93942874D01*
X138888127Y-94010260D01*
X138870303Y-94095226D01*
X138869800Y-94116992D01*
X138875539Y-94174191D01*
X138895553Y-94237434D01*
X138934040Y-94315153D01*
X138995197Y-94415778D01*
X139083220Y-94547741D01*
X139087005Y-94553272D01*
X139197324Y-94742725D01*
X139259381Y-94918158D01*
X139273095Y-95079209D01*
X139239397Y-95223116D01*
X139202687Y-95290013D01*
X139169814Y-95308243D01*
X139142586Y-95277136D01*
X139136749Y-95261183D01*
X139123874Y-95233998D01*
X139104062Y-95236605D01*
X139066756Y-95273083D01*
X139046254Y-95296153D01*
X138980255Y-95358814D01*
X138910981Y-95405215D01*
X138849839Y-95429902D01*
X138808239Y-95427420D01*
X138798448Y-95414644D01*
X138749951Y-95340215D01*
X138673528Y-95297707D01*
X138583763Y-95291225D01*
X138495239Y-95324875D01*
X138490673Y-95327988D01*
X138448669Y-95355006D01*
X138438036Y-95346668D01*
X138447405Y-95302588D01*
X138455466Y-95268203D01*
X138452625Y-95246947D01*
X138429901Y-95235922D01*
X138378316Y-95232231D01*
X138288891Y-95232975D01*
X138234800Y-95233969D01*
X138101894Y-95245696D01*
X137989397Y-95279681D01*
X137943030Y-95301378D01*
X137816359Y-95365815D01*
X137757024Y-95296833D01*
X137723697Y-95248392D01*
X137711771Y-95197976D01*
X137723530Y-95137046D01*
X137761254Y-95057059D01*
X137827226Y-94949477D01*
X137865186Y-94892100D01*
X137916021Y-94813418D01*
X137958517Y-94739022D01*
X137996139Y-94660041D01*
X138032354Y-94567603D01*
X138070627Y-94452836D01*
X138114424Y-94306867D01*
X138167212Y-94120825D01*
X138169037Y-94114292D01*
X138211304Y-94004279D01*
X138266888Y-93915473D01*
X138282355Y-93898392D01*
X138328274Y-93842452D01*
X138353786Y-93777953D01*
X138366818Y-93684377D01*
X138367288Y-93678522D01*
X138378801Y-93531744D01*
X138311761Y-93595972D01*
X138238166Y-93649145D01*
X138176908Y-93654257D01*
X138132413Y-93621152D01*
X138116405Y-93588751D01*
X138121419Y-93543809D01*
X138149442Y-93471253D01*
X138153362Y-93462402D01*
X138197631Y-93361575D01*
X138243654Y-93254547D01*
X138256470Y-93224223D01*
X138312347Y-93125106D01*
X138384807Y-93068075D01*
X138485669Y-93045511D01*
X138535415Y-93044411D01*
X138615355Y-93049515D01*
X138661678Y-93066719D01*
X138676076Y-93103279D01*
X138660238Y-93166447D01*
X138615856Y-93263479D01*
X138595731Y-93303196D01*
X138522248Y-93460621D01*
X138478127Y-93587996D01*
X138464445Y-93681726D01*
X138470957Y-93719455D01*
X138501050Y-93739842D01*
X138553811Y-93743222D01*
X138607182Y-93732093D01*
X138639104Y-93708955D01*
X138641200Y-93700170D01*
X138660941Y-93659430D01*
X138711431Y-93605097D01*
X138779569Y-93549229D01*
X138852254Y-93503884D01*
X138857100Y-93501452D01*
X138925055Y-93478445D01*
X139019104Y-93459073D01*
X139086627Y-93450652D01*
X139207028Y-93429540D01*
X139344847Y-93388766D01*
X139429527Y-93355968D01*
X139558400Y-93308582D01*
X139688444Y-93274040D01*
X139771500Y-93260851D01*
X139859931Y-93250112D01*
X139931000Y-93236490D01*
X139962000Y-93226211D01*
X139951499Y-93219974D01*
X139899358Y-93215861D01*
X139814686Y-93213725D01*
X139706591Y-93213422D01*
X139584185Y-93214805D01*
X139456574Y-93217730D01*
X139332870Y-93222051D01*
X139222181Y-93227623D01*
X139133615Y-93234300D01*
X139085700Y-93240191D01*
X138984100Y-93257136D01*
X139085700Y-93164274D01*
X139173047Y-93090808D01*
X139257369Y-93037446D01*
X139355406Y-92995789D01*
X139483894Y-92957438D01*
X139513031Y-92949858D01*
X139602987Y-92925169D01*
X139647641Y-92908039D01*
X139651529Y-92896168D01*
X139631800Y-92889622D01*
X139440886Y-92863173D01*
X139246265Y-92867573D01*
X139110327Y-92886346D01*
X138982726Y-92905196D01*
X138896950Y-92909369D01*
X138846282Y-92899162D01*
X138844357Y-92898177D01*
X138794192Y-92858424D01*
X138739431Y-92797042D01*
X138693048Y-92730943D01*
X138668016Y-92677033D01*
X138666601Y-92666505D01*
X138690776Y-92595239D01*
X138758588Y-92524260D01*
X138862965Y-92456898D01*
X138996834Y-92396483D01*
X139153123Y-92346347D01*
X139324759Y-92309818D01*
X139458906Y-92293389D01*
X139669900Y-92275900D01*
X139517500Y-92202445D01*
X139443225Y-92169253D01*
X139339181Y-92126269D01*
X139214401Y-92076859D01*
X139077917Y-92024386D01*
X138938761Y-91972215D01*
X138805968Y-91923712D01*
X138688569Y-91882240D01*
X138595596Y-91851164D01*
X138536083Y-91833849D01*
X138521400Y-91831400D01*
X138492058Y-91815469D01*
X138493865Y-91775698D01*
X138522001Y-91724127D01*
X138571650Y-91672795D01*
X138590400Y-91658984D01*
X138652309Y-91625078D01*
X138714424Y-91612529D01*
X138788103Y-91622587D01*
X138884705Y-91656502D01*
X138988612Y-91702814D01*
X139158568Y-91792774D01*
X139323843Y-91899079D01*
X139467479Y-92010210D01*
X139537091Y-92075311D01*
X139596161Y-92130353D01*
X139625759Y-92145761D01*
X139624933Y-92123940D01*
X139592729Y-92067297D01*
X139559246Y-92019361D01*
X139448407Y-91889003D01*
X139314177Y-91764061D01*
X139166300Y-91650953D01*
X139014522Y-91556098D01*
X138868585Y-91485912D01*
X138738235Y-91446813D01*
X138680923Y-91440910D01*
X138570554Y-91451920D01*
X138428922Y-91485179D01*
X138268588Y-91537244D01*
X138133200Y-91591025D01*
X138046791Y-91626739D01*
X137971132Y-91655428D01*
X137935107Y-91667214D01*
X137874999Y-91665869D01*
X137811690Y-91640350D01*
X137764797Y-91601147D01*
X137752200Y-91569403D01*
X137769219Y-91535899D01*
X137813552Y-91480731D01*
X137867452Y-91424067D01*
X137941266Y-91341193D01*
X137971200Y-91276290D01*
X137957725Y-91222554D01*
X137901309Y-91173179D01*
X137885413Y-91163518D01*
X137828978Y-91133820D01*
X137788261Y-91129537D01*
X137737351Y-91150474D01*
X137715118Y-91162232D01*
X137666319Y-91195029D01*
X137588683Y-91255030D01*
X137490892Y-91335190D01*
X137381625Y-91428462D01*
X137315206Y-91486864D01*
X137205946Y-91584012D01*
X137106379Y-91672493D01*
X137024309Y-91745374D01*
X136967538Y-91795725D01*
X136948443Y-91812612D01*
X136914251Y-91839642D01*
X136890393Y-91839582D01*
X136863991Y-91806100D01*
X136835911Y-91757269D01*
X136777837Y-91653940D01*
X136689634Y-91812520D01*
X136645076Y-91891945D01*
X136610563Y-91952189D01*
X136593070Y-91981091D01*
X136592616Y-91981684D01*
X136578680Y-91989160D01*
X136575115Y-91963674D01*
X136582430Y-91901613D01*
X136601132Y-91799363D01*
X136631729Y-91653311D01*
X136651369Y-91563982D01*
X136690768Y-91386327D01*
X136720087Y-91252151D01*
X136740323Y-91155354D01*
X136752471Y-91089838D01*
X136757527Y-91049504D01*
X136756490Y-91028252D01*
X136750354Y-91019984D01*
X136740469Y-91018600D01*
X136709100Y-91038408D01*
X136680436Y-91077041D01*
X136605245Y-91205185D01*
X136544439Y-91297874D01*
X136491015Y-91365734D01*
X136487938Y-91369197D01*
X136444424Y-91429730D01*
X136419974Y-91485757D01*
X136419820Y-91486521D01*
X136374005Y-91707257D01*
X136329368Y-91888972D01*
X136281476Y-92043133D01*
X136225893Y-92181208D01*
X136158184Y-92314663D01*
X136073914Y-92454966D01*
X136004229Y-92561117D01*
X135942426Y-92649194D01*
X135866582Y-92751457D01*
X135782449Y-92860829D01*
X135695773Y-92970233D01*
X135612305Y-93072591D01*
X135537794Y-93160826D01*
X135477988Y-93227861D01*
X135438637Y-93266619D01*
X135426032Y-93272899D01*
X135428136Y-93245878D01*
X135441706Y-93181189D01*
X135464248Y-93090008D01*
X135480247Y-93030128D01*
X135589819Y-92545446D01*
X135657633Y-92041125D01*
X135670908Y-91871814D01*
X135680892Y-91698309D01*
X135684790Y-91569959D01*
X135682318Y-91481449D01*
X135673191Y-91427467D01*
X135657127Y-91402699D01*
X135645691Y-91399600D01*
X135625591Y-91422705D01*
X135596342Y-91485858D01*
X135561093Y-91579819D01*
X135522994Y-91695349D01*
X135485195Y-91823206D01*
X135450845Y-91954152D01*
X135437898Y-92009200D01*
X135385736Y-92209481D01*
X135329527Y-92361430D01*
X135267033Y-92467484D01*
X135196017Y-92530079D01*
X135114242Y-92551652D01*
X135019470Y-92534638D01*
X134972909Y-92515477D01*
X134856600Y-92460806D01*
X134856600Y-89672400D01*
X135870299Y-89672400D01*
X135885590Y-89754950D01*
X135889420Y-89810351D01*
X135889202Y-89904315D01*
X135885216Y-90024791D01*
X135877741Y-90159727D01*
X135875429Y-90193350D01*
X135862997Y-90347859D01*
X135849705Y-90463467D01*
X135833376Y-90552056D01*
X135811832Y-90625511D01*
X135783759Y-90693836D01*
X135747483Y-90778704D01*
X135731354Y-90842461D01*
X135732333Y-90909195D01*
X135745835Y-90994495D01*
X135775568Y-91135478D01*
X135804725Y-91226670D01*
X135833660Y-91269072D01*
X135844827Y-91272600D01*
X135873040Y-91252358D01*
X135920688Y-91197907D01*
X135981171Y-91118663D01*
X136047893Y-91024040D01*
X136114256Y-90923454D01*
X136173662Y-90826320D01*
X136219513Y-90742053D01*
X136225905Y-90728792D01*
X136296767Y-90541021D01*
X136352579Y-90315812D01*
X136390736Y-90064977D01*
X136402863Y-89926400D01*
X136418700Y-89685100D01*
X136542488Y-89677231D01*
X136666276Y-89669361D01*
X136649040Y-89943931D01*
X136639142Y-90085381D01*
X136627034Y-90234757D01*
X136614682Y-90368543D01*
X136609090Y-90421700D01*
X136595659Y-90541753D01*
X136581991Y-90663743D01*
X136570975Y-90761902D01*
X136570678Y-90764544D01*
X136554981Y-90904187D01*
X136613841Y-90817727D01*
X136662194Y-90757048D01*
X136708232Y-90715075D01*
X136717150Y-90709834D01*
X136768980Y-90685350D01*
X136806672Y-90664412D01*
X136833892Y-90638820D01*
X136854308Y-90600378D01*
X136871586Y-90540885D01*
X136889391Y-90452144D01*
X136911390Y-90325957D01*
X136925517Y-90243900D01*
X136944259Y-90115073D01*
X136958167Y-89980006D01*
X136964751Y-89863960D01*
X136964969Y-89843850D01*
X136964800Y-89672400D01*
X137797885Y-89672400D01*
X137808937Y-89793050D01*
X137811877Y-89856593D01*
X137813388Y-89960511D01*
X137813462Y-90094401D01*
X137812094Y-90247859D01*
X137809309Y-90409000D01*
X137798630Y-90904300D01*
X138061326Y-91162184D01*
X138165406Y-91264199D01*
X138242561Y-91335744D01*
X138302883Y-91381136D01*
X138356464Y-91404695D01*
X138413396Y-91410742D01*
X138483772Y-91403595D01*
X138577683Y-91387573D01*
X138584973Y-91386304D01*
X138669589Y-91360468D01*
X138718306Y-91321543D01*
X138719731Y-91319046D01*
X138741728Y-91258279D01*
X138765224Y-91162182D01*
X138787491Y-91046050D01*
X138805803Y-90925180D01*
X138817432Y-90814864D01*
X138820115Y-90756016D01*
X138827182Y-90650753D01*
X138849797Y-90553756D01*
X138892988Y-90451819D01*
X138961783Y-90331738D01*
X139010448Y-90256065D01*
X139135680Y-90066100D01*
X139152146Y-90360402D01*
X139168059Y-90590355D01*
X139189685Y-90783134D01*
X139220324Y-90952310D01*
X139263278Y-91111452D01*
X139321849Y-91274129D01*
X139399336Y-91453911D01*
X139438895Y-91539009D01*
X139491548Y-91651328D01*
X139541625Y-91759539D01*
X139581336Y-91846757D01*
X139594273Y-91875850D01*
X139629690Y-91944233D01*
X139659930Y-91981210D01*
X139679006Y-91981047D01*
X139682600Y-91960447D01*
X139698649Y-91931664D01*
X139741063Y-91876983D01*
X139801245Y-91807361D01*
X139812149Y-91795347D01*
X139941698Y-91653600D01*
X140100011Y-91653600D01*
X140188144Y-91657160D01*
X140263196Y-91671412D01*
X140343600Y-91701715D01*
X140447791Y-91753426D01*
X140453190Y-91756267D01*
X140551342Y-91806380D01*
X140623891Y-91836272D01*
X140689573Y-91850511D01*
X140767125Y-91853663D01*
X140843904Y-91851517D01*
X141039751Y-91844100D01*
X141063722Y-91760254D01*
X141086747Y-91702988D01*
X141120155Y-91683184D01*
X141153497Y-91684054D01*
X141197749Y-91680380D01*
X141240386Y-91652186D01*
X141293096Y-91590786D01*
X141310683Y-91567236D01*
X141402065Y-91442772D01*
X141325124Y-91374026D01*
X141248182Y-91305279D01*
X141386141Y-91273009D01*
X141482702Y-91247605D01*
X141573830Y-91219117D01*
X141610550Y-91205537D01*
X141669528Y-91185175D01*
X141704960Y-91179769D01*
X141707665Y-91180998D01*
X141704986Y-91210716D01*
X141680338Y-91272351D01*
X141639357Y-91355174D01*
X141587679Y-91448455D01*
X141530938Y-91541465D01*
X141476505Y-91621124D01*
X141412723Y-91698260D01*
X141318950Y-91799509D01*
X141204110Y-91916333D01*
X141077129Y-92040192D01*
X140946929Y-92162546D01*
X140822436Y-92274856D01*
X140712573Y-92368581D01*
X140626265Y-92435182D01*
X140624526Y-92436397D01*
X140544839Y-92486381D01*
X140471177Y-92515528D01*
X140381057Y-92531222D01*
X140319529Y-92536567D01*
X140231403Y-92545162D01*
X140167312Y-92555780D01*
X140140016Y-92566250D01*
X140139800Y-92567136D01*
X140159364Y-92589509D01*
X140209896Y-92628836D01*
X140260450Y-92663386D01*
X140350858Y-92730705D01*
X140441293Y-92812443D01*
X140524617Y-92900151D01*
X140593689Y-92985383D01*
X140641371Y-93059689D01*
X140660522Y-93114623D01*
X140656958Y-93132533D01*
X140656968Y-93151889D01*
X140694042Y-93146012D01*
X140762800Y-93117584D01*
X140857865Y-93069289D01*
X140973857Y-93003812D01*
X141105400Y-92923836D01*
X141210369Y-92856386D01*
X141331246Y-92772658D01*
X141439567Y-92686814D01*
X141541589Y-92592015D01*
X141643571Y-92481424D01*
X141751771Y-92348205D01*
X141872448Y-92185520D01*
X142011859Y-91986531D01*
X142027701Y-91963456D01*
X142136273Y-91802812D01*
X142250220Y-91630219D01*
X142366155Y-91451180D01*
X142480692Y-91271198D01*
X142590447Y-91095778D01*
X142692034Y-90930422D01*
X142782067Y-90780634D01*
X142857162Y-90651918D01*
X142913932Y-90549777D01*
X142948992Y-90479714D01*
X142959201Y-90449160D01*
X142937491Y-90448813D01*
X142881985Y-90461446D01*
X142838550Y-90473994D01*
X142752961Y-90499680D01*
X142677419Y-90521239D01*
X142654400Y-90527382D01*
X142610776Y-90536102D01*
X142610164Y-90522452D01*
X142632036Y-90495354D01*
X142659605Y-90447280D01*
X142662065Y-90416537D01*
X142677995Y-90390878D01*
X142732381Y-90351071D01*
X142816974Y-90302953D01*
X142836829Y-90292827D01*
X143013271Y-90196651D01*
X143151556Y-90101644D01*
X143263209Y-89998371D01*
X143359756Y-89877399D01*
X143379250Y-89848772D01*
X143435657Y-89767879D01*
X143483446Y-89706522D01*
X143514634Y-89674710D01*
X143519951Y-89672400D01*
X143522717Y-89697548D01*
X143525342Y-89771978D01*
X143527820Y-89894175D01*
X143530142Y-90062621D01*
X143532303Y-90275801D01*
X143534294Y-90532198D01*
X143536109Y-90830294D01*
X143537739Y-91168574D01*
X143539179Y-91545520D01*
X143540420Y-91959616D01*
X143541456Y-92409346D01*
X143542279Y-92893192D01*
X143542685Y-93241100D01*
X140038200Y-93241100D01*
X140025500Y-93228400D01*
X140012800Y-93241100D01*
X140025500Y-93253800D01*
X140038200Y-93241100D01*
X143542685Y-93241100D01*
X143542882Y-93409638D01*
X143543258Y-93957168D01*
X143543400Y-94534264D01*
X143543400Y-99502200D01*
X134856600Y-99502200D01*
X134856600Y-93939600D01*
X134856600Y-93939600D01*
G37*
X134856600Y-93939600D02*
X135053450Y-93939566D01*
X135313917Y-93922690D01*
X135598635Y-93873691D01*
X135894510Y-93794883D01*
X135922874Y-93785882D01*
X136027979Y-93751758D01*
X136115584Y-93722778D01*
X136173938Y-93702857D01*
X136190386Y-93696723D01*
X136218510Y-93708032D01*
X136241186Y-93742655D01*
X136287740Y-93792034D01*
X136377187Y-93835952D01*
X136501709Y-93871950D01*
X136653490Y-93897566D01*
X136765243Y-93907617D01*
X136984785Y-93920938D01*
X136999517Y-94012819D01*
X137014541Y-94100745D01*
X137029980Y-94183150D01*
X137029985Y-94183173D01*
X137034971Y-94229370D01*
X137021993Y-94265673D01*
X136982514Y-94305075D01*
X136918303Y-94353185D01*
X136847348Y-94410489D01*
X136790479Y-94474712D01*
X136736592Y-94560404D01*
X136687421Y-94655712D01*
X136591629Y-94893152D01*
X136530292Y-95138829D01*
X136507642Y-95375563D01*
X136507600Y-95385517D01*
X136518585Y-95498622D01*
X136555659Y-95601607D01*
X136624998Y-95707147D01*
X136713446Y-95807834D01*
X136787242Y-95885368D01*
X136742671Y-96023734D01*
X136723870Y-96094333D01*
X136711251Y-96175563D01*
X136703970Y-96278076D01*
X136701184Y-96412525D01*
X136701558Y-96543100D01*
X136713044Y-96848371D01*
X136741280Y-97116261D01*
X136785722Y-97343142D01*
X136845827Y-97525385D01*
X136850383Y-97535871D01*
X136939461Y-97702932D01*
X137057142Y-97872597D01*
X137195799Y-98037584D01*
X137347803Y-98190612D01*
X137505527Y-98324398D01*
X137661342Y-98431662D01*
X137807621Y-98505122D01*
X137892953Y-98531084D01*
X137990958Y-98551446D01*
X138018801Y-98721578D01*
X138042811Y-98832947D01*
X138075833Y-98911072D01*
X138120074Y-98968355D01*
X138168759Y-99015935D01*
X138202274Y-99042813D01*
X138207803Y-99045035D01*
X138214196Y-99022150D01*
X138215709Y-98963063D01*
X138213400Y-98905335D01*
X138212147Y-98829037D01*
X138218025Y-98778463D01*
X138226100Y-98766028D01*
X138245460Y-98787644D01*
X138280452Y-98845549D01*
X138325421Y-98929905D01*
X138357585Y-98994805D01*
X138407882Y-99098055D01*
X138441902Y-99161826D01*
X138465272Y-99192473D01*
X138483622Y-99196351D01*
X138502581Y-99179817D01*
X138511687Y-99168797D01*
X138550253Y-99132054D01*
X138590028Y-99133769D01*
X138617502Y-99146698D01*
X138673419Y-99186978D01*
X138735850Y-99247142D01*
X138751194Y-99264615D01*
X138800258Y-99312866D01*
X138840062Y-99334552D01*
X138850684Y-99333217D01*
X138890605Y-99322137D01*
X138961627Y-99312884D01*
X139007391Y-99309619D01*
X139106505Y-99301920D01*
X139202874Y-99290307D01*
X139232517Y-99285470D01*
X139303845Y-99279787D01*
X139366531Y-99297667D01*
X139430031Y-99335032D01*
X139496831Y-99375212D01*
X139547931Y-99389070D01*
X139608006Y-99381114D01*
X139638815Y-99373175D01*
X139729061Y-99358853D01*
X139836162Y-99355488D01*
X139885800Y-99358542D01*
X140049154Y-99350461D01*
X140206455Y-99291959D01*
X140310101Y-99223247D01*
X140384010Y-99185822D01*
X140487149Y-99172232D01*
X140506671Y-99172001D01*
X140594806Y-99165003D01*
X140665957Y-99147040D01*
X140687396Y-99135863D01*
X140752005Y-99112215D01*
X140803033Y-99112935D01*
X140873499Y-99110823D01*
X140942733Y-99088455D01*
X141006573Y-99062131D01*
X141098094Y-99031920D01*
X141179825Y-99009035D01*
X141313194Y-98959973D01*
X141446812Y-98885182D01*
X141564158Y-98795577D01*
X141648714Y-98702072D01*
X141652112Y-98696992D01*
X141694853Y-98631761D01*
X141635575Y-98673281D01*
X141577594Y-98709022D01*
X141555628Y-98710885D01*
X141569497Y-98680634D01*
X141619016Y-98620032D01*
X141643905Y-98592866D01*
X141707866Y-98511184D01*
X141769972Y-98409654D01*
X141822350Y-98303847D01*
X141857131Y-98209335D01*
X141867000Y-98151489D01*
X141878319Y-98120494D01*
X141909590Y-98052958D01*
X141956787Y-97957128D01*
X142015882Y-97841247D01*
X142057501Y-97761482D01*
X142130736Y-97620482D01*
X142182676Y-97514634D01*
X142216845Y-97434767D01*
X142236769Y-97371712D01*
X142245971Y-97316296D01*
X142248001Y-97265845D01*
X142245444Y-97193251D01*
X142232553Y-97139572D01*
X142201490Y-97088280D01*
X142144421Y-97022845D01*
X142121000Y-96997925D01*
X142039578Y-96901104D01*
X141998676Y-96826317D01*
X141994001Y-96799841D01*
X141978886Y-96747270D01*
X141928216Y-96693213D01*
X141883303Y-96659879D01*
X141812314Y-96600502D01*
X141756972Y-96535658D01*
X141740666Y-96506608D01*
X141724081Y-96456104D01*
X141729653Y-96416499D01*
X141762836Y-96368463D01*
X141787863Y-96339365D01*
X141843212Y-96271232D01*
X141863643Y-96228625D01*
X141851614Y-96202661D01*
X141828900Y-96191015D01*
X141797799Y-96156630D01*
X141790800Y-96123462D01*
X141773187Y-95978090D01*
X141722284Y-95805315D01*
X141640997Y-95613379D01*
X141550601Y-95442052D01*
X141482564Y-95319019D01*
X141418971Y-95195954D01*
X141367276Y-95087763D01*
X141336608Y-95014110D01*
X141283675Y-94866700D01*
X141289588Y-95055856D01*
X141295500Y-95245011D01*
X141189577Y-95319593D01*
X141118118Y-95360471D01*
X141038368Y-95384133D01*
X140940648Y-95391132D01*
X140815277Y-95382022D01*
X140652576Y-95357355D01*
X140622400Y-95351996D01*
X140533089Y-95334905D01*
X140484690Y-95320976D01*
X140479074Y-95307195D01*
X140518109Y-95290547D01*
X140603661Y-95268019D01*
X140686580Y-95248450D01*
X140778300Y-95225582D01*
X140851265Y-95204603D01*
X140890514Y-95189837D01*
X140891529Y-95189204D01*
X140915171Y-95157786D01*
X140944425Y-95099794D01*
X140972224Y-95032542D01*
X140991500Y-94973345D01*
X140995187Y-94939517D01*
X140994124Y-94937857D01*
X140964841Y-94940170D01*
X140909337Y-94964064D01*
X140842673Y-95001516D01*
X140779913Y-95044506D01*
X140755233Y-95065085D01*
X140697566Y-95117827D01*
X140658543Y-95062114D01*
X140598248Y-95015845D01*
X140515960Y-95011308D01*
X140418376Y-95048309D01*
X140383278Y-95070063D01*
X140316158Y-95109258D01*
X140269234Y-95117465D01*
X140240034Y-95107269D01*
X140201692Y-95093964D01*
X140190661Y-95115969D01*
X140190600Y-95119807D01*
X140170207Y-95154009D01*
X140151473Y-95158801D01*
X140134059Y-95168320D01*
X140152692Y-95200880D01*
X140176873Y-95228391D01*
X140228809Y-95292723D01*
X140238898Y-95328528D01*
X140218963Y-95336600D01*
X140195342Y-95357766D01*
X140183024Y-95388231D01*
X140186737Y-95434724D01*
X140227323Y-95475391D01*
X140309416Y-95513211D01*
X140435567Y-95550630D01*
X140575297Y-95576920D01*
X140723148Y-95588928D01*
X140863777Y-95586673D01*
X140981840Y-95570175D01*
X141043415Y-95549890D01*
X141111823Y-95506197D01*
X141187673Y-95441719D01*
X141220678Y-95407931D01*
X141272235Y-95353435D01*
X141308081Y-95320380D01*
X141318234Y-95315292D01*
X141325175Y-95344095D01*
X141337646Y-95413730D01*
X141354194Y-95514710D01*
X141373369Y-95637549D01*
X141393718Y-95772761D01*
X141413791Y-95910858D01*
X141432136Y-96042355D01*
X141447301Y-96157765D01*
X141448036Y-96163632D01*
X141464861Y-96388252D01*
X141452648Y-96573686D01*
X141409309Y-96723813D01*
X141332755Y-96842509D01*
X141220900Y-96933651D01*
X141071655Y-97001115D01*
X140983115Y-97026988D01*
X140915641Y-97042783D01*
X140856701Y-97051772D01*
X140794494Y-97053672D01*
X140717215Y-97048198D01*
X140613063Y-97035064D01*
X140475115Y-97014724D01*
X140297562Y-96988738D01*
X140161764Y-96971899D01*
X140059435Y-96964581D01*
X139982293Y-96967159D01*
X139922055Y-96980006D01*
X139870437Y-97003497D01*
X139819156Y-97038006D01*
X139810198Y-97044750D01*
X139656480Y-97154688D01*
X139516134Y-97241692D01*
X139397850Y-97300642D01*
X139343300Y-97319820D01*
X139281508Y-97329921D01*
X139181737Y-97338590D01*
X139056803Y-97345010D01*
X138919523Y-97348364D01*
X138892158Y-97348592D01*
X138741047Y-97348681D01*
X138631180Y-97344615D01*
X138553003Y-97332798D01*
X138496962Y-97309635D01*
X138453504Y-97271531D01*
X138413076Y-97214888D01*
X138377016Y-97154702D01*
X138319070Y-97035772D01*
X138275549Y-96897656D01*
X138244659Y-96731746D01*
X138224607Y-96529432D01*
X138217038Y-96387186D01*
X138202589Y-96028071D01*
X138334245Y-95999836D01*
X138417949Y-95983616D01*
X138486178Y-95973406D01*
X138510114Y-95971601D01*
X138606500Y-95959466D01*
X138732908Y-95926626D01*
X138875747Y-95878427D01*
X139021428Y-95820216D01*
X139156362Y-95757339D01*
X139266959Y-95695144D01*
X139328694Y-95649549D01*
X139431989Y-95522955D01*
X139503890Y-95361357D01*
X139543222Y-95170586D01*
X139548807Y-94956472D01*
X139519471Y-94724847D01*
X139517350Y-94714300D01*
X139495362Y-94599719D01*
X139476098Y-94487220D01*
X139463409Y-94399426D01*
X139462635Y-94392747D01*
X139457779Y-94321550D01*
X139468344Y-94271796D01*
X139502320Y-94223373D01*
X139549335Y-94174466D01*
X139643793Y-94098247D01*
X139747838Y-94056078D01*
X139878730Y-94041428D01*
X139901675Y-94041200D01*
X139959162Y-94034602D01*
X139986934Y-94018451D01*
X139987400Y-94015800D01*
X139965015Y-93999253D01*
X139909726Y-93990717D01*
X139895229Y-93990401D01*
X139818698Y-93978205D01*
X139744964Y-93935576D01*
X139706169Y-93902867D01*
X139575284Y-93816084D01*
X139429173Y-93776950D01*
X139270469Y-93785554D01*
X139101799Y-93841986D01*
X139029018Y-93879743D01*
X138938052Y-93942874D01*
X138888127Y-94010260D01*
X138870303Y-94095226D01*
X138869800Y-94116992D01*
X138875539Y-94174191D01*
X138895553Y-94237434D01*
X138934040Y-94315153D01*
X138995197Y-94415778D01*
X139083220Y-94547741D01*
X139087005Y-94553272D01*
X139197324Y-94742725D01*
X139259381Y-94918158D01*
X139273095Y-95079209D01*
X139239397Y-95223116D01*
X139202687Y-95290013D01*
X139169814Y-95308243D01*
X139142586Y-95277136D01*
X139136749Y-95261183D01*
X139123874Y-95233998D01*
X139104062Y-95236605D01*
X139066756Y-95273083D01*
X139046254Y-95296153D01*
X138980255Y-95358814D01*
X138910981Y-95405215D01*
X138849839Y-95429902D01*
X138808239Y-95427420D01*
X138798448Y-95414644D01*
X138749951Y-95340215D01*
X138673528Y-95297707D01*
X138583763Y-95291225D01*
X138495239Y-95324875D01*
X138490673Y-95327988D01*
X138448669Y-95355006D01*
X138438036Y-95346668D01*
X138447405Y-95302588D01*
X138455466Y-95268203D01*
X138452625Y-95246947D01*
X138429901Y-95235922D01*
X138378316Y-95232231D01*
X138288891Y-95232975D01*
X138234800Y-95233969D01*
X138101894Y-95245696D01*
X137989397Y-95279681D01*
X137943030Y-95301378D01*
X137816359Y-95365815D01*
X137757024Y-95296833D01*
X137723697Y-95248392D01*
X137711771Y-95197976D01*
X137723530Y-95137046D01*
X137761254Y-95057059D01*
X137827226Y-94949477D01*
X137865186Y-94892100D01*
X137916021Y-94813418D01*
X137958517Y-94739022D01*
X137996139Y-94660041D01*
X138032354Y-94567603D01*
X138070627Y-94452836D01*
X138114424Y-94306867D01*
X138167212Y-94120825D01*
X138169037Y-94114292D01*
X138211304Y-94004279D01*
X138266888Y-93915473D01*
X138282355Y-93898392D01*
X138328274Y-93842452D01*
X138353786Y-93777953D01*
X138366818Y-93684377D01*
X138367288Y-93678522D01*
X138378801Y-93531744D01*
X138311761Y-93595972D01*
X138238166Y-93649145D01*
X138176908Y-93654257D01*
X138132413Y-93621152D01*
X138116405Y-93588751D01*
X138121419Y-93543809D01*
X138149442Y-93471253D01*
X138153362Y-93462402D01*
X138197631Y-93361575D01*
X138243654Y-93254547D01*
X138256470Y-93224223D01*
X138312347Y-93125106D01*
X138384807Y-93068075D01*
X138485669Y-93045511D01*
X138535415Y-93044411D01*
X138615355Y-93049515D01*
X138661678Y-93066719D01*
X138676076Y-93103279D01*
X138660238Y-93166447D01*
X138615856Y-93263479D01*
X138595731Y-93303196D01*
X138522248Y-93460621D01*
X138478127Y-93587996D01*
X138464445Y-93681726D01*
X138470957Y-93719455D01*
X138501050Y-93739842D01*
X138553811Y-93743222D01*
X138607182Y-93732093D01*
X138639104Y-93708955D01*
X138641200Y-93700170D01*
X138660941Y-93659430D01*
X138711431Y-93605097D01*
X138779569Y-93549229D01*
X138852254Y-93503884D01*
X138857100Y-93501452D01*
X138925055Y-93478445D01*
X139019104Y-93459073D01*
X139086627Y-93450652D01*
X139207028Y-93429540D01*
X139344847Y-93388766D01*
X139429527Y-93355968D01*
X139558400Y-93308582D01*
X139688444Y-93274040D01*
X139771500Y-93260851D01*
X139859931Y-93250112D01*
X139931000Y-93236490D01*
X139962000Y-93226211D01*
X139951499Y-93219974D01*
X139899358Y-93215861D01*
X139814686Y-93213725D01*
X139706591Y-93213422D01*
X139584185Y-93214805D01*
X139456574Y-93217730D01*
X139332870Y-93222051D01*
X139222181Y-93227623D01*
X139133615Y-93234300D01*
X139085700Y-93240191D01*
X138984100Y-93257136D01*
X139085700Y-93164274D01*
X139173047Y-93090808D01*
X139257369Y-93037446D01*
X139355406Y-92995789D01*
X139483894Y-92957438D01*
X139513031Y-92949858D01*
X139602987Y-92925169D01*
X139647641Y-92908039D01*
X139651529Y-92896168D01*
X139631800Y-92889622D01*
X139440886Y-92863173D01*
X139246265Y-92867573D01*
X139110327Y-92886346D01*
X138982726Y-92905196D01*
X138896950Y-92909369D01*
X138846282Y-92899162D01*
X138844357Y-92898177D01*
X138794192Y-92858424D01*
X138739431Y-92797042D01*
X138693048Y-92730943D01*
X138668016Y-92677033D01*
X138666601Y-92666505D01*
X138690776Y-92595239D01*
X138758588Y-92524260D01*
X138862965Y-92456898D01*
X138996834Y-92396483D01*
X139153123Y-92346347D01*
X139324759Y-92309818D01*
X139458906Y-92293389D01*
X139669900Y-92275900D01*
X139517500Y-92202445D01*
X139443225Y-92169253D01*
X139339181Y-92126269D01*
X139214401Y-92076859D01*
X139077917Y-92024386D01*
X138938761Y-91972215D01*
X138805968Y-91923712D01*
X138688569Y-91882240D01*
X138595596Y-91851164D01*
X138536083Y-91833849D01*
X138521400Y-91831400D01*
X138492058Y-91815469D01*
X138493865Y-91775698D01*
X138522001Y-91724127D01*
X138571650Y-91672795D01*
X138590400Y-91658984D01*
X138652309Y-91625078D01*
X138714424Y-91612529D01*
X138788103Y-91622587D01*
X138884705Y-91656502D01*
X138988612Y-91702814D01*
X139158568Y-91792774D01*
X139323843Y-91899079D01*
X139467479Y-92010210D01*
X139537091Y-92075311D01*
X139596161Y-92130353D01*
X139625759Y-92145761D01*
X139624933Y-92123940D01*
X139592729Y-92067297D01*
X139559246Y-92019361D01*
X139448407Y-91889003D01*
X139314177Y-91764061D01*
X139166300Y-91650953D01*
X139014522Y-91556098D01*
X138868585Y-91485912D01*
X138738235Y-91446813D01*
X138680923Y-91440910D01*
X138570554Y-91451920D01*
X138428922Y-91485179D01*
X138268588Y-91537244D01*
X138133200Y-91591025D01*
X138046791Y-91626739D01*
X137971132Y-91655428D01*
X137935107Y-91667214D01*
X137874999Y-91665869D01*
X137811690Y-91640350D01*
X137764797Y-91601147D01*
X137752200Y-91569403D01*
X137769219Y-91535899D01*
X137813552Y-91480731D01*
X137867452Y-91424067D01*
X137941266Y-91341193D01*
X137971200Y-91276290D01*
X137957725Y-91222554D01*
X137901309Y-91173179D01*
X137885413Y-91163518D01*
X137828978Y-91133820D01*
X137788261Y-91129537D01*
X137737351Y-91150474D01*
X137715118Y-91162232D01*
X137666319Y-91195029D01*
X137588683Y-91255030D01*
X137490892Y-91335190D01*
X137381625Y-91428462D01*
X137315206Y-91486864D01*
X137205946Y-91584012D01*
X137106379Y-91672493D01*
X137024309Y-91745374D01*
X136967538Y-91795725D01*
X136948443Y-91812612D01*
X136914251Y-91839642D01*
X136890393Y-91839582D01*
X136863991Y-91806100D01*
X136835911Y-91757269D01*
X136777837Y-91653940D01*
X136689634Y-91812520D01*
X136645076Y-91891945D01*
X136610563Y-91952189D01*
X136593070Y-91981091D01*
X136592616Y-91981684D01*
X136578680Y-91989160D01*
X136575115Y-91963674D01*
X136582430Y-91901613D01*
X136601132Y-91799363D01*
X136631729Y-91653311D01*
X136651369Y-91563982D01*
X136690768Y-91386327D01*
X136720087Y-91252151D01*
X136740323Y-91155354D01*
X136752471Y-91089838D01*
X136757527Y-91049504D01*
X136756490Y-91028252D01*
X136750354Y-91019984D01*
X136740469Y-91018600D01*
X136709100Y-91038408D01*
X136680436Y-91077041D01*
X136605245Y-91205185D01*
X136544439Y-91297874D01*
X136491015Y-91365734D01*
X136487938Y-91369197D01*
X136444424Y-91429730D01*
X136419974Y-91485757D01*
X136419820Y-91486521D01*
X136374005Y-91707257D01*
X136329368Y-91888972D01*
X136281476Y-92043133D01*
X136225893Y-92181208D01*
X136158184Y-92314663D01*
X136073914Y-92454966D01*
X136004229Y-92561117D01*
X135942426Y-92649194D01*
X135866582Y-92751457D01*
X135782449Y-92860829D01*
X135695773Y-92970233D01*
X135612305Y-93072591D01*
X135537794Y-93160826D01*
X135477988Y-93227861D01*
X135438637Y-93266619D01*
X135426032Y-93272899D01*
X135428136Y-93245878D01*
X135441706Y-93181189D01*
X135464248Y-93090008D01*
X135480247Y-93030128D01*
X135589819Y-92545446D01*
X135657633Y-92041125D01*
X135670908Y-91871814D01*
X135680892Y-91698309D01*
X135684790Y-91569959D01*
X135682318Y-91481449D01*
X135673191Y-91427467D01*
X135657127Y-91402699D01*
X135645691Y-91399600D01*
X135625591Y-91422705D01*
X135596342Y-91485858D01*
X135561093Y-91579819D01*
X135522994Y-91695349D01*
X135485195Y-91823206D01*
X135450845Y-91954152D01*
X135437898Y-92009200D01*
X135385736Y-92209481D01*
X135329527Y-92361430D01*
X135267033Y-92467484D01*
X135196017Y-92530079D01*
X135114242Y-92551652D01*
X135019470Y-92534638D01*
X134972909Y-92515477D01*
X134856600Y-92460806D01*
X134856600Y-89672400D01*
X135870299Y-89672400D01*
X135885590Y-89754950D01*
X135889420Y-89810351D01*
X135889202Y-89904315D01*
X135885216Y-90024791D01*
X135877741Y-90159727D01*
X135875429Y-90193350D01*
X135862997Y-90347859D01*
X135849705Y-90463467D01*
X135833376Y-90552056D01*
X135811832Y-90625511D01*
X135783759Y-90693836D01*
X135747483Y-90778704D01*
X135731354Y-90842461D01*
X135732333Y-90909195D01*
X135745835Y-90994495D01*
X135775568Y-91135478D01*
X135804725Y-91226670D01*
X135833660Y-91269072D01*
X135844827Y-91272600D01*
X135873040Y-91252358D01*
X135920688Y-91197907D01*
X135981171Y-91118663D01*
X136047893Y-91024040D01*
X136114256Y-90923454D01*
X136173662Y-90826320D01*
X136219513Y-90742053D01*
X136225905Y-90728792D01*
X136296767Y-90541021D01*
X136352579Y-90315812D01*
X136390736Y-90064977D01*
X136402863Y-89926400D01*
X136418700Y-89685100D01*
X136542488Y-89677231D01*
X136666276Y-89669361D01*
X136649040Y-89943931D01*
X136639142Y-90085381D01*
X136627034Y-90234757D01*
X136614682Y-90368543D01*
X136609090Y-90421700D01*
X136595659Y-90541753D01*
X136581991Y-90663743D01*
X136570975Y-90761902D01*
X136570678Y-90764544D01*
X136554981Y-90904187D01*
X136613841Y-90817727D01*
X136662194Y-90757048D01*
X136708232Y-90715075D01*
X136717150Y-90709834D01*
X136768980Y-90685350D01*
X136806672Y-90664412D01*
X136833892Y-90638820D01*
X136854308Y-90600378D01*
X136871586Y-90540885D01*
X136889391Y-90452144D01*
X136911390Y-90325957D01*
X136925517Y-90243900D01*
X136944259Y-90115073D01*
X136958167Y-89980006D01*
X136964751Y-89863960D01*
X136964969Y-89843850D01*
X136964800Y-89672400D01*
X137797885Y-89672400D01*
X137808937Y-89793050D01*
X137811877Y-89856593D01*
X137813388Y-89960511D01*
X137813462Y-90094401D01*
X137812094Y-90247859D01*
X137809309Y-90409000D01*
X137798630Y-90904300D01*
X138061326Y-91162184D01*
X138165406Y-91264199D01*
X138242561Y-91335744D01*
X138302883Y-91381136D01*
X138356464Y-91404695D01*
X138413396Y-91410742D01*
X138483772Y-91403595D01*
X138577683Y-91387573D01*
X138584973Y-91386304D01*
X138669589Y-91360468D01*
X138718306Y-91321543D01*
X138719731Y-91319046D01*
X138741728Y-91258279D01*
X138765224Y-91162182D01*
X138787491Y-91046050D01*
X138805803Y-90925180D01*
X138817432Y-90814864D01*
X138820115Y-90756016D01*
X138827182Y-90650753D01*
X138849797Y-90553756D01*
X138892988Y-90451819D01*
X138961783Y-90331738D01*
X139010448Y-90256065D01*
X139135680Y-90066100D01*
X139152146Y-90360402D01*
X139168059Y-90590355D01*
X139189685Y-90783134D01*
X139220324Y-90952310D01*
X139263278Y-91111452D01*
X139321849Y-91274129D01*
X139399336Y-91453911D01*
X139438895Y-91539009D01*
X139491548Y-91651328D01*
X139541625Y-91759539D01*
X139581336Y-91846757D01*
X139594273Y-91875850D01*
X139629690Y-91944233D01*
X139659930Y-91981210D01*
X139679006Y-91981047D01*
X139682600Y-91960447D01*
X139698649Y-91931664D01*
X139741063Y-91876983D01*
X139801245Y-91807361D01*
X139812149Y-91795347D01*
X139941698Y-91653600D01*
X140100011Y-91653600D01*
X140188144Y-91657160D01*
X140263196Y-91671412D01*
X140343600Y-91701715D01*
X140447791Y-91753426D01*
X140453190Y-91756267D01*
X140551342Y-91806380D01*
X140623891Y-91836272D01*
X140689573Y-91850511D01*
X140767125Y-91853663D01*
X140843904Y-91851517D01*
X141039751Y-91844100D01*
X141063722Y-91760254D01*
X141086747Y-91702988D01*
X141120155Y-91683184D01*
X141153497Y-91684054D01*
X141197749Y-91680380D01*
X141240386Y-91652186D01*
X141293096Y-91590786D01*
X141310683Y-91567236D01*
X141402065Y-91442772D01*
X141325124Y-91374026D01*
X141248182Y-91305279D01*
X141386141Y-91273009D01*
X141482702Y-91247605D01*
X141573830Y-91219117D01*
X141610550Y-91205537D01*
X141669528Y-91185175D01*
X141704960Y-91179769D01*
X141707665Y-91180998D01*
X141704986Y-91210716D01*
X141680338Y-91272351D01*
X141639357Y-91355174D01*
X141587679Y-91448455D01*
X141530938Y-91541465D01*
X141476505Y-91621124D01*
X141412723Y-91698260D01*
X141318950Y-91799509D01*
X141204110Y-91916333D01*
X141077129Y-92040192D01*
X140946929Y-92162546D01*
X140822436Y-92274856D01*
X140712573Y-92368581D01*
X140626265Y-92435182D01*
X140624526Y-92436397D01*
X140544839Y-92486381D01*
X140471177Y-92515528D01*
X140381057Y-92531222D01*
X140319529Y-92536567D01*
X140231403Y-92545162D01*
X140167312Y-92555780D01*
X140140016Y-92566250D01*
X140139800Y-92567136D01*
X140159364Y-92589509D01*
X140209896Y-92628836D01*
X140260450Y-92663386D01*
X140350858Y-92730705D01*
X140441293Y-92812443D01*
X140524617Y-92900151D01*
X140593689Y-92985383D01*
X140641371Y-93059689D01*
X140660522Y-93114623D01*
X140656958Y-93132533D01*
X140656968Y-93151889D01*
X140694042Y-93146012D01*
X140762800Y-93117584D01*
X140857865Y-93069289D01*
X140973857Y-93003812D01*
X141105400Y-92923836D01*
X141210369Y-92856386D01*
X141331246Y-92772658D01*
X141439567Y-92686814D01*
X141541589Y-92592015D01*
X141643571Y-92481424D01*
X141751771Y-92348205D01*
X141872448Y-92185520D01*
X142011859Y-91986531D01*
X142027701Y-91963456D01*
X142136273Y-91802812D01*
X142250220Y-91630219D01*
X142366155Y-91451180D01*
X142480692Y-91271198D01*
X142590447Y-91095778D01*
X142692034Y-90930422D01*
X142782067Y-90780634D01*
X142857162Y-90651918D01*
X142913932Y-90549777D01*
X142948992Y-90479714D01*
X142959201Y-90449160D01*
X142937491Y-90448813D01*
X142881985Y-90461446D01*
X142838550Y-90473994D01*
X142752961Y-90499680D01*
X142677419Y-90521239D01*
X142654400Y-90527382D01*
X142610776Y-90536102D01*
X142610164Y-90522452D01*
X142632036Y-90495354D01*
X142659605Y-90447280D01*
X142662065Y-90416537D01*
X142677995Y-90390878D01*
X142732381Y-90351071D01*
X142816974Y-90302953D01*
X142836829Y-90292827D01*
X143013271Y-90196651D01*
X143151556Y-90101644D01*
X143263209Y-89998371D01*
X143359756Y-89877399D01*
X143379250Y-89848772D01*
X143435657Y-89767879D01*
X143483446Y-89706522D01*
X143514634Y-89674710D01*
X143519951Y-89672400D01*
X143522717Y-89697548D01*
X143525342Y-89771978D01*
X143527820Y-89894175D01*
X143530142Y-90062621D01*
X143532303Y-90275801D01*
X143534294Y-90532198D01*
X143536109Y-90830294D01*
X143537739Y-91168574D01*
X143539179Y-91545520D01*
X143540420Y-91959616D01*
X143541456Y-92409346D01*
X143542279Y-92893192D01*
X143542685Y-93241100D01*
X140038200Y-93241100D01*
X140025500Y-93228400D01*
X140012800Y-93241100D01*
X140025500Y-93253800D01*
X140038200Y-93241100D01*
X143542685Y-93241100D01*
X143542882Y-93409638D01*
X143543258Y-93957168D01*
X143543400Y-94534264D01*
X143543400Y-99502200D01*
X134856600Y-99502200D01*
X134856600Y-93939600D01*
D12*
X137303422Y-108210000D02*
X137820578Y-108210000D01*
X137303422Y-106790000D02*
X137820578Y-106790000D01*
X144303422Y-105710000D02*
X144820578Y-105710000D01*
X144303422Y-104290000D02*
X144820578Y-104290000D01*
X140803422Y-105710000D02*
X141320578Y-105710000D01*
X140803422Y-104290000D02*
X141320578Y-104290000D01*
X137303422Y-105710000D02*
X137820578Y-105710000D01*
X137303422Y-104290000D02*
X137820578Y-104290000D01*
X144820578Y-106790000D02*
X144303422Y-106790000D01*
X144820578Y-108210000D02*
X144303422Y-108210000D01*
X165100000Y-96400000D02*
X169900000Y-96400000D01*
X165100000Y-85600000D02*
X169900000Y-85600000D01*
X165100000Y-86000000D02*
X163700000Y-86000000D01*
X165100000Y-85600000D02*
X165100000Y-86000000D01*
X128500000Y-102620000D02*
X128500000Y-103230000D01*
X128500000Y-102620000D02*
X120880000Y-102620000D01*
X145120000Y-102620000D02*
X144500000Y-102620000D01*
X145120000Y-100500000D02*
X145120000Y-102620000D01*
X145120000Y-86380000D02*
X145120000Y-88500000D01*
X144500000Y-86380000D02*
X145120000Y-86380000D01*
X120880000Y-86380000D02*
X128500000Y-86380000D01*
X120880000Y-102620000D02*
X120880000Y-86380000D01*
X182100000Y-108400000D02*
X186900000Y-108400000D01*
X182100000Y-97600000D02*
X186900000Y-97600000D01*
X182100000Y-98000000D02*
X180700000Y-98000000D01*
X182100000Y-97600000D02*
X182100000Y-98000000D01*
X173600000Y-108400000D02*
X178400000Y-108400000D01*
X173600000Y-97600000D02*
X178400000Y-97600000D01*
X173600000Y-98000000D02*
X172200000Y-98000000D01*
X173600000Y-97600000D02*
X173600000Y-98000000D01*
X165100000Y-108400000D02*
X169900000Y-108400000D01*
X165100000Y-97600000D02*
X169900000Y-97600000D01*
X165100000Y-98000000D02*
X163700000Y-98000000D01*
X165100000Y-97600000D02*
X165100000Y-98000000D01*
X156600000Y-108400000D02*
X161400000Y-108400000D01*
X156600000Y-97600000D02*
X161400000Y-97600000D01*
X156600000Y-98000000D02*
X155200000Y-98000000D01*
X156600000Y-97600000D02*
X156600000Y-98000000D01*
X148100000Y-108400000D02*
X152900000Y-108400000D01*
X148100000Y-97600000D02*
X152900000Y-97600000D01*
X148100000Y-98000000D02*
X146700000Y-98000000D01*
X148100000Y-97600000D02*
X148100000Y-98000000D01*
X173600000Y-96400000D02*
X178400000Y-96400000D01*
X173600000Y-85600000D02*
X178400000Y-85600000D01*
X173600000Y-86000000D02*
X172200000Y-86000000D01*
X173600000Y-85600000D02*
X173600000Y-86000000D01*
X156600000Y-96400000D02*
X161400000Y-96400000D01*
X156600000Y-85600000D02*
X161400000Y-85600000D01*
X156600000Y-86000000D02*
X155200000Y-86000000D01*
X156600000Y-85600000D02*
X156600000Y-86000000D01*
X148100000Y-96400000D02*
X152900000Y-96400000D01*
X148100000Y-85600000D02*
X152900000Y-85600000D01*
X148100000Y-86000000D02*
X146700000Y-86000000D01*
X148100000Y-85600000D02*
X148100000Y-86000000D01*
X128450000Y-106220000D02*
X128450000Y-105430000D01*
X121550000Y-105430000D02*
X121550000Y-106220000D01*
X123400000Y-104380000D02*
X125100000Y-104380000D01*
X122150000Y-107230000D02*
X127850000Y-107230000D01*
X124900000Y-108520000D02*
X124900000Y-107230000D01*
X123800000Y-108730000D02*
X124700000Y-108730000D01*
X123600000Y-107230000D02*
X123600000Y-108520000D01*
X124900000Y-108520000D02*
X124700000Y-108730000D01*
X123600000Y-108520000D02*
X123800000Y-108730000D01*
X126400000Y-104380000D02*
X126600000Y-104380000D01*
X187500000Y-86650000D02*
X183500000Y-86650000D01*
X181150000Y-89000000D02*
X181150000Y-93000000D01*
X183500000Y-95350000D02*
X187500000Y-95350000D01*
X189850000Y-93000000D02*
X189850000Y-89000000D01*
D10*
X130483333Y-107216666D02*
X130250000Y-106883333D01*
X130083333Y-107216666D02*
X130083333Y-106516666D01*
X130350000Y-106516666D01*
X130416666Y-106550000D01*
X130450000Y-106583333D01*
X130483333Y-106650000D01*
X130483333Y-106750000D01*
X130450000Y-106816666D01*
X130416666Y-106850000D01*
X130350000Y-106883333D01*
X130083333Y-106883333D01*
X131083333Y-106750000D02*
X131083333Y-107216666D01*
X130916666Y-106483333D02*
X130750000Y-106983333D01*
X131183333Y-106983333D01*
X130183333Y-108416666D02*
X129783333Y-108416666D01*
X129983333Y-108416666D02*
X129983333Y-107716666D01*
X129916666Y-107816666D01*
X129850000Y-107883333D01*
X129783333Y-107916666D01*
X130616666Y-107716666D02*
X130683333Y-107716666D01*
X130750000Y-107750000D01*
X130783333Y-107783333D01*
X130816666Y-107850000D01*
X130850000Y-107983333D01*
X130850000Y-108150000D01*
X130816666Y-108283333D01*
X130783333Y-108350000D01*
X130750000Y-108383333D01*
X130683333Y-108416666D01*
X130616666Y-108416666D01*
X130550000Y-108383333D01*
X130516666Y-108350000D01*
X130483333Y-108283333D01*
X130450000Y-108150000D01*
X130450000Y-107983333D01*
X130483333Y-107850000D01*
X130516666Y-107783333D01*
X130550000Y-107750000D01*
X130616666Y-107716666D01*
X131150000Y-108416666D02*
X131150000Y-107716666D01*
X131216666Y-108150000D02*
X131416666Y-108416666D01*
X131416666Y-107950000D02*
X131150000Y-108216666D01*
X134482833Y-106016666D02*
X134249500Y-105683333D01*
X134082833Y-106016666D02*
X134082833Y-105316666D01*
X134349500Y-105316666D01*
X134416166Y-105350000D01*
X134449500Y-105383333D01*
X134482833Y-105450000D01*
X134482833Y-105550000D01*
X134449500Y-105616666D01*
X134416166Y-105650000D01*
X134349500Y-105683333D01*
X134082833Y-105683333D01*
X134716166Y-105316666D02*
X135149500Y-105316666D01*
X134916166Y-105583333D01*
X135016166Y-105583333D01*
X135082833Y-105616666D01*
X135116166Y-105650000D01*
X135149500Y-105716666D01*
X135149500Y-105883333D01*
X135116166Y-105950000D01*
X135082833Y-105983333D01*
X135016166Y-106016666D01*
X134816166Y-106016666D01*
X134749500Y-105983333D01*
X134716166Y-105950000D01*
X132482833Y-106016666D02*
X132249500Y-105683333D01*
X132082833Y-106016666D02*
X132082833Y-105316666D01*
X132349500Y-105316666D01*
X132416166Y-105350000D01*
X132449500Y-105383333D01*
X132482833Y-105450000D01*
X132482833Y-105550000D01*
X132449500Y-105616666D01*
X132416166Y-105650000D01*
X132349500Y-105683333D01*
X132082833Y-105683333D01*
X132749500Y-105383333D02*
X132782833Y-105350000D01*
X132849500Y-105316666D01*
X133016166Y-105316666D01*
X133082833Y-105350000D01*
X133116166Y-105383333D01*
X133149500Y-105450000D01*
X133149500Y-105516666D01*
X133116166Y-105616666D01*
X132716166Y-106016666D01*
X133149500Y-106016666D01*
X130482833Y-106016666D02*
X130249500Y-105683333D01*
X130082833Y-106016666D02*
X130082833Y-105316666D01*
X130349500Y-105316666D01*
X130416166Y-105350000D01*
X130449500Y-105383333D01*
X130482833Y-105450000D01*
X130482833Y-105550000D01*
X130449500Y-105616666D01*
X130416166Y-105650000D01*
X130349500Y-105683333D01*
X130082833Y-105683333D01*
X131149500Y-106016666D02*
X130749500Y-106016666D01*
X130949500Y-106016666D02*
X130949500Y-105316666D01*
X130882833Y-105416666D01*
X130816166Y-105483333D01*
X130749500Y-105516666D01*
X134483333Y-107150000D02*
X134450000Y-107183333D01*
X134350000Y-107216666D01*
X134283333Y-107216666D01*
X134183333Y-107183333D01*
X134116666Y-107116666D01*
X134083333Y-107050000D01*
X134050000Y-106916666D01*
X134050000Y-106816666D01*
X134083333Y-106683333D01*
X134116666Y-106616666D01*
X134183333Y-106550000D01*
X134283333Y-106516666D01*
X134350000Y-106516666D01*
X134450000Y-106550000D01*
X134483333Y-106583333D01*
X135150000Y-107216666D02*
X134750000Y-107216666D01*
X134950000Y-107216666D02*
X134950000Y-106516666D01*
X134883333Y-106616666D01*
X134816666Y-106683333D01*
X134750000Y-106716666D01*
X134283333Y-108316666D02*
X133883333Y-108316666D01*
X134083333Y-108316666D02*
X134083333Y-107616666D01*
X134016666Y-107716666D01*
X133950000Y-107783333D01*
X133883333Y-107816666D01*
X134883333Y-107850000D02*
X134883333Y-108316666D01*
X134583333Y-107850000D02*
X134583333Y-108216666D01*
X134616666Y-108283333D01*
X134683333Y-108316666D01*
X134783333Y-108316666D01*
X134850000Y-108283333D01*
X134883333Y-108250000D01*
X135450000Y-107950000D02*
X135216666Y-107950000D01*
X135216666Y-108316666D02*
X135216666Y-107616666D01*
X135550000Y-107616666D01*
X165952380Y-91761904D02*
X166761904Y-91761904D01*
X166857142Y-91714285D01*
X166904761Y-91666666D01*
X166952380Y-91571428D01*
X166952380Y-91380952D01*
X166904761Y-91285714D01*
X166857142Y-91238095D01*
X166761904Y-91190476D01*
X165952380Y-91190476D01*
X165952380Y-90809523D02*
X165952380Y-90190476D01*
X166333333Y-90523809D01*
X166333333Y-90380952D01*
X166380952Y-90285714D01*
X166428571Y-90238095D01*
X166523809Y-90190476D01*
X166761904Y-90190476D01*
X166857142Y-90238095D01*
X166904761Y-90285714D01*
X166952380Y-90380952D01*
X166952380Y-90666666D01*
X166904761Y-90761904D01*
X166857142Y-90809523D01*
X121452380Y-95238095D02*
X122261904Y-95238095D01*
X122357142Y-95190476D01*
X122404761Y-95142857D01*
X122452380Y-95047619D01*
X122452380Y-94857142D01*
X122404761Y-94761904D01*
X122357142Y-94714285D01*
X122261904Y-94666666D01*
X121452380Y-94666666D01*
X122452380Y-93666666D02*
X122452380Y-94238095D01*
X122452380Y-93952380D02*
X121452380Y-93952380D01*
X121595238Y-94047619D01*
X121690476Y-94142857D01*
X121738095Y-94238095D01*
X121452380Y-93047619D02*
X121452380Y-92952380D01*
X121500000Y-92857142D01*
X121547619Y-92809523D01*
X121642857Y-92761904D01*
X121833333Y-92714285D01*
X122071428Y-92714285D01*
X122261904Y-92761904D01*
X122357142Y-92809523D01*
X122404761Y-92857142D01*
X122452380Y-92952380D01*
X122452380Y-93047619D01*
X122404761Y-93142857D01*
X122357142Y-93190476D01*
X122261904Y-93238095D01*
X122071428Y-93285714D01*
X121833333Y-93285714D01*
X121642857Y-93238095D01*
X121547619Y-93190476D01*
X121500000Y-93142857D01*
X121452380Y-93047619D01*
X123428571Y-97214285D02*
X123428571Y-96880952D01*
X123952380Y-96738095D02*
X123952380Y-97214285D01*
X122952380Y-97214285D01*
X122952380Y-96738095D01*
X123904761Y-96357142D02*
X123952380Y-96214285D01*
X123952380Y-95976190D01*
X123904761Y-95880952D01*
X123857142Y-95833333D01*
X123761904Y-95785714D01*
X123666666Y-95785714D01*
X123571428Y-95833333D01*
X123523809Y-95880952D01*
X123476190Y-95976190D01*
X123428571Y-96166666D01*
X123380952Y-96261904D01*
X123333333Y-96309523D01*
X123238095Y-96357142D01*
X123142857Y-96357142D01*
X123047619Y-96309523D01*
X123000000Y-96261904D01*
X122952380Y-96166666D01*
X122952380Y-95928571D01*
X123000000Y-95785714D01*
X123952380Y-95357142D02*
X122952380Y-95357142D01*
X122952380Y-94976190D01*
X123000000Y-94880952D01*
X123047619Y-94833333D01*
X123142857Y-94785714D01*
X123285714Y-94785714D01*
X123380952Y-94833333D01*
X123428571Y-94880952D01*
X123476190Y-94976190D01*
X123476190Y-95357142D01*
X123571428Y-94357142D02*
X123571428Y-93595238D01*
X123952380Y-92595238D02*
X123952380Y-93166666D01*
X123952380Y-92880952D02*
X122952380Y-92880952D01*
X123095238Y-92976190D01*
X123190476Y-93071428D01*
X123238095Y-93166666D01*
X123047619Y-92214285D02*
X123000000Y-92166666D01*
X122952380Y-92071428D01*
X122952380Y-91833333D01*
X123000000Y-91738095D01*
X123047619Y-91690476D01*
X123142857Y-91642857D01*
X123238095Y-91642857D01*
X123380952Y-91690476D01*
X123952380Y-92261904D01*
X123952380Y-91642857D01*
X123428571Y-91214285D02*
X123428571Y-90880952D01*
X123952380Y-90738095D02*
X123952380Y-91214285D01*
X122952380Y-91214285D01*
X122952380Y-90738095D01*
X182952380Y-103761904D02*
X183761904Y-103761904D01*
X183857142Y-103714285D01*
X183904761Y-103666666D01*
X183952380Y-103571428D01*
X183952380Y-103380952D01*
X183904761Y-103285714D01*
X183857142Y-103238095D01*
X183761904Y-103190476D01*
X182952380Y-103190476D01*
X183952380Y-102666666D02*
X183952380Y-102476190D01*
X183904761Y-102380952D01*
X183857142Y-102333333D01*
X183714285Y-102238095D01*
X183523809Y-102190476D01*
X183142857Y-102190476D01*
X183047619Y-102238095D01*
X183000000Y-102285714D01*
X182952380Y-102380952D01*
X182952380Y-102571428D01*
X183000000Y-102666666D01*
X183047619Y-102714285D01*
X183142857Y-102761904D01*
X183380952Y-102761904D01*
X183476190Y-102714285D01*
X183523809Y-102666666D01*
X183571428Y-102571428D01*
X183571428Y-102380952D01*
X183523809Y-102285714D01*
X183476190Y-102238095D01*
X183380952Y-102190476D01*
X174452380Y-103761904D02*
X175261904Y-103761904D01*
X175357142Y-103714285D01*
X175404761Y-103666666D01*
X175452380Y-103571428D01*
X175452380Y-103380952D01*
X175404761Y-103285714D01*
X175357142Y-103238095D01*
X175261904Y-103190476D01*
X174452380Y-103190476D01*
X174880952Y-102571428D02*
X174833333Y-102666666D01*
X174785714Y-102714285D01*
X174690476Y-102761904D01*
X174642857Y-102761904D01*
X174547619Y-102714285D01*
X174500000Y-102666666D01*
X174452380Y-102571428D01*
X174452380Y-102380952D01*
X174500000Y-102285714D01*
X174547619Y-102238095D01*
X174642857Y-102190476D01*
X174690476Y-102190476D01*
X174785714Y-102238095D01*
X174833333Y-102285714D01*
X174880952Y-102380952D01*
X174880952Y-102571428D01*
X174928571Y-102666666D01*
X174976190Y-102714285D01*
X175071428Y-102761904D01*
X175261904Y-102761904D01*
X175357142Y-102714285D01*
X175404761Y-102666666D01*
X175452380Y-102571428D01*
X175452380Y-102380952D01*
X175404761Y-102285714D01*
X175357142Y-102238095D01*
X175261904Y-102190476D01*
X175071428Y-102190476D01*
X174976190Y-102238095D01*
X174928571Y-102285714D01*
X174880952Y-102380952D01*
X165952380Y-103761904D02*
X166761904Y-103761904D01*
X166857142Y-103714285D01*
X166904761Y-103666666D01*
X166952380Y-103571428D01*
X166952380Y-103380952D01*
X166904761Y-103285714D01*
X166857142Y-103238095D01*
X166761904Y-103190476D01*
X165952380Y-103190476D01*
X165952380Y-102809523D02*
X165952380Y-102142857D01*
X166952380Y-102571428D01*
X157452380Y-103761904D02*
X158261904Y-103761904D01*
X158357142Y-103714285D01*
X158404761Y-103666666D01*
X158452380Y-103571428D01*
X158452380Y-103380952D01*
X158404761Y-103285714D01*
X158357142Y-103238095D01*
X158261904Y-103190476D01*
X157452380Y-103190476D01*
X157452380Y-102285714D02*
X157452380Y-102476190D01*
X157500000Y-102571428D01*
X157547619Y-102619047D01*
X157690476Y-102714285D01*
X157880952Y-102761904D01*
X158261904Y-102761904D01*
X158357142Y-102714285D01*
X158404761Y-102666666D01*
X158452380Y-102571428D01*
X158452380Y-102380952D01*
X158404761Y-102285714D01*
X158357142Y-102238095D01*
X158261904Y-102190476D01*
X158023809Y-102190476D01*
X157928571Y-102238095D01*
X157880952Y-102285714D01*
X157833333Y-102380952D01*
X157833333Y-102571428D01*
X157880952Y-102666666D01*
X157928571Y-102714285D01*
X158023809Y-102761904D01*
X148952380Y-103761904D02*
X149761904Y-103761904D01*
X149857142Y-103714285D01*
X149904761Y-103666666D01*
X149952380Y-103571428D01*
X149952380Y-103380952D01*
X149904761Y-103285714D01*
X149857142Y-103238095D01*
X149761904Y-103190476D01*
X148952380Y-103190476D01*
X148952380Y-102238095D02*
X148952380Y-102714285D01*
X149428571Y-102761904D01*
X149380952Y-102714285D01*
X149333333Y-102619047D01*
X149333333Y-102380952D01*
X149380952Y-102285714D01*
X149428571Y-102238095D01*
X149523809Y-102190476D01*
X149761904Y-102190476D01*
X149857142Y-102238095D01*
X149904761Y-102285714D01*
X149952380Y-102380952D01*
X149952380Y-102619047D01*
X149904761Y-102714285D01*
X149857142Y-102761904D01*
X174452380Y-91761904D02*
X175261904Y-91761904D01*
X175357142Y-91714285D01*
X175404761Y-91666666D01*
X175452380Y-91571428D01*
X175452380Y-91380952D01*
X175404761Y-91285714D01*
X175357142Y-91238095D01*
X175261904Y-91190476D01*
X174452380Y-91190476D01*
X174785714Y-90285714D02*
X175452380Y-90285714D01*
X174404761Y-90523809D02*
X175119047Y-90761904D01*
X175119047Y-90142857D01*
X157452380Y-91761904D02*
X158261904Y-91761904D01*
X158357142Y-91714285D01*
X158404761Y-91666666D01*
X158452380Y-91571428D01*
X158452380Y-91380952D01*
X158404761Y-91285714D01*
X158357142Y-91238095D01*
X158261904Y-91190476D01*
X157452380Y-91190476D01*
X157547619Y-90761904D02*
X157500000Y-90714285D01*
X157452380Y-90619047D01*
X157452380Y-90380952D01*
X157500000Y-90285714D01*
X157547619Y-90238095D01*
X157642857Y-90190476D01*
X157738095Y-90190476D01*
X157880952Y-90238095D01*
X158452380Y-90809523D01*
X158452380Y-90190476D01*
X148952380Y-91761904D02*
X149761904Y-91761904D01*
X149857142Y-91714285D01*
X149904761Y-91666666D01*
X149952380Y-91571428D01*
X149952380Y-91380952D01*
X149904761Y-91285714D01*
X149857142Y-91238095D01*
X149761904Y-91190476D01*
X148952380Y-91190476D01*
X149952380Y-90190476D02*
X149952380Y-90761904D01*
X149952380Y-90476190D02*
X148952380Y-90476190D01*
X149095238Y-90571428D01*
X149190476Y-90666666D01*
X149238095Y-90761904D01*
X123666666Y-101904761D02*
X123809523Y-101952380D01*
X124047619Y-101952380D01*
X124142857Y-101904761D01*
X124190476Y-101857142D01*
X124238095Y-101761904D01*
X124238095Y-101666666D01*
X124190476Y-101571428D01*
X124142857Y-101523809D01*
X124047619Y-101476190D01*
X123857142Y-101428571D01*
X123761904Y-101380952D01*
X123714285Y-101333333D01*
X123666666Y-101238095D01*
X123666666Y-101142857D01*
X123714285Y-101047619D01*
X123761904Y-101000000D01*
X123857142Y-100952380D01*
X124095238Y-100952380D01*
X124238095Y-101000000D01*
X124571428Y-100952380D02*
X124809523Y-101952380D01*
X125000000Y-101238095D01*
X125190476Y-101952380D01*
X125428571Y-100952380D01*
X126333333Y-101952380D02*
X125761904Y-101952380D01*
X126047619Y-101952380D02*
X126047619Y-100952380D01*
X125952380Y-101095238D01*
X125857142Y-101190476D01*
X125761904Y-101238095D01*
X184619047Y-88928571D02*
X184761904Y-88976190D01*
X184809523Y-89023809D01*
X184857142Y-89119047D01*
X184857142Y-89261904D01*
X184809523Y-89357142D01*
X184761904Y-89404761D01*
X184666666Y-89452380D01*
X184285714Y-89452380D01*
X184285714Y-88452380D01*
X184619047Y-88452380D01*
X184714285Y-88500000D01*
X184761904Y-88547619D01*
X184809523Y-88642857D01*
X184809523Y-88738095D01*
X184761904Y-88833333D01*
X184714285Y-88880952D01*
X184619047Y-88928571D01*
X184285714Y-88928571D01*
X185190476Y-88452380D02*
X185857142Y-88452380D01*
X185190476Y-89452380D01*
X185857142Y-89452380D01*
X186761904Y-89452380D02*
X186190476Y-89452380D01*
X186476190Y-89452380D02*
X186476190Y-88452380D01*
X186380952Y-88595238D01*
X186285714Y-88690476D01*
X186190476Y-88738095D01*
X184071428Y-88130952D02*
X184071428Y-87369047D01*
X184452380Y-87750000D02*
X183690476Y-87750000D01*
M02*
