G04 #@! TF.GenerationSoftware,KiCad,Pcbnew,(5.1.0-0)*
G04 #@! TF.CreationDate,2020-08-21T20:36:16-04:00*
G04 #@! TF.ProjectId,Rick Flash,5269636b-2046-46c6-9173-682e6b696361,1.1*
G04 #@! TF.SameCoordinates,Original*
G04 #@! TF.FileFunction,Soldermask,Bot*
G04 #@! TF.FilePolarity,Negative*
%FSLAX46Y46*%
G04 Gerber Fmt 4.6, Leading zero omitted, Abs format (unit mm)*
G04 Created by KiCad (PCBNEW (5.1.0-0)) date 2020-08-21 20:36:16*
%MOMM*%
%LPD*%
G04 APERTURE LIST*
%ADD10C,0.150000*%
%ADD11C,0.450000*%
%ADD12C,0.010000*%
%ADD13C,0.100000*%
G04 APERTURE END LIST*
D10*
X181366666Y-86083333D02*
X181133333Y-86416666D01*
X180966666Y-86083333D02*
X180966666Y-86783333D01*
X181233333Y-86783333D01*
X181300000Y-86750000D01*
X181333333Y-86716666D01*
X181366666Y-86650000D01*
X181366666Y-86550000D01*
X181333333Y-86483333D01*
X181300000Y-86450000D01*
X181233333Y-86416666D01*
X180966666Y-86416666D01*
X181933333Y-86116666D02*
X181866666Y-86083333D01*
X181733333Y-86083333D01*
X181666666Y-86116666D01*
X181633333Y-86183333D01*
X181633333Y-86450000D01*
X181666666Y-86516666D01*
X181733333Y-86550000D01*
X181866666Y-86550000D01*
X181933333Y-86516666D01*
X181966666Y-86450000D01*
X181966666Y-86383333D01*
X181633333Y-86316666D01*
X182566666Y-86116666D02*
X182500000Y-86083333D01*
X182366666Y-86083333D01*
X182300000Y-86116666D01*
X182266666Y-86150000D01*
X182233333Y-86216666D01*
X182233333Y-86416666D01*
X182266666Y-86483333D01*
X182300000Y-86516666D01*
X182366666Y-86550000D01*
X182500000Y-86550000D01*
X182566666Y-86516666D01*
X182766666Y-86550000D02*
X183033333Y-86550000D01*
X182866666Y-86783333D02*
X182866666Y-86183333D01*
X182900000Y-86116666D01*
X182966666Y-86083333D01*
X183033333Y-86083333D01*
X183266666Y-86083333D02*
X183266666Y-86550000D01*
X183266666Y-86783333D02*
X183233333Y-86750000D01*
X183266666Y-86716666D01*
X183300000Y-86750000D01*
X183266666Y-86783333D01*
X183266666Y-86716666D01*
X183500000Y-86550000D02*
X183766666Y-86550000D01*
X183600000Y-86083333D02*
X183600000Y-86683333D01*
X183633333Y-86750000D01*
X183700000Y-86783333D01*
X183766666Y-86783333D01*
X184000000Y-86083333D02*
X184000000Y-86550000D01*
X184000000Y-86783333D02*
X183966666Y-86750000D01*
X184000000Y-86716666D01*
X184033333Y-86750000D01*
X184000000Y-86783333D01*
X184000000Y-86716666D01*
X184600000Y-86116666D02*
X184533333Y-86083333D01*
X184400000Y-86083333D01*
X184333333Y-86116666D01*
X184300000Y-86183333D01*
X184300000Y-86450000D01*
X184333333Y-86516666D01*
X184400000Y-86550000D01*
X184533333Y-86550000D01*
X184600000Y-86516666D01*
X184633333Y-86450000D01*
X184633333Y-86383333D01*
X184300000Y-86316666D01*
X185233333Y-86083333D02*
X185233333Y-86783333D01*
X185233333Y-86116666D02*
X185166666Y-86083333D01*
X185033333Y-86083333D01*
X184966666Y-86116666D01*
X184933333Y-86150000D01*
X184900000Y-86216666D01*
X184900000Y-86416666D01*
X184933333Y-86483333D01*
X184966666Y-86516666D01*
X185033333Y-86550000D01*
X185166666Y-86550000D01*
X185233333Y-86516666D01*
X186000000Y-86783333D02*
X186400000Y-86783333D01*
X186200000Y-86083333D02*
X186200000Y-86783333D01*
X186900000Y-86116666D02*
X186833333Y-86083333D01*
X186700000Y-86083333D01*
X186633333Y-86116666D01*
X186600000Y-86183333D01*
X186600000Y-86450000D01*
X186633333Y-86516666D01*
X186700000Y-86550000D01*
X186833333Y-86550000D01*
X186900000Y-86516666D01*
X186933333Y-86450000D01*
X186933333Y-86383333D01*
X186600000Y-86316666D01*
X187533333Y-86116666D02*
X187466666Y-86083333D01*
X187333333Y-86083333D01*
X187266666Y-86116666D01*
X187233333Y-86150000D01*
X187200000Y-86216666D01*
X187200000Y-86416666D01*
X187233333Y-86483333D01*
X187266666Y-86516666D01*
X187333333Y-86550000D01*
X187466666Y-86550000D01*
X187533333Y-86516666D01*
X187833333Y-86083333D02*
X187833333Y-86783333D01*
X188133333Y-86083333D02*
X188133333Y-86450000D01*
X188100000Y-86516666D01*
X188033333Y-86550000D01*
X187933333Y-86550000D01*
X187866666Y-86516666D01*
X187833333Y-86483333D01*
X178928571Y-103047619D02*
X178595238Y-103523809D01*
X178357142Y-103047619D02*
X178357142Y-104047619D01*
X178738095Y-104047619D01*
X178833333Y-104000000D01*
X178880952Y-103952380D01*
X178928571Y-103857142D01*
X178928571Y-103714285D01*
X178880952Y-103619047D01*
X178833333Y-103571428D01*
X178738095Y-103523809D01*
X178357142Y-103523809D01*
X179357142Y-103047619D02*
X179357142Y-104047619D01*
X180404761Y-103142857D02*
X180357142Y-103095238D01*
X180214285Y-103047619D01*
X180119047Y-103047619D01*
X179976190Y-103095238D01*
X179880952Y-103190476D01*
X179833333Y-103285714D01*
X179785714Y-103476190D01*
X179785714Y-103619047D01*
X179833333Y-103809523D01*
X179880952Y-103904761D01*
X179976190Y-104000000D01*
X180119047Y-104047619D01*
X180214285Y-104047619D01*
X180357142Y-104000000D01*
X180404761Y-103952380D01*
X180833333Y-103047619D02*
X180833333Y-104047619D01*
X181404761Y-103047619D02*
X180976190Y-103619047D01*
X181404761Y-104047619D02*
X180833333Y-103476190D01*
X182928571Y-103571428D02*
X182595238Y-103571428D01*
X182595238Y-103047619D02*
X182595238Y-104047619D01*
X183071428Y-104047619D01*
X183928571Y-103047619D02*
X183452380Y-103047619D01*
X183452380Y-104047619D01*
X184214285Y-103333333D02*
X184690476Y-103333333D01*
X184119047Y-103047619D02*
X184452380Y-104047619D01*
X184785714Y-103047619D01*
X185071428Y-103095238D02*
X185214285Y-103047619D01*
X185452380Y-103047619D01*
X185547619Y-103095238D01*
X185595238Y-103142857D01*
X185642857Y-103238095D01*
X185642857Y-103333333D01*
X185595238Y-103428571D01*
X185547619Y-103476190D01*
X185452380Y-103523809D01*
X185261904Y-103571428D01*
X185166666Y-103619047D01*
X185119047Y-103666666D01*
X185071428Y-103761904D01*
X185071428Y-103857142D01*
X185119047Y-103952380D01*
X185166666Y-104000000D01*
X185261904Y-104047619D01*
X185500000Y-104047619D01*
X185642857Y-104000000D01*
X186071428Y-103047619D02*
X186071428Y-104047619D01*
X186071428Y-103571428D02*
X186642857Y-103571428D01*
X186642857Y-103047619D02*
X186642857Y-104047619D01*
X187738095Y-104047619D02*
X188071428Y-103047619D01*
X188404761Y-104047619D01*
X189261904Y-103047619D02*
X188690476Y-103047619D01*
X188976190Y-103047619D02*
X188976190Y-104047619D01*
X188880952Y-103904761D01*
X188785714Y-103809523D01*
X188690476Y-103761904D01*
X189690476Y-103142857D02*
X189738095Y-103095238D01*
X189690476Y-103047619D01*
X189642857Y-103095238D01*
X189690476Y-103142857D01*
X189690476Y-103047619D01*
X190357142Y-104047619D02*
X190452380Y-104047619D01*
X190547619Y-104000000D01*
X190595238Y-103952380D01*
X190642857Y-103857142D01*
X190690476Y-103666666D01*
X190690476Y-103428571D01*
X190642857Y-103238095D01*
X190595238Y-103142857D01*
X190547619Y-103095238D01*
X190452380Y-103047619D01*
X190357142Y-103047619D01*
X190261904Y-103095238D01*
X190214285Y-103142857D01*
X190166666Y-103238095D01*
X190119047Y-103428571D01*
X190119047Y-103666666D01*
X190166666Y-103857142D01*
X190214285Y-103952380D01*
X190261904Y-104000000D01*
X190357142Y-104047619D01*
D11*
X176285714Y-105142857D02*
X176857142Y-105142857D01*
X177142857Y-105285714D01*
X177285714Y-105428571D01*
X177571428Y-105857142D01*
X177714285Y-106428571D01*
X177714285Y-107571428D01*
X177571428Y-107857142D01*
X177428571Y-108000000D01*
X177142857Y-108142857D01*
X176571428Y-108142857D01*
X176285714Y-108000000D01*
X176142857Y-107857142D01*
X176000000Y-107571428D01*
X176000000Y-106857142D01*
X176142857Y-106571428D01*
X176285714Y-106428571D01*
X176571428Y-106285714D01*
X177142857Y-106285714D01*
X177428571Y-106428571D01*
X177571428Y-106571428D01*
X177714285Y-106857142D01*
X180285714Y-108142857D02*
X179714285Y-108142857D01*
X179428571Y-108000000D01*
X179285714Y-107857142D01*
X179000000Y-107428571D01*
X178857142Y-106857142D01*
X178857142Y-105714285D01*
X179000000Y-105428571D01*
X179142857Y-105285714D01*
X179428571Y-105142857D01*
X180000000Y-105142857D01*
X180285714Y-105285714D01*
X180428571Y-105428571D01*
X180571428Y-105714285D01*
X180571428Y-106428571D01*
X180428571Y-106714285D01*
X180285714Y-106857142D01*
X180000000Y-107000000D01*
X179428571Y-107000000D01*
X179142857Y-106857142D01*
X179000000Y-106714285D01*
X178857142Y-106428571D01*
X182428571Y-108142857D02*
X182714285Y-108142857D01*
X183000000Y-108000000D01*
X183142857Y-107857142D01*
X183285714Y-107571428D01*
X183428571Y-107000000D01*
X183428571Y-106285714D01*
X183285714Y-105714285D01*
X183142857Y-105428571D01*
X183000000Y-105285714D01*
X182714285Y-105142857D01*
X182428571Y-105142857D01*
X182142857Y-105285714D01*
X182000000Y-105428571D01*
X181857142Y-105714285D01*
X181714285Y-106285714D01*
X181714285Y-107000000D01*
X181857142Y-107571428D01*
X182000000Y-107857142D01*
X182142857Y-108000000D01*
X182428571Y-108142857D01*
X184714285Y-105428571D02*
X184857142Y-105285714D01*
X184714285Y-105142857D01*
X184571428Y-105285714D01*
X184714285Y-105428571D01*
X184714285Y-105142857D01*
X186714285Y-108142857D02*
X187000000Y-108142857D01*
X187285714Y-108000000D01*
X187428571Y-107857142D01*
X187571428Y-107571428D01*
X187714285Y-107000000D01*
X187714285Y-106285714D01*
X187571428Y-105714285D01*
X187428571Y-105428571D01*
X187285714Y-105285714D01*
X187000000Y-105142857D01*
X186714285Y-105142857D01*
X186428571Y-105285714D01*
X186285714Y-105428571D01*
X186142857Y-105714285D01*
X186000000Y-106285714D01*
X186000000Y-107000000D01*
X186142857Y-107571428D01*
X186285714Y-107857142D01*
X186428571Y-108000000D01*
X186714285Y-108142857D01*
X188571428Y-108142857D02*
X190285714Y-108142857D01*
X189428571Y-105142857D02*
X189428571Y-108142857D01*
X192285714Y-106714285D02*
X192714285Y-106571428D01*
X192857142Y-106428571D01*
X193000000Y-106142857D01*
X193000000Y-105714285D01*
X192857142Y-105428571D01*
X192714285Y-105285714D01*
X192428571Y-105142857D01*
X191285714Y-105142857D01*
X191285714Y-108142857D01*
X192285714Y-108142857D01*
X192571428Y-108000000D01*
X192714285Y-107857142D01*
X192857142Y-107571428D01*
X192857142Y-107285714D01*
X192714285Y-107000000D01*
X192571428Y-106857142D01*
X192285714Y-106714285D01*
X191285714Y-106714285D01*
D12*
G36*
X185508975Y-91611983D02*
G01*
X185533547Y-91606966D01*
X185566262Y-91598928D01*
X185601610Y-91589365D01*
X185634080Y-91579771D01*
X185658164Y-91571642D01*
X185668349Y-91566474D01*
X185668400Y-91566258D01*
X185661659Y-91556973D01*
X185643634Y-91537102D01*
X185617619Y-91510210D01*
X185604446Y-91497028D01*
X185540492Y-91433643D01*
X185517504Y-91521293D01*
X185507679Y-91560532D01*
X185500792Y-91591548D01*
X185497830Y-91609716D01*
X185498056Y-91612484D01*
X185508975Y-91611983D01*
X185508975Y-91611983D01*
G37*
X185508975Y-91611983D02*
X185533547Y-91606966D01*
X185566262Y-91598928D01*
X185601610Y-91589365D01*
X185634080Y-91579771D01*
X185658164Y-91571642D01*
X185668349Y-91566474D01*
X185668400Y-91566258D01*
X185661659Y-91556973D01*
X185643634Y-91537102D01*
X185617619Y-91510210D01*
X185604446Y-91497028D01*
X185540492Y-91433643D01*
X185517504Y-91521293D01*
X185507679Y-91560532D01*
X185500792Y-91591548D01*
X185497830Y-91609716D01*
X185498056Y-91612484D01*
X185508975Y-91611983D01*
G36*
X184520320Y-93822869D02*
G01*
X184634944Y-93822088D01*
X184731571Y-93820074D01*
X184812492Y-93816735D01*
X184879999Y-93811979D01*
X184931800Y-93806330D01*
X185173116Y-93764432D01*
X185412896Y-93702912D01*
X185649300Y-93622465D01*
X185880484Y-93523786D01*
X186104608Y-93407571D01*
X186292832Y-93292468D01*
X186376383Y-93235512D01*
X186455363Y-93177192D01*
X186532524Y-93115090D01*
X186610619Y-93046788D01*
X186692398Y-92969865D01*
X186780614Y-92881905D01*
X186878019Y-92780487D01*
X186891170Y-92766538D01*
X187000055Y-92644895D01*
X187097597Y-92522591D01*
X187186752Y-92395267D01*
X187270473Y-92258564D01*
X187351717Y-92108120D01*
X187391373Y-92028360D01*
X187469215Y-91857669D01*
X187534469Y-91691115D01*
X187588797Y-91523326D01*
X187633861Y-91348929D01*
X187671324Y-91162553D01*
X187685351Y-91078400D01*
X187692370Y-91021140D01*
X187698290Y-90947843D01*
X187703021Y-90862769D01*
X187706473Y-90770175D01*
X187708556Y-90674320D01*
X187709178Y-90579464D01*
X187708250Y-90489863D01*
X187705682Y-90409778D01*
X187701382Y-90343466D01*
X187701025Y-90339563D01*
X187667323Y-90086179D01*
X187614468Y-89838542D01*
X187542886Y-89597535D01*
X187453000Y-89364044D01*
X187345236Y-89138953D01*
X187220019Y-88923146D01*
X187077774Y-88717507D01*
X186918927Y-88522922D01*
X186743902Y-88340274D01*
X186736833Y-88333480D01*
X186543568Y-88161849D01*
X186340820Y-88008187D01*
X186128662Y-87872529D01*
X185907168Y-87754910D01*
X185676411Y-87655368D01*
X185436465Y-87573938D01*
X185187403Y-87510656D01*
X184972440Y-87471734D01*
X184911044Y-87464349D01*
X184834074Y-87457850D01*
X184746263Y-87452411D01*
X184652345Y-87448204D01*
X184557053Y-87445403D01*
X184465121Y-87444182D01*
X184381282Y-87444714D01*
X184310270Y-87447172D01*
X184306960Y-87447359D01*
X184071214Y-87470821D01*
X183834718Y-87513584D01*
X183600037Y-87574905D01*
X183369735Y-87654038D01*
X183146378Y-87750237D01*
X182991240Y-87829682D01*
X182896911Y-87884012D01*
X182797161Y-87946018D01*
X182697917Y-88011767D01*
X182605107Y-88077326D01*
X182524656Y-88138763D01*
X182521190Y-88141555D01*
X182465379Y-88189117D01*
X182400726Y-88248333D01*
X182330321Y-88316018D01*
X182257257Y-88388986D01*
X182184623Y-88464052D01*
X182115511Y-88538030D01*
X182053011Y-88607736D01*
X182000214Y-88669983D01*
X181965894Y-88713813D01*
X181820421Y-88926131D01*
X181692374Y-89146609D01*
X181582412Y-89373866D01*
X181491190Y-89606516D01*
X181419367Y-89843176D01*
X181407676Y-89889680D01*
X181390184Y-89962449D01*
X181375764Y-90025320D01*
X181364120Y-90081351D01*
X181354957Y-90133598D01*
X181347977Y-90185117D01*
X181342887Y-90238965D01*
X181339389Y-90298198D01*
X181337188Y-90365873D01*
X181335989Y-90445046D01*
X181335495Y-90538775D01*
X181335449Y-90591270D01*
X181879319Y-90591270D01*
X181879687Y-90555644D01*
X181882116Y-90531667D01*
X181887153Y-90515012D01*
X181895344Y-90501356D01*
X181898980Y-90496583D01*
X181920834Y-90468800D01*
X182493533Y-90468800D01*
X183071707Y-89890360D01*
X182988253Y-89804860D01*
X182932301Y-89742742D01*
X182894124Y-89689059D01*
X182873330Y-89643138D01*
X182869531Y-89604304D01*
X182870105Y-89600593D01*
X182888240Y-89548587D01*
X182920226Y-89504204D01*
X182962007Y-89471839D01*
X183002679Y-89456970D01*
X183056122Y-89457237D01*
X183111969Y-89477512D01*
X183165176Y-89513735D01*
X183191455Y-89533584D01*
X183211565Y-89545332D01*
X183220468Y-89546635D01*
X183225176Y-89534637D01*
X183233844Y-89506590D01*
X183245414Y-89466137D01*
X183258827Y-89416918D01*
X183265455Y-89391840D01*
X183291933Y-89292841D01*
X183315064Y-89211777D01*
X183335666Y-89146694D01*
X183354555Y-89095638D01*
X183372550Y-89056655D01*
X183390469Y-89027792D01*
X183409128Y-89007096D01*
X183429347Y-88992611D01*
X183433496Y-88990367D01*
X183476465Y-88975311D01*
X183520497Y-88975123D01*
X183567345Y-88990529D01*
X183618762Y-89022260D01*
X183676498Y-89071042D01*
X183712429Y-89106269D01*
X183783379Y-89178687D01*
X184065489Y-88896712D01*
X184347600Y-88614737D01*
X184347600Y-88049797D01*
X184372538Y-88024859D01*
X184384538Y-88014075D01*
X184397659Y-88006946D01*
X184416168Y-88002721D01*
X184444332Y-88000646D01*
X184486417Y-87999970D01*
X184513947Y-87999920D01*
X184561930Y-88000451D01*
X184603404Y-88001889D01*
X184633562Y-88004008D01*
X184646864Y-88006232D01*
X184659874Y-88012952D01*
X184670214Y-88023482D01*
X184678183Y-88040002D01*
X184684082Y-88064692D01*
X184688210Y-88099734D01*
X184690867Y-88147308D01*
X184692352Y-88209595D01*
X184692965Y-88288775D01*
X184693040Y-88342250D01*
X184693040Y-88614469D01*
X184979516Y-88901078D01*
X185265993Y-89187688D01*
X185355763Y-89101149D01*
X185412433Y-89049589D01*
X185460341Y-89013733D01*
X185502278Y-88992568D01*
X185541031Y-88985078D01*
X185579392Y-88990251D01*
X185617868Y-89005897D01*
X185636365Y-89016877D01*
X185652458Y-89030889D01*
X185667127Y-89050197D01*
X185681353Y-89077062D01*
X185696118Y-89113746D01*
X185712403Y-89162513D01*
X185731190Y-89225624D01*
X185753459Y-89305341D01*
X185763114Y-89340736D01*
X185826005Y-89572286D01*
X185871662Y-89531476D01*
X185925468Y-89490676D01*
X185975656Y-89468300D01*
X186014518Y-89462960D01*
X186065051Y-89472445D01*
X186110396Y-89498273D01*
X186146632Y-89536509D01*
X186169840Y-89583217D01*
X186176400Y-89625520D01*
X186173116Y-89656739D01*
X186162034Y-89688196D01*
X186141309Y-89722802D01*
X186109095Y-89763468D01*
X186063544Y-89813103D01*
X186045844Y-89831363D01*
X185978621Y-89900046D01*
X186547103Y-90468800D01*
X186824031Y-90468800D01*
X186913476Y-90468621D01*
X186984650Y-90468814D01*
X187039589Y-90470476D01*
X187080329Y-90474705D01*
X187108908Y-90482599D01*
X187127361Y-90495255D01*
X187137724Y-90513770D01*
X187142034Y-90539241D01*
X187142327Y-90572767D01*
X187140639Y-90615443D01*
X187139741Y-90638942D01*
X187137800Y-90691868D01*
X187135570Y-90728452D01*
X187132203Y-90752661D01*
X187126854Y-90768466D01*
X187118678Y-90779836D01*
X187107508Y-90790155D01*
X187079506Y-90814240D01*
X186798200Y-90814240D01*
X186516893Y-90814241D01*
X186235520Y-91095479D01*
X185954148Y-91376717D01*
X186036359Y-91463568D01*
X186081655Y-91512472D01*
X186114139Y-91550682D01*
X186135815Y-91581417D01*
X186148683Y-91607894D01*
X186154745Y-91633332D01*
X186156042Y-91655985D01*
X186148987Y-91711579D01*
X186126854Y-91754352D01*
X186088352Y-91786409D01*
X186070440Y-91795639D01*
X186050525Y-91803159D01*
X186015453Y-91814800D01*
X185968594Y-91829573D01*
X185913319Y-91846488D01*
X185852999Y-91864558D01*
X185791005Y-91882792D01*
X185730707Y-91900201D01*
X185675476Y-91915796D01*
X185628684Y-91928589D01*
X185593700Y-91937589D01*
X185573895Y-91941809D01*
X185571684Y-91942000D01*
X185574536Y-91948819D01*
X185588346Y-91966794D01*
X185610232Y-91992209D01*
X185613046Y-91995340D01*
X185655251Y-92047999D01*
X185679469Y-92094077D01*
X185685859Y-92136130D01*
X185674582Y-92176717D01*
X185645799Y-92218394D01*
X185628243Y-92237124D01*
X185582046Y-92275182D01*
X185538229Y-92293845D01*
X185495168Y-92293642D01*
X185474412Y-92287048D01*
X185455192Y-92275351D01*
X185425253Y-92252756D01*
X185388554Y-92222418D01*
X185349053Y-92187494D01*
X185345510Y-92184247D01*
X185247696Y-92094323D01*
X185206588Y-92132257D01*
X185189540Y-92148472D01*
X185160112Y-92177005D01*
X185120342Y-92215856D01*
X185072270Y-92263024D01*
X185017933Y-92316510D01*
X184959373Y-92374315D01*
X184919100Y-92414157D01*
X184672720Y-92658125D01*
X184672720Y-93230846D01*
X184644937Y-93252700D01*
X184631313Y-93262100D01*
X184616175Y-93268157D01*
X184595198Y-93271419D01*
X184564056Y-93272433D01*
X184518426Y-93271746D01*
X184498652Y-93271217D01*
X184454228Y-93270342D01*
X184418770Y-93269111D01*
X184391272Y-93265450D01*
X184370730Y-93257288D01*
X184356141Y-93242555D01*
X184346500Y-93219177D01*
X184340804Y-93185084D01*
X184338048Y-93138204D01*
X184337228Y-93076465D01*
X184337341Y-92997796D01*
X184337440Y-92938578D01*
X184337440Y-92647984D01*
X184054761Y-92365441D01*
X183983290Y-92294113D01*
X183924737Y-92236015D01*
X183877735Y-92189926D01*
X183840913Y-92154627D01*
X183812904Y-92128896D01*
X183792339Y-92111516D01*
X183777849Y-92101264D01*
X183768066Y-92096922D01*
X183761621Y-92097270D01*
X183757581Y-92100538D01*
X183733054Y-92126623D01*
X183698869Y-92158141D01*
X183659248Y-92191724D01*
X183618415Y-92224008D01*
X183580594Y-92251627D01*
X183550006Y-92271215D01*
X183533980Y-92278726D01*
X183487625Y-92282609D01*
X183439155Y-92269396D01*
X183393742Y-92240957D01*
X183372713Y-92220387D01*
X183355130Y-92197875D01*
X183345801Y-92176352D01*
X183342209Y-92147798D01*
X183341760Y-92121708D01*
X183343527Y-92082216D01*
X183350733Y-92051256D01*
X183366235Y-92022553D01*
X183392889Y-91989831D01*
X183410380Y-91970963D01*
X183430294Y-91948806D01*
X183437094Y-91936623D01*
X183432337Y-91930325D01*
X183426643Y-91928264D01*
X183411004Y-91923921D01*
X183379291Y-91915354D01*
X183335080Y-91903521D01*
X183281945Y-91889380D01*
X183232432Y-91876259D01*
X183139808Y-91851168D01*
X183064949Y-91829337D01*
X183005739Y-91809826D01*
X182960062Y-91791693D01*
X182925801Y-91773998D01*
X182900841Y-91755800D01*
X182883065Y-91736159D01*
X182871046Y-91715605D01*
X182857162Y-91676510D01*
X182854723Y-91638641D01*
X182864774Y-91599355D01*
X182888356Y-91556010D01*
X182926513Y-91505964D01*
X182975066Y-91452070D01*
X183056011Y-91366557D01*
X182774639Y-91085319D01*
X182493266Y-90804080D01*
X182207887Y-90804080D01*
X182118287Y-90804262D01*
X182046905Y-90804123D01*
X181991653Y-90802632D01*
X181950441Y-90798763D01*
X181921180Y-90791486D01*
X181901780Y-90779773D01*
X181890154Y-90762595D01*
X181884211Y-90738923D01*
X181881863Y-90707730D01*
X181881020Y-90667985D01*
X181880463Y-90642868D01*
X181879319Y-90591270D01*
X181335449Y-90591270D01*
X181335409Y-90636440D01*
X181335479Y-90738139D01*
X181335752Y-90822041D01*
X181336341Y-90890669D01*
X181337359Y-90946547D01*
X181338921Y-90992197D01*
X181341139Y-91030143D01*
X181344127Y-91062908D01*
X181347997Y-91093014D01*
X181352865Y-91122986D01*
X181358700Y-91154600D01*
X181418329Y-91417299D01*
X181494809Y-91668688D01*
X181588204Y-91908906D01*
X181698575Y-92138087D01*
X181825983Y-92356369D01*
X181970491Y-92563888D01*
X182036502Y-92648120D01*
X182074353Y-92692260D01*
X182123857Y-92746197D01*
X182181954Y-92806919D01*
X182245581Y-92871413D01*
X182311679Y-92936668D01*
X182377186Y-92999671D01*
X182439040Y-93057411D01*
X182494182Y-93106875D01*
X182539549Y-93145051D01*
X182549280Y-93152690D01*
X182758367Y-93302218D01*
X182972265Y-93432385D01*
X183192277Y-93543743D01*
X183419705Y-93636842D01*
X183655851Y-93712234D01*
X183902017Y-93770468D01*
X184083440Y-93801679D01*
X184132553Y-93808446D01*
X184178922Y-93813667D01*
X184226262Y-93817522D01*
X184278288Y-93820193D01*
X184338713Y-93821858D01*
X184411252Y-93822698D01*
X184499620Y-93822893D01*
X184520320Y-93822869D01*
X184520320Y-93822869D01*
G37*
X184520320Y-93822869D02*
X184634944Y-93822088D01*
X184731571Y-93820074D01*
X184812492Y-93816735D01*
X184879999Y-93811979D01*
X184931800Y-93806330D01*
X185173116Y-93764432D01*
X185412896Y-93702912D01*
X185649300Y-93622465D01*
X185880484Y-93523786D01*
X186104608Y-93407571D01*
X186292832Y-93292468D01*
X186376383Y-93235512D01*
X186455363Y-93177192D01*
X186532524Y-93115090D01*
X186610619Y-93046788D01*
X186692398Y-92969865D01*
X186780614Y-92881905D01*
X186878019Y-92780487D01*
X186891170Y-92766538D01*
X187000055Y-92644895D01*
X187097597Y-92522591D01*
X187186752Y-92395267D01*
X187270473Y-92258564D01*
X187351717Y-92108120D01*
X187391373Y-92028360D01*
X187469215Y-91857669D01*
X187534469Y-91691115D01*
X187588797Y-91523326D01*
X187633861Y-91348929D01*
X187671324Y-91162553D01*
X187685351Y-91078400D01*
X187692370Y-91021140D01*
X187698290Y-90947843D01*
X187703021Y-90862769D01*
X187706473Y-90770175D01*
X187708556Y-90674320D01*
X187709178Y-90579464D01*
X187708250Y-90489863D01*
X187705682Y-90409778D01*
X187701382Y-90343466D01*
X187701025Y-90339563D01*
X187667323Y-90086179D01*
X187614468Y-89838542D01*
X187542886Y-89597535D01*
X187453000Y-89364044D01*
X187345236Y-89138953D01*
X187220019Y-88923146D01*
X187077774Y-88717507D01*
X186918927Y-88522922D01*
X186743902Y-88340274D01*
X186736833Y-88333480D01*
X186543568Y-88161849D01*
X186340820Y-88008187D01*
X186128662Y-87872529D01*
X185907168Y-87754910D01*
X185676411Y-87655368D01*
X185436465Y-87573938D01*
X185187403Y-87510656D01*
X184972440Y-87471734D01*
X184911044Y-87464349D01*
X184834074Y-87457850D01*
X184746263Y-87452411D01*
X184652345Y-87448204D01*
X184557053Y-87445403D01*
X184465121Y-87444182D01*
X184381282Y-87444714D01*
X184310270Y-87447172D01*
X184306960Y-87447359D01*
X184071214Y-87470821D01*
X183834718Y-87513584D01*
X183600037Y-87574905D01*
X183369735Y-87654038D01*
X183146378Y-87750237D01*
X182991240Y-87829682D01*
X182896911Y-87884012D01*
X182797161Y-87946018D01*
X182697917Y-88011767D01*
X182605107Y-88077326D01*
X182524656Y-88138763D01*
X182521190Y-88141555D01*
X182465379Y-88189117D01*
X182400726Y-88248333D01*
X182330321Y-88316018D01*
X182257257Y-88388986D01*
X182184623Y-88464052D01*
X182115511Y-88538030D01*
X182053011Y-88607736D01*
X182000214Y-88669983D01*
X181965894Y-88713813D01*
X181820421Y-88926131D01*
X181692374Y-89146609D01*
X181582412Y-89373866D01*
X181491190Y-89606516D01*
X181419367Y-89843176D01*
X181407676Y-89889680D01*
X181390184Y-89962449D01*
X181375764Y-90025320D01*
X181364120Y-90081351D01*
X181354957Y-90133598D01*
X181347977Y-90185117D01*
X181342887Y-90238965D01*
X181339389Y-90298198D01*
X181337188Y-90365873D01*
X181335989Y-90445046D01*
X181335495Y-90538775D01*
X181335449Y-90591270D01*
X181879319Y-90591270D01*
X181879687Y-90555644D01*
X181882116Y-90531667D01*
X181887153Y-90515012D01*
X181895344Y-90501356D01*
X181898980Y-90496583D01*
X181920834Y-90468800D01*
X182493533Y-90468800D01*
X183071707Y-89890360D01*
X182988253Y-89804860D01*
X182932301Y-89742742D01*
X182894124Y-89689059D01*
X182873330Y-89643138D01*
X182869531Y-89604304D01*
X182870105Y-89600593D01*
X182888240Y-89548587D01*
X182920226Y-89504204D01*
X182962007Y-89471839D01*
X183002679Y-89456970D01*
X183056122Y-89457237D01*
X183111969Y-89477512D01*
X183165176Y-89513735D01*
X183191455Y-89533584D01*
X183211565Y-89545332D01*
X183220468Y-89546635D01*
X183225176Y-89534637D01*
X183233844Y-89506590D01*
X183245414Y-89466137D01*
X183258827Y-89416918D01*
X183265455Y-89391840D01*
X183291933Y-89292841D01*
X183315064Y-89211777D01*
X183335666Y-89146694D01*
X183354555Y-89095638D01*
X183372550Y-89056655D01*
X183390469Y-89027792D01*
X183409128Y-89007096D01*
X183429347Y-88992611D01*
X183433496Y-88990367D01*
X183476465Y-88975311D01*
X183520497Y-88975123D01*
X183567345Y-88990529D01*
X183618762Y-89022260D01*
X183676498Y-89071042D01*
X183712429Y-89106269D01*
X183783379Y-89178687D01*
X184065489Y-88896712D01*
X184347600Y-88614737D01*
X184347600Y-88049797D01*
X184372538Y-88024859D01*
X184384538Y-88014075D01*
X184397659Y-88006946D01*
X184416168Y-88002721D01*
X184444332Y-88000646D01*
X184486417Y-87999970D01*
X184513947Y-87999920D01*
X184561930Y-88000451D01*
X184603404Y-88001889D01*
X184633562Y-88004008D01*
X184646864Y-88006232D01*
X184659874Y-88012952D01*
X184670214Y-88023482D01*
X184678183Y-88040002D01*
X184684082Y-88064692D01*
X184688210Y-88099734D01*
X184690867Y-88147308D01*
X184692352Y-88209595D01*
X184692965Y-88288775D01*
X184693040Y-88342250D01*
X184693040Y-88614469D01*
X184979516Y-88901078D01*
X185265993Y-89187688D01*
X185355763Y-89101149D01*
X185412433Y-89049589D01*
X185460341Y-89013733D01*
X185502278Y-88992568D01*
X185541031Y-88985078D01*
X185579392Y-88990251D01*
X185617868Y-89005897D01*
X185636365Y-89016877D01*
X185652458Y-89030889D01*
X185667127Y-89050197D01*
X185681353Y-89077062D01*
X185696118Y-89113746D01*
X185712403Y-89162513D01*
X185731190Y-89225624D01*
X185753459Y-89305341D01*
X185763114Y-89340736D01*
X185826005Y-89572286D01*
X185871662Y-89531476D01*
X185925468Y-89490676D01*
X185975656Y-89468300D01*
X186014518Y-89462960D01*
X186065051Y-89472445D01*
X186110396Y-89498273D01*
X186146632Y-89536509D01*
X186169840Y-89583217D01*
X186176400Y-89625520D01*
X186173116Y-89656739D01*
X186162034Y-89688196D01*
X186141309Y-89722802D01*
X186109095Y-89763468D01*
X186063544Y-89813103D01*
X186045844Y-89831363D01*
X185978621Y-89900046D01*
X186547103Y-90468800D01*
X186824031Y-90468800D01*
X186913476Y-90468621D01*
X186984650Y-90468814D01*
X187039589Y-90470476D01*
X187080329Y-90474705D01*
X187108908Y-90482599D01*
X187127361Y-90495255D01*
X187137724Y-90513770D01*
X187142034Y-90539241D01*
X187142327Y-90572767D01*
X187140639Y-90615443D01*
X187139741Y-90638942D01*
X187137800Y-90691868D01*
X187135570Y-90728452D01*
X187132203Y-90752661D01*
X187126854Y-90768466D01*
X187118678Y-90779836D01*
X187107508Y-90790155D01*
X187079506Y-90814240D01*
X186798200Y-90814240D01*
X186516893Y-90814241D01*
X186235520Y-91095479D01*
X185954148Y-91376717D01*
X186036359Y-91463568D01*
X186081655Y-91512472D01*
X186114139Y-91550682D01*
X186135815Y-91581417D01*
X186148683Y-91607894D01*
X186154745Y-91633332D01*
X186156042Y-91655985D01*
X186148987Y-91711579D01*
X186126854Y-91754352D01*
X186088352Y-91786409D01*
X186070440Y-91795639D01*
X186050525Y-91803159D01*
X186015453Y-91814800D01*
X185968594Y-91829573D01*
X185913319Y-91846488D01*
X185852999Y-91864558D01*
X185791005Y-91882792D01*
X185730707Y-91900201D01*
X185675476Y-91915796D01*
X185628684Y-91928589D01*
X185593700Y-91937589D01*
X185573895Y-91941809D01*
X185571684Y-91942000D01*
X185574536Y-91948819D01*
X185588346Y-91966794D01*
X185610232Y-91992209D01*
X185613046Y-91995340D01*
X185655251Y-92047999D01*
X185679469Y-92094077D01*
X185685859Y-92136130D01*
X185674582Y-92176717D01*
X185645799Y-92218394D01*
X185628243Y-92237124D01*
X185582046Y-92275182D01*
X185538229Y-92293845D01*
X185495168Y-92293642D01*
X185474412Y-92287048D01*
X185455192Y-92275351D01*
X185425253Y-92252756D01*
X185388554Y-92222418D01*
X185349053Y-92187494D01*
X185345510Y-92184247D01*
X185247696Y-92094323D01*
X185206588Y-92132257D01*
X185189540Y-92148472D01*
X185160112Y-92177005D01*
X185120342Y-92215856D01*
X185072270Y-92263024D01*
X185017933Y-92316510D01*
X184959373Y-92374315D01*
X184919100Y-92414157D01*
X184672720Y-92658125D01*
X184672720Y-93230846D01*
X184644937Y-93252700D01*
X184631313Y-93262100D01*
X184616175Y-93268157D01*
X184595198Y-93271419D01*
X184564056Y-93272433D01*
X184518426Y-93271746D01*
X184498652Y-93271217D01*
X184454228Y-93270342D01*
X184418770Y-93269111D01*
X184391272Y-93265450D01*
X184370730Y-93257288D01*
X184356141Y-93242555D01*
X184346500Y-93219177D01*
X184340804Y-93185084D01*
X184338048Y-93138204D01*
X184337228Y-93076465D01*
X184337341Y-92997796D01*
X184337440Y-92938578D01*
X184337440Y-92647984D01*
X184054761Y-92365441D01*
X183983290Y-92294113D01*
X183924737Y-92236015D01*
X183877735Y-92189926D01*
X183840913Y-92154627D01*
X183812904Y-92128896D01*
X183792339Y-92111516D01*
X183777849Y-92101264D01*
X183768066Y-92096922D01*
X183761621Y-92097270D01*
X183757581Y-92100538D01*
X183733054Y-92126623D01*
X183698869Y-92158141D01*
X183659248Y-92191724D01*
X183618415Y-92224008D01*
X183580594Y-92251627D01*
X183550006Y-92271215D01*
X183533980Y-92278726D01*
X183487625Y-92282609D01*
X183439155Y-92269396D01*
X183393742Y-92240957D01*
X183372713Y-92220387D01*
X183355130Y-92197875D01*
X183345801Y-92176352D01*
X183342209Y-92147798D01*
X183341760Y-92121708D01*
X183343527Y-92082216D01*
X183350733Y-92051256D01*
X183366235Y-92022553D01*
X183392889Y-91989831D01*
X183410380Y-91970963D01*
X183430294Y-91948806D01*
X183437094Y-91936623D01*
X183432337Y-91930325D01*
X183426643Y-91928264D01*
X183411004Y-91923921D01*
X183379291Y-91915354D01*
X183335080Y-91903521D01*
X183281945Y-91889380D01*
X183232432Y-91876259D01*
X183139808Y-91851168D01*
X183064949Y-91829337D01*
X183005739Y-91809826D01*
X182960062Y-91791693D01*
X182925801Y-91773998D01*
X182900841Y-91755800D01*
X182883065Y-91736159D01*
X182871046Y-91715605D01*
X182857162Y-91676510D01*
X182854723Y-91638641D01*
X182864774Y-91599355D01*
X182888356Y-91556010D01*
X182926513Y-91505964D01*
X182975066Y-91452070D01*
X183056011Y-91366557D01*
X182774639Y-91085319D01*
X182493266Y-90804080D01*
X182207887Y-90804080D01*
X182118287Y-90804262D01*
X182046905Y-90804123D01*
X181991653Y-90802632D01*
X181950441Y-90798763D01*
X181921180Y-90791486D01*
X181901780Y-90779773D01*
X181890154Y-90762595D01*
X181884211Y-90738923D01*
X181881863Y-90707730D01*
X181881020Y-90667985D01*
X181880463Y-90642868D01*
X181879319Y-90591270D01*
X181335449Y-90591270D01*
X181335409Y-90636440D01*
X181335479Y-90738139D01*
X181335752Y-90822041D01*
X181336341Y-90890669D01*
X181337359Y-90946547D01*
X181338921Y-90992197D01*
X181341139Y-91030143D01*
X181344127Y-91062908D01*
X181347997Y-91093014D01*
X181352865Y-91122986D01*
X181358700Y-91154600D01*
X181418329Y-91417299D01*
X181494809Y-91668688D01*
X181588204Y-91908906D01*
X181698575Y-92138087D01*
X181825983Y-92356369D01*
X181970491Y-92563888D01*
X182036502Y-92648120D01*
X182074353Y-92692260D01*
X182123857Y-92746197D01*
X182181954Y-92806919D01*
X182245581Y-92871413D01*
X182311679Y-92936668D01*
X182377186Y-92999671D01*
X182439040Y-93057411D01*
X182494182Y-93106875D01*
X182539549Y-93145051D01*
X182549280Y-93152690D01*
X182758367Y-93302218D01*
X182972265Y-93432385D01*
X183192277Y-93543743D01*
X183419705Y-93636842D01*
X183655851Y-93712234D01*
X183902017Y-93770468D01*
X184083440Y-93801679D01*
X184132553Y-93808446D01*
X184178922Y-93813667D01*
X184226262Y-93817522D01*
X184278288Y-93820193D01*
X184338713Y-93821858D01*
X184411252Y-93822698D01*
X184499620Y-93822893D01*
X184520320Y-93822869D01*
G36*
X183559869Y-89652521D02*
G01*
X183585900Y-89647472D01*
X183622112Y-89638790D01*
X183640793Y-89633873D01*
X183728320Y-89610212D01*
X183588508Y-89471472D01*
X183566321Y-89559936D01*
X183556976Y-89599559D01*
X183550653Y-89631105D01*
X183548238Y-89649887D01*
X183548699Y-89652967D01*
X183559869Y-89652521D01*
X183559869Y-89652521D01*
G37*
X183559869Y-89652521D02*
X183585900Y-89647472D01*
X183622112Y-89638790D01*
X183640793Y-89633873D01*
X183728320Y-89610212D01*
X183588508Y-89471472D01*
X183566321Y-89559936D01*
X183556976Y-89599559D01*
X183550653Y-89631105D01*
X183548238Y-89649887D01*
X183548699Y-89652967D01*
X183559869Y-89652521D01*
G36*
X185484552Y-89646671D02*
G01*
X185480505Y-89619512D01*
X185469919Y-89575764D01*
X185459587Y-89538832D01*
X185449747Y-89508849D01*
X185441027Y-89488853D01*
X185436539Y-89483706D01*
X185426667Y-89490618D01*
X185406376Y-89508660D01*
X185379440Y-89534421D01*
X185369315Y-89544455D01*
X185342398Y-89572315D01*
X185322802Y-89594426D01*
X185313597Y-89607245D01*
X185313435Y-89608920D01*
X185324390Y-89613134D01*
X185349287Y-89620845D01*
X185382398Y-89630449D01*
X185417995Y-89640347D01*
X185450350Y-89648935D01*
X185473734Y-89654613D01*
X185481823Y-89656000D01*
X185484552Y-89646671D01*
X185484552Y-89646671D01*
G37*
X185484552Y-89646671D02*
X185480505Y-89619512D01*
X185469919Y-89575764D01*
X185459587Y-89538832D01*
X185449747Y-89508849D01*
X185441027Y-89488853D01*
X185436539Y-89483706D01*
X185426667Y-89490618D01*
X185406376Y-89508660D01*
X185379440Y-89534421D01*
X185369315Y-89544455D01*
X185342398Y-89572315D01*
X185322802Y-89594426D01*
X185313597Y-89607245D01*
X185313435Y-89608920D01*
X185324390Y-89613134D01*
X185349287Y-89620845D01*
X185382398Y-89630449D01*
X185417995Y-89640347D01*
X185450350Y-89648935D01*
X185473734Y-89654613D01*
X185481823Y-89656000D01*
X185484552Y-89646671D01*
G36*
X183534800Y-91609779D02*
G01*
X183532203Y-91593220D01*
X183525449Y-91564895D01*
X183516088Y-91530157D01*
X183505671Y-91494360D01*
X183495749Y-91462856D01*
X183487873Y-91441001D01*
X183483870Y-91434000D01*
X183473964Y-91441111D01*
X183454542Y-91460003D01*
X183429301Y-91487019D01*
X183421618Y-91495628D01*
X183396321Y-91524943D01*
X183377275Y-91548326D01*
X183367703Y-91561775D01*
X183367160Y-91563233D01*
X183376264Y-91568344D01*
X183400561Y-91576840D01*
X183435523Y-91587200D01*
X183450980Y-91591392D01*
X183488750Y-91600978D01*
X183517682Y-91607540D01*
X183533291Y-91610096D01*
X183534800Y-91609779D01*
X183534800Y-91609779D01*
G37*
X183534800Y-91609779D02*
X183532203Y-91593220D01*
X183525449Y-91564895D01*
X183516088Y-91530157D01*
X183505671Y-91494360D01*
X183495749Y-91462856D01*
X183487873Y-91441001D01*
X183483870Y-91434000D01*
X183473964Y-91441111D01*
X183454542Y-91460003D01*
X183429301Y-91487019D01*
X183421618Y-91495628D01*
X183396321Y-91524943D01*
X183377275Y-91548326D01*
X183367703Y-91561775D01*
X183367160Y-91563233D01*
X183376264Y-91568344D01*
X183400561Y-91576840D01*
X183435523Y-91587200D01*
X183450980Y-91591392D01*
X183488750Y-91600978D01*
X183517682Y-91607540D01*
X183533291Y-91610096D01*
X183534800Y-91609779D01*
G36*
X184767536Y-92098818D02*
G01*
X185019705Y-91849158D01*
X184934836Y-91760959D01*
X184882298Y-91703188D01*
X184845661Y-91654409D01*
X184824135Y-91612022D01*
X184816935Y-91573427D01*
X184823271Y-91536023D01*
X184842357Y-91497209D01*
X184850971Y-91484148D01*
X184889948Y-91443294D01*
X184936257Y-91420234D01*
X184987389Y-91414986D01*
X185040832Y-91427568D01*
X185094077Y-91457995D01*
X185122284Y-91482264D01*
X185146977Y-91503148D01*
X185164139Y-91511220D01*
X185168937Y-91509708D01*
X185174748Y-91496442D01*
X185183983Y-91467820D01*
X185195308Y-91428238D01*
X185205827Y-91388280D01*
X185230945Y-91291520D01*
X185254289Y-91206258D01*
X185275302Y-91134371D01*
X185293424Y-91077736D01*
X185308097Y-91038230D01*
X185313527Y-91026339D01*
X185345981Y-90978440D01*
X185386065Y-90948890D01*
X185435353Y-90936642D01*
X185448997Y-90936160D01*
X185486306Y-90939875D01*
X185522526Y-90952315D01*
X185560867Y-90975421D01*
X185604538Y-91011135D01*
X185656746Y-91061400D01*
X185657946Y-91062614D01*
X185687887Y-91091863D01*
X185713150Y-91114569D01*
X185729994Y-91127459D01*
X185734068Y-91129200D01*
X185743679Y-91122260D01*
X185765414Y-91102800D01*
X185797228Y-91072865D01*
X185837074Y-91034499D01*
X185882906Y-90989745D01*
X185932678Y-90940648D01*
X185984345Y-90889250D01*
X186035859Y-90837597D01*
X186085176Y-90787732D01*
X186130249Y-90741699D01*
X186169032Y-90701541D01*
X186199479Y-90669303D01*
X186219544Y-90647028D01*
X186227181Y-90636761D01*
X186227200Y-90636596D01*
X186220260Y-90627257D01*
X186200546Y-90605336D01*
X186169713Y-90572559D01*
X186129416Y-90530650D01*
X186081310Y-90481334D01*
X186027052Y-90426336D01*
X185981526Y-90380606D01*
X185735853Y-90134779D01*
X185650335Y-90215729D01*
X185591217Y-90268566D01*
X185541821Y-90305613D01*
X185500496Y-90327922D01*
X185465591Y-90336541D01*
X185460198Y-90336720D01*
X185412741Y-90327243D01*
X185366090Y-90300596D01*
X185335501Y-90271840D01*
X185315627Y-90246211D01*
X185305829Y-90222256D01*
X185302754Y-90190432D01*
X185302640Y-90178382D01*
X185307005Y-90129401D01*
X185322006Y-90086946D01*
X185350506Y-90044322D01*
X185369258Y-90022459D01*
X185404246Y-89983730D01*
X185279783Y-89951149D01*
X185168580Y-89921471D01*
X185075515Y-89895421D01*
X185001008Y-89873123D01*
X184945479Y-89854705D01*
X184909348Y-89840293D01*
X184905054Y-89838194D01*
X184858699Y-89804806D01*
X184828618Y-89761150D01*
X184818992Y-89730190D01*
X184816229Y-89696528D01*
X184822171Y-89663636D01*
X184838413Y-89628374D01*
X184866549Y-89587604D01*
X184908173Y-89538185D01*
X184927126Y-89517282D01*
X185018575Y-89417809D01*
X184772065Y-89171145D01*
X184713969Y-89113160D01*
X184660449Y-89060024D01*
X184613187Y-89013387D01*
X184573864Y-88974895D01*
X184544164Y-88946196D01*
X184525767Y-88928940D01*
X184520320Y-88924480D01*
X184512164Y-88931409D01*
X184491361Y-88951096D01*
X184459594Y-88981892D01*
X184418546Y-89022149D01*
X184369898Y-89070217D01*
X184315335Y-89124449D01*
X184268782Y-89170937D01*
X184210843Y-89229092D01*
X184157755Y-89282726D01*
X184111167Y-89330147D01*
X184072726Y-89369660D01*
X184044083Y-89399573D01*
X184026887Y-89418193D01*
X184022480Y-89423812D01*
X184028708Y-89433635D01*
X184045621Y-89455446D01*
X184070555Y-89485912D01*
X184097636Y-89517956D01*
X184146263Y-89577809D01*
X184179968Y-89627472D01*
X184199628Y-89669530D01*
X184206121Y-89706566D01*
X184200327Y-89741165D01*
X184184527Y-89773669D01*
X184170953Y-89792448D01*
X184153531Y-89809465D01*
X184130261Y-89825536D01*
X184099138Y-89841480D01*
X184058161Y-89858113D01*
X184005326Y-89876254D01*
X183938630Y-89896718D01*
X183856071Y-89920324D01*
X183761533Y-89946293D01*
X183617426Y-89985389D01*
X183658298Y-90029730D01*
X183685609Y-90063800D01*
X183710019Y-90101611D01*
X183719736Y-90120562D01*
X183731969Y-90152729D01*
X183734727Y-90177392D01*
X183729132Y-90204332D01*
X183712875Y-90237195D01*
X183685660Y-90272854D01*
X183653560Y-90304572D01*
X183622647Y-90325616D01*
X183617958Y-90327643D01*
X183584380Y-90336669D01*
X183551343Y-90336085D01*
X183516079Y-90324654D01*
X183475822Y-90301138D01*
X183427804Y-90264300D01*
X183376930Y-90219880D01*
X183343819Y-90190178D01*
X183316313Y-90166039D01*
X183297856Y-90150455D01*
X183292083Y-90146201D01*
X183283671Y-90152519D01*
X183262651Y-90171629D01*
X183230721Y-90201894D01*
X183189579Y-90241674D01*
X183140924Y-90289332D01*
X183086451Y-90343228D01*
X183042059Y-90387501D01*
X182798357Y-90631362D01*
X183047120Y-90880281D01*
X183105506Y-90938545D01*
X183159342Y-90991966D01*
X183206951Y-91038903D01*
X183246657Y-91077715D01*
X183276781Y-91106761D01*
X183295646Y-91124399D01*
X183301552Y-91129200D01*
X183310717Y-91122703D01*
X183331814Y-91104913D01*
X183361903Y-91078388D01*
X183398047Y-91045682D01*
X183406288Y-91038124D01*
X183454235Y-90995404D01*
X183492276Y-90965701D01*
X183524364Y-90947165D01*
X183554447Y-90937949D01*
X183586478Y-90936206D01*
X183617857Y-90939174D01*
X183641824Y-90943943D01*
X183662735Y-90952538D01*
X183681475Y-90966774D01*
X183698929Y-90988464D01*
X183715984Y-91019423D01*
X183733525Y-91061464D01*
X183752438Y-91116401D01*
X183773609Y-91186048D01*
X183797923Y-91272218D01*
X183819816Y-91352720D01*
X183834361Y-91406192D01*
X183847197Y-91452363D01*
X183857360Y-91487845D01*
X183863886Y-91509247D01*
X183865709Y-91513992D01*
X183874470Y-91509858D01*
X183893817Y-91495311D01*
X183916215Y-91476398D01*
X183948139Y-91451594D01*
X183980651Y-91431468D01*
X183999120Y-91423167D01*
X184053353Y-91414442D01*
X184103667Y-91422901D01*
X184147504Y-91445704D01*
X184182302Y-91480013D01*
X184205503Y-91522988D01*
X184214545Y-91571791D01*
X184206870Y-91623583D01*
X184198601Y-91644384D01*
X184184752Y-91666208D01*
X184160265Y-91697875D01*
X184128830Y-91734819D01*
X184100290Y-91766023D01*
X184018898Y-91852007D01*
X184267133Y-92100243D01*
X184515368Y-92348478D01*
X184767536Y-92098818D01*
X184767536Y-92098818D01*
G37*
X184767536Y-92098818D02*
X185019705Y-91849158D01*
X184934836Y-91760959D01*
X184882298Y-91703188D01*
X184845661Y-91654409D01*
X184824135Y-91612022D01*
X184816935Y-91573427D01*
X184823271Y-91536023D01*
X184842357Y-91497209D01*
X184850971Y-91484148D01*
X184889948Y-91443294D01*
X184936257Y-91420234D01*
X184987389Y-91414986D01*
X185040832Y-91427568D01*
X185094077Y-91457995D01*
X185122284Y-91482264D01*
X185146977Y-91503148D01*
X185164139Y-91511220D01*
X185168937Y-91509708D01*
X185174748Y-91496442D01*
X185183983Y-91467820D01*
X185195308Y-91428238D01*
X185205827Y-91388280D01*
X185230945Y-91291520D01*
X185254289Y-91206258D01*
X185275302Y-91134371D01*
X185293424Y-91077736D01*
X185308097Y-91038230D01*
X185313527Y-91026339D01*
X185345981Y-90978440D01*
X185386065Y-90948890D01*
X185435353Y-90936642D01*
X185448997Y-90936160D01*
X185486306Y-90939875D01*
X185522526Y-90952315D01*
X185560867Y-90975421D01*
X185604538Y-91011135D01*
X185656746Y-91061400D01*
X185657946Y-91062614D01*
X185687887Y-91091863D01*
X185713150Y-91114569D01*
X185729994Y-91127459D01*
X185734068Y-91129200D01*
X185743679Y-91122260D01*
X185765414Y-91102800D01*
X185797228Y-91072865D01*
X185837074Y-91034499D01*
X185882906Y-90989745D01*
X185932678Y-90940648D01*
X185984345Y-90889250D01*
X186035859Y-90837597D01*
X186085176Y-90787732D01*
X186130249Y-90741699D01*
X186169032Y-90701541D01*
X186199479Y-90669303D01*
X186219544Y-90647028D01*
X186227181Y-90636761D01*
X186227200Y-90636596D01*
X186220260Y-90627257D01*
X186200546Y-90605336D01*
X186169713Y-90572559D01*
X186129416Y-90530650D01*
X186081310Y-90481334D01*
X186027052Y-90426336D01*
X185981526Y-90380606D01*
X185735853Y-90134779D01*
X185650335Y-90215729D01*
X185591217Y-90268566D01*
X185541821Y-90305613D01*
X185500496Y-90327922D01*
X185465591Y-90336541D01*
X185460198Y-90336720D01*
X185412741Y-90327243D01*
X185366090Y-90300596D01*
X185335501Y-90271840D01*
X185315627Y-90246211D01*
X185305829Y-90222256D01*
X185302754Y-90190432D01*
X185302640Y-90178382D01*
X185307005Y-90129401D01*
X185322006Y-90086946D01*
X185350506Y-90044322D01*
X185369258Y-90022459D01*
X185404246Y-89983730D01*
X185279783Y-89951149D01*
X185168580Y-89921471D01*
X185075515Y-89895421D01*
X185001008Y-89873123D01*
X184945479Y-89854705D01*
X184909348Y-89840293D01*
X184905054Y-89838194D01*
X184858699Y-89804806D01*
X184828618Y-89761150D01*
X184818992Y-89730190D01*
X184816229Y-89696528D01*
X184822171Y-89663636D01*
X184838413Y-89628374D01*
X184866549Y-89587604D01*
X184908173Y-89538185D01*
X184927126Y-89517282D01*
X185018575Y-89417809D01*
X184772065Y-89171145D01*
X184713969Y-89113160D01*
X184660449Y-89060024D01*
X184613187Y-89013387D01*
X184573864Y-88974895D01*
X184544164Y-88946196D01*
X184525767Y-88928940D01*
X184520320Y-88924480D01*
X184512164Y-88931409D01*
X184491361Y-88951096D01*
X184459594Y-88981892D01*
X184418546Y-89022149D01*
X184369898Y-89070217D01*
X184315335Y-89124449D01*
X184268782Y-89170937D01*
X184210843Y-89229092D01*
X184157755Y-89282726D01*
X184111167Y-89330147D01*
X184072726Y-89369660D01*
X184044083Y-89399573D01*
X184026887Y-89418193D01*
X184022480Y-89423812D01*
X184028708Y-89433635D01*
X184045621Y-89455446D01*
X184070555Y-89485912D01*
X184097636Y-89517956D01*
X184146263Y-89577809D01*
X184179968Y-89627472D01*
X184199628Y-89669530D01*
X184206121Y-89706566D01*
X184200327Y-89741165D01*
X184184527Y-89773669D01*
X184170953Y-89792448D01*
X184153531Y-89809465D01*
X184130261Y-89825536D01*
X184099138Y-89841480D01*
X184058161Y-89858113D01*
X184005326Y-89876254D01*
X183938630Y-89896718D01*
X183856071Y-89920324D01*
X183761533Y-89946293D01*
X183617426Y-89985389D01*
X183658298Y-90029730D01*
X183685609Y-90063800D01*
X183710019Y-90101611D01*
X183719736Y-90120562D01*
X183731969Y-90152729D01*
X183734727Y-90177392D01*
X183729132Y-90204332D01*
X183712875Y-90237195D01*
X183685660Y-90272854D01*
X183653560Y-90304572D01*
X183622647Y-90325616D01*
X183617958Y-90327643D01*
X183584380Y-90336669D01*
X183551343Y-90336085D01*
X183516079Y-90324654D01*
X183475822Y-90301138D01*
X183427804Y-90264300D01*
X183376930Y-90219880D01*
X183343819Y-90190178D01*
X183316313Y-90166039D01*
X183297856Y-90150455D01*
X183292083Y-90146201D01*
X183283671Y-90152519D01*
X183262651Y-90171629D01*
X183230721Y-90201894D01*
X183189579Y-90241674D01*
X183140924Y-90289332D01*
X183086451Y-90343228D01*
X183042059Y-90387501D01*
X182798357Y-90631362D01*
X183047120Y-90880281D01*
X183105506Y-90938545D01*
X183159342Y-90991966D01*
X183206951Y-91038903D01*
X183246657Y-91077715D01*
X183276781Y-91106761D01*
X183295646Y-91124399D01*
X183301552Y-91129200D01*
X183310717Y-91122703D01*
X183331814Y-91104913D01*
X183361903Y-91078388D01*
X183398047Y-91045682D01*
X183406288Y-91038124D01*
X183454235Y-90995404D01*
X183492276Y-90965701D01*
X183524364Y-90947165D01*
X183554447Y-90937949D01*
X183586478Y-90936206D01*
X183617857Y-90939174D01*
X183641824Y-90943943D01*
X183662735Y-90952538D01*
X183681475Y-90966774D01*
X183698929Y-90988464D01*
X183715984Y-91019423D01*
X183733525Y-91061464D01*
X183752438Y-91116401D01*
X183773609Y-91186048D01*
X183797923Y-91272218D01*
X183819816Y-91352720D01*
X183834361Y-91406192D01*
X183847197Y-91452363D01*
X183857360Y-91487845D01*
X183863886Y-91509247D01*
X183865709Y-91513992D01*
X183874470Y-91509858D01*
X183893817Y-91495311D01*
X183916215Y-91476398D01*
X183948139Y-91451594D01*
X183980651Y-91431468D01*
X183999120Y-91423167D01*
X184053353Y-91414442D01*
X184103667Y-91422901D01*
X184147504Y-91445704D01*
X184182302Y-91480013D01*
X184205503Y-91522988D01*
X184214545Y-91571791D01*
X184206870Y-91623583D01*
X184198601Y-91644384D01*
X184184752Y-91666208D01*
X184160265Y-91697875D01*
X184128830Y-91734819D01*
X184100290Y-91766023D01*
X184018898Y-91852007D01*
X184267133Y-92100243D01*
X184515368Y-92348478D01*
X184767536Y-92098818D01*
G36*
X183559869Y-89652521D02*
G01*
X183585900Y-89647472D01*
X183622112Y-89638790D01*
X183640793Y-89633873D01*
X183728320Y-89610212D01*
X183588508Y-89471472D01*
X183566321Y-89559936D01*
X183556976Y-89599559D01*
X183550653Y-89631105D01*
X183548238Y-89649887D01*
X183548699Y-89652967D01*
X183559869Y-89652521D01*
X183559869Y-89652521D01*
G37*
X183559869Y-89652521D02*
X183585900Y-89647472D01*
X183622112Y-89638790D01*
X183640793Y-89633873D01*
X183728320Y-89610212D01*
X183588508Y-89471472D01*
X183566321Y-89559936D01*
X183556976Y-89599559D01*
X183550653Y-89631105D01*
X183548238Y-89649887D01*
X183548699Y-89652967D01*
X183559869Y-89652521D01*
G36*
X182537901Y-92586601D02*
G01*
X182534679Y-92566840D01*
X182524137Y-92500727D01*
X182515119Y-92424237D01*
X182508091Y-92343601D01*
X182503518Y-92265044D01*
X182501865Y-92194794D01*
X182503169Y-92145200D01*
X182507634Y-92077748D01*
X182511734Y-92025997D01*
X182516074Y-91985354D01*
X182521253Y-91951222D01*
X182527875Y-91919008D01*
X182536541Y-91884116D01*
X182538194Y-91877839D01*
X182572900Y-91763517D01*
X182615031Y-91657593D01*
X182666969Y-91555448D01*
X182731099Y-91452466D01*
X182809805Y-91344028D01*
X182821600Y-91328818D01*
X182907690Y-91218555D01*
X182700638Y-91011318D01*
X182493585Y-90804080D01*
X182208047Y-90804080D01*
X182118422Y-90804263D01*
X182047016Y-90804124D01*
X181991740Y-90802636D01*
X181950507Y-90798771D01*
X181921226Y-90791501D01*
X181901811Y-90779800D01*
X181890171Y-90762637D01*
X181884219Y-90738987D01*
X181881866Y-90707820D01*
X181881022Y-90668110D01*
X181880463Y-90642868D01*
X181879319Y-90591270D01*
X181879687Y-90555644D01*
X181882116Y-90531667D01*
X181887153Y-90515012D01*
X181895344Y-90501356D01*
X181898980Y-90496583D01*
X181920834Y-90468800D01*
X182493533Y-90468800D01*
X183071707Y-89890360D01*
X182988253Y-89804860D01*
X182932301Y-89742742D01*
X182894124Y-89689059D01*
X182873330Y-89643138D01*
X182869531Y-89604304D01*
X182870105Y-89600593D01*
X182888240Y-89548587D01*
X182920226Y-89504204D01*
X182962007Y-89471839D01*
X183002679Y-89456970D01*
X183056122Y-89457237D01*
X183111969Y-89477512D01*
X183165176Y-89513735D01*
X183191455Y-89533584D01*
X183211565Y-89545332D01*
X183220468Y-89546635D01*
X183225176Y-89534637D01*
X183233844Y-89506590D01*
X183245414Y-89466137D01*
X183258827Y-89416918D01*
X183265455Y-89391840D01*
X183294738Y-89283619D01*
X183321165Y-89193587D01*
X183344586Y-89122194D01*
X183364856Y-89069887D01*
X183381825Y-89037114D01*
X183383234Y-89035069D01*
X183421075Y-88998463D01*
X183469728Y-88978701D01*
X183504320Y-88975280D01*
X183535514Y-88977894D01*
X183565179Y-88987100D01*
X183596671Y-89004946D01*
X183633346Y-89033478D01*
X183678559Y-89074744D01*
X183697721Y-89093256D01*
X183784442Y-89177894D01*
X184348054Y-88614012D01*
X184345287Y-88417643D01*
X184342520Y-88221275D01*
X184322200Y-88243789D01*
X184295411Y-88268470D01*
X184253273Y-88300958D01*
X184198396Y-88339557D01*
X184133392Y-88382571D01*
X184060872Y-88428304D01*
X183983447Y-88475061D01*
X183903729Y-88521146D01*
X183844680Y-88553883D01*
X183807642Y-88573557D01*
X183758705Y-88598865D01*
X183700197Y-88628661D01*
X183634449Y-88661797D01*
X183563794Y-88697124D01*
X183490560Y-88733497D01*
X183417080Y-88769768D01*
X183345683Y-88804789D01*
X183278701Y-88837413D01*
X183218464Y-88866493D01*
X183167303Y-88890882D01*
X183127549Y-88909431D01*
X183101532Y-88920994D01*
X183091822Y-88924480D01*
X183081645Y-88928501D01*
X183057260Y-88939316D01*
X183022838Y-88955054D01*
X182999055Y-88966103D01*
X182888238Y-89022709D01*
X182771504Y-89091111D01*
X182652131Y-89168812D01*
X182533399Y-89253319D01*
X182418587Y-89342135D01*
X182310974Y-89432765D01*
X182213839Y-89522715D01*
X182130462Y-89609488D01*
X182088261Y-89659165D01*
X182034537Y-89738179D01*
X181985468Y-89834355D01*
X181941999Y-89944875D01*
X181905079Y-90066923D01*
X181875654Y-90197681D01*
X181854669Y-90334333D01*
X181851347Y-90364254D01*
X181846698Y-90424900D01*
X181843656Y-90498465D01*
X181842140Y-90581328D01*
X181842067Y-90669872D01*
X181843355Y-90760477D01*
X181845921Y-90849524D01*
X181849683Y-90933393D01*
X181854558Y-91008466D01*
X181860465Y-91071122D01*
X181867320Y-91117744D01*
X181868641Y-91124120D01*
X181875999Y-91159091D01*
X181882292Y-91191549D01*
X181882952Y-91195240D01*
X181896066Y-91251686D01*
X181917882Y-91323383D01*
X181947368Y-91407745D01*
X181983492Y-91502187D01*
X182025222Y-91604122D01*
X182071526Y-91710965D01*
X182121372Y-91820129D01*
X182173729Y-91929028D01*
X182184017Y-91949759D01*
X182227328Y-92035694D01*
X182271937Y-92122598D01*
X182316620Y-92208211D01*
X182360151Y-92290276D01*
X182401308Y-92366535D01*
X182438866Y-92434729D01*
X182471600Y-92492600D01*
X182498287Y-92537890D01*
X182517702Y-92568341D01*
X182524060Y-92577000D01*
X182535172Y-92589692D01*
X182537901Y-92586601D01*
X182537901Y-92586601D01*
G37*
X182537901Y-92586601D02*
X182534679Y-92566840D01*
X182524137Y-92500727D01*
X182515119Y-92424237D01*
X182508091Y-92343601D01*
X182503518Y-92265044D01*
X182501865Y-92194794D01*
X182503169Y-92145200D01*
X182507634Y-92077748D01*
X182511734Y-92025997D01*
X182516074Y-91985354D01*
X182521253Y-91951222D01*
X182527875Y-91919008D01*
X182536541Y-91884116D01*
X182538194Y-91877839D01*
X182572900Y-91763517D01*
X182615031Y-91657593D01*
X182666969Y-91555448D01*
X182731099Y-91452466D01*
X182809805Y-91344028D01*
X182821600Y-91328818D01*
X182907690Y-91218555D01*
X182700638Y-91011318D01*
X182493585Y-90804080D01*
X182208047Y-90804080D01*
X182118422Y-90804263D01*
X182047016Y-90804124D01*
X181991740Y-90802636D01*
X181950507Y-90798771D01*
X181921226Y-90791501D01*
X181901811Y-90779800D01*
X181890171Y-90762637D01*
X181884219Y-90738987D01*
X181881866Y-90707820D01*
X181881022Y-90668110D01*
X181880463Y-90642868D01*
X181879319Y-90591270D01*
X181879687Y-90555644D01*
X181882116Y-90531667D01*
X181887153Y-90515012D01*
X181895344Y-90501356D01*
X181898980Y-90496583D01*
X181920834Y-90468800D01*
X182493533Y-90468800D01*
X183071707Y-89890360D01*
X182988253Y-89804860D01*
X182932301Y-89742742D01*
X182894124Y-89689059D01*
X182873330Y-89643138D01*
X182869531Y-89604304D01*
X182870105Y-89600593D01*
X182888240Y-89548587D01*
X182920226Y-89504204D01*
X182962007Y-89471839D01*
X183002679Y-89456970D01*
X183056122Y-89457237D01*
X183111969Y-89477512D01*
X183165176Y-89513735D01*
X183191455Y-89533584D01*
X183211565Y-89545332D01*
X183220468Y-89546635D01*
X183225176Y-89534637D01*
X183233844Y-89506590D01*
X183245414Y-89466137D01*
X183258827Y-89416918D01*
X183265455Y-89391840D01*
X183294738Y-89283619D01*
X183321165Y-89193587D01*
X183344586Y-89122194D01*
X183364856Y-89069887D01*
X183381825Y-89037114D01*
X183383234Y-89035069D01*
X183421075Y-88998463D01*
X183469728Y-88978701D01*
X183504320Y-88975280D01*
X183535514Y-88977894D01*
X183565179Y-88987100D01*
X183596671Y-89004946D01*
X183633346Y-89033478D01*
X183678559Y-89074744D01*
X183697721Y-89093256D01*
X183784442Y-89177894D01*
X184348054Y-88614012D01*
X184345287Y-88417643D01*
X184342520Y-88221275D01*
X184322200Y-88243789D01*
X184295411Y-88268470D01*
X184253273Y-88300958D01*
X184198396Y-88339557D01*
X184133392Y-88382571D01*
X184060872Y-88428304D01*
X183983447Y-88475061D01*
X183903729Y-88521146D01*
X183844680Y-88553883D01*
X183807642Y-88573557D01*
X183758705Y-88598865D01*
X183700197Y-88628661D01*
X183634449Y-88661797D01*
X183563794Y-88697124D01*
X183490560Y-88733497D01*
X183417080Y-88769768D01*
X183345683Y-88804789D01*
X183278701Y-88837413D01*
X183218464Y-88866493D01*
X183167303Y-88890882D01*
X183127549Y-88909431D01*
X183101532Y-88920994D01*
X183091822Y-88924480D01*
X183081645Y-88928501D01*
X183057260Y-88939316D01*
X183022838Y-88955054D01*
X182999055Y-88966103D01*
X182888238Y-89022709D01*
X182771504Y-89091111D01*
X182652131Y-89168812D01*
X182533399Y-89253319D01*
X182418587Y-89342135D01*
X182310974Y-89432765D01*
X182213839Y-89522715D01*
X182130462Y-89609488D01*
X182088261Y-89659165D01*
X182034537Y-89738179D01*
X181985468Y-89834355D01*
X181941999Y-89944875D01*
X181905079Y-90066923D01*
X181875654Y-90197681D01*
X181854669Y-90334333D01*
X181851347Y-90364254D01*
X181846698Y-90424900D01*
X181843656Y-90498465D01*
X181842140Y-90581328D01*
X181842067Y-90669872D01*
X181843355Y-90760477D01*
X181845921Y-90849524D01*
X181849683Y-90933393D01*
X181854558Y-91008466D01*
X181860465Y-91071122D01*
X181867320Y-91117744D01*
X181868641Y-91124120D01*
X181875999Y-91159091D01*
X181882292Y-91191549D01*
X181882952Y-91195240D01*
X181896066Y-91251686D01*
X181917882Y-91323383D01*
X181947368Y-91407745D01*
X181983492Y-91502187D01*
X182025222Y-91604122D01*
X182071526Y-91710965D01*
X182121372Y-91820129D01*
X182173729Y-91929028D01*
X182184017Y-91949759D01*
X182227328Y-92035694D01*
X182271937Y-92122598D01*
X182316620Y-92208211D01*
X182360151Y-92290276D01*
X182401308Y-92366535D01*
X182438866Y-92434729D01*
X182471600Y-92492600D01*
X182498287Y-92537890D01*
X182517702Y-92568341D01*
X182524060Y-92577000D01*
X182535172Y-92589692D01*
X182537901Y-92586601D01*
G36*
X184767567Y-92098788D02*
G01*
X185019705Y-91849158D01*
X184934836Y-91760959D01*
X184882298Y-91703188D01*
X184845661Y-91654409D01*
X184824135Y-91612022D01*
X184816935Y-91573427D01*
X184823271Y-91536023D01*
X184842357Y-91497209D01*
X184850971Y-91484148D01*
X184889948Y-91443294D01*
X184936257Y-91420234D01*
X184987389Y-91414986D01*
X185040832Y-91427568D01*
X185094077Y-91457995D01*
X185122284Y-91482264D01*
X185146977Y-91503148D01*
X185164139Y-91511220D01*
X185168937Y-91509708D01*
X185174748Y-91496442D01*
X185183983Y-91467820D01*
X185195308Y-91428238D01*
X185205827Y-91388280D01*
X185230945Y-91291520D01*
X185254289Y-91206258D01*
X185275302Y-91134371D01*
X185293424Y-91077736D01*
X185308097Y-91038230D01*
X185313527Y-91026339D01*
X185345981Y-90978440D01*
X185386065Y-90948890D01*
X185435353Y-90936642D01*
X185448997Y-90936160D01*
X185486306Y-90939875D01*
X185522526Y-90952315D01*
X185560867Y-90975421D01*
X185604538Y-91011135D01*
X185656746Y-91061400D01*
X185657946Y-91062614D01*
X185687887Y-91091863D01*
X185713150Y-91114569D01*
X185729994Y-91127459D01*
X185734068Y-91129200D01*
X185743699Y-91122258D01*
X185765450Y-91102793D01*
X185797276Y-91072850D01*
X185837131Y-91034473D01*
X185882969Y-90989706D01*
X185932745Y-90940595D01*
X185984411Y-90889183D01*
X186035923Y-90837514D01*
X186085235Y-90787633D01*
X186130301Y-90741585D01*
X186169074Y-90701414D01*
X186199509Y-90669163D01*
X186219560Y-90646878D01*
X186227181Y-90636602D01*
X186227200Y-90636440D01*
X186220298Y-90627304D01*
X186200949Y-90605965D01*
X186171186Y-90574473D01*
X186133042Y-90534876D01*
X186088553Y-90489222D01*
X186039751Y-90439559D01*
X185988671Y-90387936D01*
X185937345Y-90336400D01*
X185887809Y-90287000D01*
X185842095Y-90241784D01*
X185802237Y-90202800D01*
X185770269Y-90172097D01*
X185748225Y-90151722D01*
X185738139Y-90143724D01*
X185737915Y-90143680D01*
X185732176Y-90152667D01*
X185724340Y-90175795D01*
X185718783Y-90197020D01*
X185692202Y-90291703D01*
X185656256Y-90393723D01*
X185613574Y-90496940D01*
X185566785Y-90595208D01*
X185518518Y-90682385D01*
X185495649Y-90718410D01*
X185443725Y-90791613D01*
X185387103Y-90862432D01*
X185323921Y-90932632D01*
X185252318Y-91003980D01*
X185170435Y-91078241D01*
X185076410Y-91157180D01*
X184968383Y-91242564D01*
X184845440Y-91335456D01*
X184721753Y-91427368D01*
X184606504Y-91513211D01*
X184500513Y-91592365D01*
X184404601Y-91664211D01*
X184319592Y-91728128D01*
X184246305Y-91783495D01*
X184185563Y-91829694D01*
X184138187Y-91866103D01*
X184104998Y-91892103D01*
X184086818Y-91907074D01*
X184083440Y-91910591D01*
X184090356Y-91919052D01*
X184109928Y-91940017D01*
X184140394Y-91971674D01*
X184179988Y-92012209D01*
X184226948Y-92059810D01*
X184279511Y-92112663D01*
X184299434Y-92132597D01*
X184515429Y-92348417D01*
X184767567Y-92098788D01*
X184767567Y-92098788D01*
G37*
X184767567Y-92098788D02*
X185019705Y-91849158D01*
X184934836Y-91760959D01*
X184882298Y-91703188D01*
X184845661Y-91654409D01*
X184824135Y-91612022D01*
X184816935Y-91573427D01*
X184823271Y-91536023D01*
X184842357Y-91497209D01*
X184850971Y-91484148D01*
X184889948Y-91443294D01*
X184936257Y-91420234D01*
X184987389Y-91414986D01*
X185040832Y-91427568D01*
X185094077Y-91457995D01*
X185122284Y-91482264D01*
X185146977Y-91503148D01*
X185164139Y-91511220D01*
X185168937Y-91509708D01*
X185174748Y-91496442D01*
X185183983Y-91467820D01*
X185195308Y-91428238D01*
X185205827Y-91388280D01*
X185230945Y-91291520D01*
X185254289Y-91206258D01*
X185275302Y-91134371D01*
X185293424Y-91077736D01*
X185308097Y-91038230D01*
X185313527Y-91026339D01*
X185345981Y-90978440D01*
X185386065Y-90948890D01*
X185435353Y-90936642D01*
X185448997Y-90936160D01*
X185486306Y-90939875D01*
X185522526Y-90952315D01*
X185560867Y-90975421D01*
X185604538Y-91011135D01*
X185656746Y-91061400D01*
X185657946Y-91062614D01*
X185687887Y-91091863D01*
X185713150Y-91114569D01*
X185729994Y-91127459D01*
X185734068Y-91129200D01*
X185743699Y-91122258D01*
X185765450Y-91102793D01*
X185797276Y-91072850D01*
X185837131Y-91034473D01*
X185882969Y-90989706D01*
X185932745Y-90940595D01*
X185984411Y-90889183D01*
X186035923Y-90837514D01*
X186085235Y-90787633D01*
X186130301Y-90741585D01*
X186169074Y-90701414D01*
X186199509Y-90669163D01*
X186219560Y-90646878D01*
X186227181Y-90636602D01*
X186227200Y-90636440D01*
X186220298Y-90627304D01*
X186200949Y-90605965D01*
X186171186Y-90574473D01*
X186133042Y-90534876D01*
X186088553Y-90489222D01*
X186039751Y-90439559D01*
X185988671Y-90387936D01*
X185937345Y-90336400D01*
X185887809Y-90287000D01*
X185842095Y-90241784D01*
X185802237Y-90202800D01*
X185770269Y-90172097D01*
X185748225Y-90151722D01*
X185738139Y-90143724D01*
X185737915Y-90143680D01*
X185732176Y-90152667D01*
X185724340Y-90175795D01*
X185718783Y-90197020D01*
X185692202Y-90291703D01*
X185656256Y-90393723D01*
X185613574Y-90496940D01*
X185566785Y-90595208D01*
X185518518Y-90682385D01*
X185495649Y-90718410D01*
X185443725Y-90791613D01*
X185387103Y-90862432D01*
X185323921Y-90932632D01*
X185252318Y-91003980D01*
X185170435Y-91078241D01*
X185076410Y-91157180D01*
X184968383Y-91242564D01*
X184845440Y-91335456D01*
X184721753Y-91427368D01*
X184606504Y-91513211D01*
X184500513Y-91592365D01*
X184404601Y-91664211D01*
X184319592Y-91728128D01*
X184246305Y-91783495D01*
X184185563Y-91829694D01*
X184138187Y-91866103D01*
X184104998Y-91892103D01*
X184086818Y-91907074D01*
X184083440Y-91910591D01*
X184090356Y-91919052D01*
X184109928Y-91940017D01*
X184140394Y-91971674D01*
X184179988Y-92012209D01*
X184226948Y-92059810D01*
X184279511Y-92112663D01*
X184299434Y-92132597D01*
X184515429Y-92348417D01*
X184767567Y-92098788D01*
G36*
X183161687Y-90971047D02*
G01*
X183185157Y-90955328D01*
X183218171Y-90931952D01*
X183257401Y-90903228D01*
X183262956Y-90899094D01*
X183305656Y-90868162D01*
X183362249Y-90828523D01*
X183429474Y-90782364D01*
X183504069Y-90731867D01*
X183582773Y-90679219D01*
X183662323Y-90626603D01*
X183739459Y-90576205D01*
X183810919Y-90530208D01*
X183859920Y-90499231D01*
X183895190Y-90476876D01*
X183943280Y-90445993D01*
X184000054Y-90409259D01*
X184061379Y-90369348D01*
X184123122Y-90328937D01*
X184134240Y-90321633D01*
X184193364Y-90283043D01*
X184250791Y-90246063D01*
X184302959Y-90212949D01*
X184346307Y-90185955D01*
X184377277Y-90167336D01*
X184383160Y-90163979D01*
X184488270Y-90099724D01*
X184581256Y-90031778D01*
X184660780Y-89961569D01*
X184725501Y-89890521D01*
X184774081Y-89820062D01*
X184805180Y-89751616D01*
X184816180Y-89702868D01*
X184827631Y-89650021D01*
X184850731Y-89604286D01*
X184856297Y-89596135D01*
X184876470Y-89562146D01*
X184891790Y-89522104D01*
X184904650Y-89469479D01*
X184906943Y-89457880D01*
X184914593Y-89414425D01*
X184920037Y-89376269D01*
X184922465Y-89349437D01*
X184922388Y-89342978D01*
X184914071Y-89327288D01*
X184890938Y-89298291D01*
X184853262Y-89256291D01*
X184801317Y-89201590D01*
X184735375Y-89134491D01*
X184722918Y-89121998D01*
X184671108Y-89070321D01*
X184624006Y-89023691D01*
X184583503Y-88983953D01*
X184551491Y-88952951D01*
X184529861Y-88932528D01*
X184520504Y-88924529D01*
X184520339Y-88924480D01*
X184512179Y-88931409D01*
X184491372Y-88951096D01*
X184459601Y-88981892D01*
X184418549Y-89022149D01*
X184369899Y-89070218D01*
X184315334Y-89124450D01*
X184268782Y-89170937D01*
X184210843Y-89229092D01*
X184157755Y-89282726D01*
X184111167Y-89330147D01*
X184072726Y-89369660D01*
X184044083Y-89399573D01*
X184026887Y-89418193D01*
X184022480Y-89423812D01*
X184028708Y-89433635D01*
X184045621Y-89455446D01*
X184070555Y-89485912D01*
X184097636Y-89517956D01*
X184146263Y-89577809D01*
X184179968Y-89627472D01*
X184199628Y-89669530D01*
X184206121Y-89706566D01*
X184200327Y-89741165D01*
X184184527Y-89773669D01*
X184170953Y-89792448D01*
X184153531Y-89809465D01*
X184130261Y-89825536D01*
X184099138Y-89841480D01*
X184058161Y-89858113D01*
X184005326Y-89876254D01*
X183938630Y-89896718D01*
X183856071Y-89920324D01*
X183761533Y-89946293D01*
X183617426Y-89985389D01*
X183658298Y-90029730D01*
X183685609Y-90063800D01*
X183710019Y-90101611D01*
X183719736Y-90120562D01*
X183731969Y-90152729D01*
X183734727Y-90177392D01*
X183729132Y-90204332D01*
X183712875Y-90237195D01*
X183685660Y-90272854D01*
X183653560Y-90304572D01*
X183622647Y-90325616D01*
X183617958Y-90327643D01*
X183584380Y-90336669D01*
X183551343Y-90336085D01*
X183516079Y-90324654D01*
X183475822Y-90301138D01*
X183427804Y-90264300D01*
X183376930Y-90219880D01*
X183343819Y-90190178D01*
X183316313Y-90166039D01*
X183297856Y-90150455D01*
X183292083Y-90146201D01*
X183283671Y-90152519D01*
X183262651Y-90171629D01*
X183230721Y-90201894D01*
X183189580Y-90241674D01*
X183140925Y-90289331D01*
X183086453Y-90343226D01*
X183042076Y-90387484D01*
X182798391Y-90631328D01*
X182970903Y-90804064D01*
X183019378Y-90852295D01*
X183063224Y-90895337D01*
X183100378Y-90931213D01*
X183128777Y-90957943D01*
X183146358Y-90973550D01*
X183151084Y-90976800D01*
X183161687Y-90971047D01*
X183161687Y-90971047D01*
G37*
X183161687Y-90971047D02*
X183185157Y-90955328D01*
X183218171Y-90931952D01*
X183257401Y-90903228D01*
X183262956Y-90899094D01*
X183305656Y-90868162D01*
X183362249Y-90828523D01*
X183429474Y-90782364D01*
X183504069Y-90731867D01*
X183582773Y-90679219D01*
X183662323Y-90626603D01*
X183739459Y-90576205D01*
X183810919Y-90530208D01*
X183859920Y-90499231D01*
X183895190Y-90476876D01*
X183943280Y-90445993D01*
X184000054Y-90409259D01*
X184061379Y-90369348D01*
X184123122Y-90328937D01*
X184134240Y-90321633D01*
X184193364Y-90283043D01*
X184250791Y-90246063D01*
X184302959Y-90212949D01*
X184346307Y-90185955D01*
X184377277Y-90167336D01*
X184383160Y-90163979D01*
X184488270Y-90099724D01*
X184581256Y-90031778D01*
X184660780Y-89961569D01*
X184725501Y-89890521D01*
X184774081Y-89820062D01*
X184805180Y-89751616D01*
X184816180Y-89702868D01*
X184827631Y-89650021D01*
X184850731Y-89604286D01*
X184856297Y-89596135D01*
X184876470Y-89562146D01*
X184891790Y-89522104D01*
X184904650Y-89469479D01*
X184906943Y-89457880D01*
X184914593Y-89414425D01*
X184920037Y-89376269D01*
X184922465Y-89349437D01*
X184922388Y-89342978D01*
X184914071Y-89327288D01*
X184890938Y-89298291D01*
X184853262Y-89256291D01*
X184801317Y-89201590D01*
X184735375Y-89134491D01*
X184722918Y-89121998D01*
X184671108Y-89070321D01*
X184624006Y-89023691D01*
X184583503Y-88983953D01*
X184551491Y-88952951D01*
X184529861Y-88932528D01*
X184520504Y-88924529D01*
X184520339Y-88924480D01*
X184512179Y-88931409D01*
X184491372Y-88951096D01*
X184459601Y-88981892D01*
X184418549Y-89022149D01*
X184369899Y-89070218D01*
X184315334Y-89124450D01*
X184268782Y-89170937D01*
X184210843Y-89229092D01*
X184157755Y-89282726D01*
X184111167Y-89330147D01*
X184072726Y-89369660D01*
X184044083Y-89399573D01*
X184026887Y-89418193D01*
X184022480Y-89423812D01*
X184028708Y-89433635D01*
X184045621Y-89455446D01*
X184070555Y-89485912D01*
X184097636Y-89517956D01*
X184146263Y-89577809D01*
X184179968Y-89627472D01*
X184199628Y-89669530D01*
X184206121Y-89706566D01*
X184200327Y-89741165D01*
X184184527Y-89773669D01*
X184170953Y-89792448D01*
X184153531Y-89809465D01*
X184130261Y-89825536D01*
X184099138Y-89841480D01*
X184058161Y-89858113D01*
X184005326Y-89876254D01*
X183938630Y-89896718D01*
X183856071Y-89920324D01*
X183761533Y-89946293D01*
X183617426Y-89985389D01*
X183658298Y-90029730D01*
X183685609Y-90063800D01*
X183710019Y-90101611D01*
X183719736Y-90120562D01*
X183731969Y-90152729D01*
X183734727Y-90177392D01*
X183729132Y-90204332D01*
X183712875Y-90237195D01*
X183685660Y-90272854D01*
X183653560Y-90304572D01*
X183622647Y-90325616D01*
X183617958Y-90327643D01*
X183584380Y-90336669D01*
X183551343Y-90336085D01*
X183516079Y-90324654D01*
X183475822Y-90301138D01*
X183427804Y-90264300D01*
X183376930Y-90219880D01*
X183343819Y-90190178D01*
X183316313Y-90166039D01*
X183297856Y-90150455D01*
X183292083Y-90146201D01*
X183283671Y-90152519D01*
X183262651Y-90171629D01*
X183230721Y-90201894D01*
X183189580Y-90241674D01*
X183140925Y-90289331D01*
X183086453Y-90343226D01*
X183042076Y-90387484D01*
X182798391Y-90631328D01*
X182970903Y-90804064D01*
X183019378Y-90852295D01*
X183063224Y-90895337D01*
X183100378Y-90931213D01*
X183128777Y-90957943D01*
X183146358Y-90973550D01*
X183151084Y-90976800D01*
X183161687Y-90971047D01*
G36*
X185508975Y-91611983D02*
G01*
X185533547Y-91606966D01*
X185566262Y-91598928D01*
X185601610Y-91589365D01*
X185634080Y-91579771D01*
X185658164Y-91571642D01*
X185668349Y-91566474D01*
X185668400Y-91566258D01*
X185661659Y-91556973D01*
X185643634Y-91537102D01*
X185617619Y-91510210D01*
X185604446Y-91497028D01*
X185540492Y-91433643D01*
X185517504Y-91521293D01*
X185507679Y-91560532D01*
X185500792Y-91591548D01*
X185497830Y-91609716D01*
X185498056Y-91612484D01*
X185508975Y-91611983D01*
X185508975Y-91611983D01*
G37*
X185508975Y-91611983D02*
X185533547Y-91606966D01*
X185566262Y-91598928D01*
X185601610Y-91589365D01*
X185634080Y-91579771D01*
X185658164Y-91571642D01*
X185668349Y-91566474D01*
X185668400Y-91566258D01*
X185661659Y-91556973D01*
X185643634Y-91537102D01*
X185617619Y-91510210D01*
X185604446Y-91497028D01*
X185540492Y-91433643D01*
X185517504Y-91521293D01*
X185507679Y-91560532D01*
X185500792Y-91591548D01*
X185497830Y-91609716D01*
X185498056Y-91612484D01*
X185508975Y-91611983D01*
G36*
X185656011Y-97369006D02*
G01*
X185652700Y-97357785D01*
X185641879Y-97330809D01*
X185624690Y-97290708D01*
X185602274Y-97240112D01*
X185575775Y-97181652D01*
X185555616Y-97137907D01*
X185487853Y-96986679D01*
X185431318Y-96848251D01*
X185385161Y-96719086D01*
X185348531Y-96595644D01*
X185320577Y-96474388D01*
X185300448Y-96351780D01*
X185287293Y-96224279D01*
X185280262Y-96088349D01*
X185278525Y-95985680D01*
X185278563Y-95913204D01*
X185279324Y-95841783D01*
X185280706Y-95775923D01*
X185282609Y-95720129D01*
X185284929Y-95678908D01*
X185285627Y-95670720D01*
X185290300Y-95626077D01*
X185296399Y-95573884D01*
X185303324Y-95518650D01*
X185310471Y-95464888D01*
X185317238Y-95417108D01*
X185323024Y-95379820D01*
X185327225Y-95357535D01*
X185327682Y-95355760D01*
X185331917Y-95336011D01*
X185336863Y-95307026D01*
X185337705Y-95301461D01*
X185345115Y-95260704D01*
X185357048Y-95205727D01*
X185372191Y-95141773D01*
X185389230Y-95074084D01*
X185406853Y-95007905D01*
X185423747Y-94948478D01*
X185436051Y-94908720D01*
X185471810Y-94807314D01*
X185515958Y-94696463D01*
X185568856Y-94575473D01*
X185630866Y-94443652D01*
X185702352Y-94300307D01*
X185783675Y-94144743D01*
X185875199Y-93976270D01*
X185977284Y-93794192D01*
X186090295Y-93597818D01*
X186214592Y-93386453D01*
X186350540Y-93159406D01*
X186352523Y-93156120D01*
X186448770Y-92996299D01*
X186534944Y-92852307D01*
X186611773Y-92722763D01*
X186679986Y-92606283D01*
X186740311Y-92501488D01*
X186793478Y-92406993D01*
X186840215Y-92321418D01*
X186881249Y-92243381D01*
X186917311Y-92171499D01*
X186949128Y-92104391D01*
X186977430Y-92040674D01*
X187002944Y-91978968D01*
X187026399Y-91917889D01*
X187048524Y-91856057D01*
X187067355Y-91800280D01*
X187100637Y-91695063D01*
X187128425Y-91596724D01*
X187151458Y-91501188D01*
X187170476Y-91404382D01*
X187186221Y-91302230D01*
X187199432Y-91190659D01*
X187210849Y-91065593D01*
X187217900Y-90971712D01*
X187220034Y-90903667D01*
X187218410Y-90819931D01*
X187213346Y-90724722D01*
X187205161Y-90622255D01*
X187194172Y-90516747D01*
X187180698Y-90412415D01*
X187170703Y-90346880D01*
X187122013Y-90102226D01*
X187057382Y-89869562D01*
X186976200Y-89647549D01*
X186877860Y-89434845D01*
X186761755Y-89230109D01*
X186627275Y-89031999D01*
X186502971Y-88873680D01*
X186326538Y-88676440D01*
X186132736Y-88486267D01*
X185923791Y-88304850D01*
X185701929Y-88133875D01*
X185469375Y-87975029D01*
X185228355Y-87829999D01*
X184981096Y-87700472D01*
X184911480Y-87667413D01*
X184841115Y-87635297D01*
X184782716Y-87609774D01*
X184737730Y-87591425D01*
X184707605Y-87580833D01*
X184693789Y-87578579D01*
X184693040Y-87579561D01*
X184698630Y-87589348D01*
X184714217Y-87613081D01*
X184738021Y-87648144D01*
X184768265Y-87691921D01*
X184803168Y-87741796D01*
X184808661Y-87749593D01*
X184919812Y-87909331D01*
X185024393Y-88063850D01*
X185121607Y-88211850D01*
X185210663Y-88352032D01*
X185290766Y-88483096D01*
X185361122Y-88603742D01*
X185420938Y-88712671D01*
X185469420Y-88808584D01*
X185505774Y-88890179D01*
X185506786Y-88892683D01*
X185523634Y-88930979D01*
X185539713Y-88961429D01*
X185552479Y-88979446D01*
X185556456Y-88982272D01*
X185616883Y-89006695D01*
X185659343Y-89039290D01*
X185678867Y-89067324D01*
X185687642Y-89089088D01*
X185700511Y-89127105D01*
X185716424Y-89177972D01*
X185734334Y-89238283D01*
X185753190Y-89304635D01*
X185763114Y-89340736D01*
X185826005Y-89572286D01*
X185871662Y-89531476D01*
X185925468Y-89490676D01*
X185975656Y-89468300D01*
X186014518Y-89462960D01*
X186065051Y-89472445D01*
X186110396Y-89498273D01*
X186146632Y-89536509D01*
X186169840Y-89583217D01*
X186176400Y-89625520D01*
X186173116Y-89656739D01*
X186162034Y-89688196D01*
X186141309Y-89722802D01*
X186109095Y-89763468D01*
X186063544Y-89813103D01*
X186045844Y-89831363D01*
X185978621Y-89900046D01*
X186547103Y-90468800D01*
X186824031Y-90468800D01*
X186913476Y-90468621D01*
X186984650Y-90468814D01*
X187039589Y-90470476D01*
X187080329Y-90474705D01*
X187108908Y-90482599D01*
X187127361Y-90495255D01*
X187137724Y-90513770D01*
X187142034Y-90539241D01*
X187142327Y-90572767D01*
X187140639Y-90615443D01*
X187139741Y-90638942D01*
X187137800Y-90691868D01*
X187135570Y-90728452D01*
X187132203Y-90752661D01*
X187126854Y-90768466D01*
X187118678Y-90779836D01*
X187107508Y-90790155D01*
X187079506Y-90814240D01*
X186516893Y-90814240D01*
X186235520Y-91095479D01*
X185954148Y-91376717D01*
X186036359Y-91463568D01*
X186081655Y-91512472D01*
X186114139Y-91550682D01*
X186135815Y-91581417D01*
X186148683Y-91607894D01*
X186154745Y-91633332D01*
X186156042Y-91655985D01*
X186148987Y-91711579D01*
X186126854Y-91754352D01*
X186088352Y-91786409D01*
X186070440Y-91795639D01*
X186050525Y-91803159D01*
X186015453Y-91814800D01*
X185968594Y-91829573D01*
X185913319Y-91846488D01*
X185852999Y-91864558D01*
X185791005Y-91882792D01*
X185730707Y-91900201D01*
X185675476Y-91915796D01*
X185628684Y-91928589D01*
X185593700Y-91937589D01*
X185573895Y-91941809D01*
X185571684Y-91942000D01*
X185574536Y-91948819D01*
X185588346Y-91966794D01*
X185610232Y-91992209D01*
X185613046Y-91995340D01*
X185655251Y-92047999D01*
X185679469Y-92094077D01*
X185685859Y-92136130D01*
X185674582Y-92176717D01*
X185645799Y-92218394D01*
X185628243Y-92237124D01*
X185582046Y-92275182D01*
X185538229Y-92293845D01*
X185495168Y-92293642D01*
X185474412Y-92287048D01*
X185455192Y-92275351D01*
X185425253Y-92252756D01*
X185388554Y-92222418D01*
X185349053Y-92187494D01*
X185345510Y-92184247D01*
X185247696Y-92094323D01*
X185206588Y-92132257D01*
X185189540Y-92148472D01*
X185160112Y-92177005D01*
X185120342Y-92215856D01*
X185072270Y-92263024D01*
X185017933Y-92316510D01*
X184959373Y-92374315D01*
X184919100Y-92414157D01*
X184672720Y-92658125D01*
X184672720Y-93230846D01*
X184644937Y-93252700D01*
X184631313Y-93262100D01*
X184616175Y-93268157D01*
X184595198Y-93271419D01*
X184564056Y-93272433D01*
X184518426Y-93271746D01*
X184498652Y-93271217D01*
X184454229Y-93270342D01*
X184418770Y-93269111D01*
X184391272Y-93265450D01*
X184370731Y-93257289D01*
X184356141Y-93242555D01*
X184346500Y-93219178D01*
X184340804Y-93185086D01*
X184338048Y-93138206D01*
X184337228Y-93076468D01*
X184337341Y-92997800D01*
X184337440Y-92938573D01*
X184337440Y-92647974D01*
X184075228Y-92385908D01*
X183813017Y-92123843D01*
X183726140Y-92213964D01*
X183608324Y-92348385D01*
X183502648Y-92495056D01*
X183407969Y-92655813D01*
X183323147Y-92832491D01*
X183287340Y-92919067D01*
X183244328Y-93037626D01*
X183204580Y-93165646D01*
X183169915Y-93296305D01*
X183142152Y-93422781D01*
X183123934Y-93532040D01*
X183119591Y-93563702D01*
X183113741Y-93605724D01*
X183108384Y-93643800D01*
X183099342Y-93767238D01*
X183105174Y-93904265D01*
X183125836Y-94054673D01*
X183161288Y-94218252D01*
X183211486Y-94394793D01*
X183276389Y-94584086D01*
X183323099Y-94705520D01*
X183341435Y-94749112D01*
X183367130Y-94806926D01*
X183398371Y-94875052D01*
X183433345Y-94949581D01*
X183470238Y-95026604D01*
X183505662Y-95099031D01*
X183573865Y-95233247D01*
X183638776Y-95352502D01*
X183703295Y-95461190D01*
X183770324Y-95563702D01*
X183842765Y-95664430D01*
X183923520Y-95767767D01*
X184015490Y-95878104D01*
X184036583Y-95902673D01*
X184091104Y-95964065D01*
X184157687Y-96036070D01*
X184233342Y-96115653D01*
X184315078Y-96199777D01*
X184399905Y-96285407D01*
X184484831Y-96369508D01*
X184566865Y-96449042D01*
X184643018Y-96520976D01*
X184672720Y-96548366D01*
X184721442Y-96592970D01*
X184765051Y-96633001D01*
X184801335Y-96666420D01*
X184828081Y-96691186D01*
X184843076Y-96705259D01*
X184845440Y-96707605D01*
X184855450Y-96716904D01*
X184878710Y-96737343D01*
X184912929Y-96766970D01*
X184955815Y-96803835D01*
X185005078Y-96845985D01*
X185058425Y-96891471D01*
X185113566Y-96938340D01*
X185168211Y-96984641D01*
X185220066Y-97028422D01*
X185266843Y-97067733D01*
X185306249Y-97100621D01*
X185327908Y-97118520D01*
X185405299Y-97181632D01*
X185474503Y-97237173D01*
X185534322Y-97284228D01*
X185583558Y-97321885D01*
X185621016Y-97349228D01*
X185645496Y-97365343D01*
X185655803Y-97369318D01*
X185656011Y-97369006D01*
X185656011Y-97369006D01*
G37*
X185656011Y-97369006D02*
X185652700Y-97357785D01*
X185641879Y-97330809D01*
X185624690Y-97290708D01*
X185602274Y-97240112D01*
X185575775Y-97181652D01*
X185555616Y-97137907D01*
X185487853Y-96986679D01*
X185431318Y-96848251D01*
X185385161Y-96719086D01*
X185348531Y-96595644D01*
X185320577Y-96474388D01*
X185300448Y-96351780D01*
X185287293Y-96224279D01*
X185280262Y-96088349D01*
X185278525Y-95985680D01*
X185278563Y-95913204D01*
X185279324Y-95841783D01*
X185280706Y-95775923D01*
X185282609Y-95720129D01*
X185284929Y-95678908D01*
X185285627Y-95670720D01*
X185290300Y-95626077D01*
X185296399Y-95573884D01*
X185303324Y-95518650D01*
X185310471Y-95464888D01*
X185317238Y-95417108D01*
X185323024Y-95379820D01*
X185327225Y-95357535D01*
X185327682Y-95355760D01*
X185331917Y-95336011D01*
X185336863Y-95307026D01*
X185337705Y-95301461D01*
X185345115Y-95260704D01*
X185357048Y-95205727D01*
X185372191Y-95141773D01*
X185389230Y-95074084D01*
X185406853Y-95007905D01*
X185423747Y-94948478D01*
X185436051Y-94908720D01*
X185471810Y-94807314D01*
X185515958Y-94696463D01*
X185568856Y-94575473D01*
X185630866Y-94443652D01*
X185702352Y-94300307D01*
X185783675Y-94144743D01*
X185875199Y-93976270D01*
X185977284Y-93794192D01*
X186090295Y-93597818D01*
X186214592Y-93386453D01*
X186350540Y-93159406D01*
X186352523Y-93156120D01*
X186448770Y-92996299D01*
X186534944Y-92852307D01*
X186611773Y-92722763D01*
X186679986Y-92606283D01*
X186740311Y-92501488D01*
X186793478Y-92406993D01*
X186840215Y-92321418D01*
X186881249Y-92243381D01*
X186917311Y-92171499D01*
X186949128Y-92104391D01*
X186977430Y-92040674D01*
X187002944Y-91978968D01*
X187026399Y-91917889D01*
X187048524Y-91856057D01*
X187067355Y-91800280D01*
X187100637Y-91695063D01*
X187128425Y-91596724D01*
X187151458Y-91501188D01*
X187170476Y-91404382D01*
X187186221Y-91302230D01*
X187199432Y-91190659D01*
X187210849Y-91065593D01*
X187217900Y-90971712D01*
X187220034Y-90903667D01*
X187218410Y-90819931D01*
X187213346Y-90724722D01*
X187205161Y-90622255D01*
X187194172Y-90516747D01*
X187180698Y-90412415D01*
X187170703Y-90346880D01*
X187122013Y-90102226D01*
X187057382Y-89869562D01*
X186976200Y-89647549D01*
X186877860Y-89434845D01*
X186761755Y-89230109D01*
X186627275Y-89031999D01*
X186502971Y-88873680D01*
X186326538Y-88676440D01*
X186132736Y-88486267D01*
X185923791Y-88304850D01*
X185701929Y-88133875D01*
X185469375Y-87975029D01*
X185228355Y-87829999D01*
X184981096Y-87700472D01*
X184911480Y-87667413D01*
X184841115Y-87635297D01*
X184782716Y-87609774D01*
X184737730Y-87591425D01*
X184707605Y-87580833D01*
X184693789Y-87578579D01*
X184693040Y-87579561D01*
X184698630Y-87589348D01*
X184714217Y-87613081D01*
X184738021Y-87648144D01*
X184768265Y-87691921D01*
X184803168Y-87741796D01*
X184808661Y-87749593D01*
X184919812Y-87909331D01*
X185024393Y-88063850D01*
X185121607Y-88211850D01*
X185210663Y-88352032D01*
X185290766Y-88483096D01*
X185361122Y-88603742D01*
X185420938Y-88712671D01*
X185469420Y-88808584D01*
X185505774Y-88890179D01*
X185506786Y-88892683D01*
X185523634Y-88930979D01*
X185539713Y-88961429D01*
X185552479Y-88979446D01*
X185556456Y-88982272D01*
X185616883Y-89006695D01*
X185659343Y-89039290D01*
X185678867Y-89067324D01*
X185687642Y-89089088D01*
X185700511Y-89127105D01*
X185716424Y-89177972D01*
X185734334Y-89238283D01*
X185753190Y-89304635D01*
X185763114Y-89340736D01*
X185826005Y-89572286D01*
X185871662Y-89531476D01*
X185925468Y-89490676D01*
X185975656Y-89468300D01*
X186014518Y-89462960D01*
X186065051Y-89472445D01*
X186110396Y-89498273D01*
X186146632Y-89536509D01*
X186169840Y-89583217D01*
X186176400Y-89625520D01*
X186173116Y-89656739D01*
X186162034Y-89688196D01*
X186141309Y-89722802D01*
X186109095Y-89763468D01*
X186063544Y-89813103D01*
X186045844Y-89831363D01*
X185978621Y-89900046D01*
X186547103Y-90468800D01*
X186824031Y-90468800D01*
X186913476Y-90468621D01*
X186984650Y-90468814D01*
X187039589Y-90470476D01*
X187080329Y-90474705D01*
X187108908Y-90482599D01*
X187127361Y-90495255D01*
X187137724Y-90513770D01*
X187142034Y-90539241D01*
X187142327Y-90572767D01*
X187140639Y-90615443D01*
X187139741Y-90638942D01*
X187137800Y-90691868D01*
X187135570Y-90728452D01*
X187132203Y-90752661D01*
X187126854Y-90768466D01*
X187118678Y-90779836D01*
X187107508Y-90790155D01*
X187079506Y-90814240D01*
X186516893Y-90814240D01*
X186235520Y-91095479D01*
X185954148Y-91376717D01*
X186036359Y-91463568D01*
X186081655Y-91512472D01*
X186114139Y-91550682D01*
X186135815Y-91581417D01*
X186148683Y-91607894D01*
X186154745Y-91633332D01*
X186156042Y-91655985D01*
X186148987Y-91711579D01*
X186126854Y-91754352D01*
X186088352Y-91786409D01*
X186070440Y-91795639D01*
X186050525Y-91803159D01*
X186015453Y-91814800D01*
X185968594Y-91829573D01*
X185913319Y-91846488D01*
X185852999Y-91864558D01*
X185791005Y-91882792D01*
X185730707Y-91900201D01*
X185675476Y-91915796D01*
X185628684Y-91928589D01*
X185593700Y-91937589D01*
X185573895Y-91941809D01*
X185571684Y-91942000D01*
X185574536Y-91948819D01*
X185588346Y-91966794D01*
X185610232Y-91992209D01*
X185613046Y-91995340D01*
X185655251Y-92047999D01*
X185679469Y-92094077D01*
X185685859Y-92136130D01*
X185674582Y-92176717D01*
X185645799Y-92218394D01*
X185628243Y-92237124D01*
X185582046Y-92275182D01*
X185538229Y-92293845D01*
X185495168Y-92293642D01*
X185474412Y-92287048D01*
X185455192Y-92275351D01*
X185425253Y-92252756D01*
X185388554Y-92222418D01*
X185349053Y-92187494D01*
X185345510Y-92184247D01*
X185247696Y-92094323D01*
X185206588Y-92132257D01*
X185189540Y-92148472D01*
X185160112Y-92177005D01*
X185120342Y-92215856D01*
X185072270Y-92263024D01*
X185017933Y-92316510D01*
X184959373Y-92374315D01*
X184919100Y-92414157D01*
X184672720Y-92658125D01*
X184672720Y-93230846D01*
X184644937Y-93252700D01*
X184631313Y-93262100D01*
X184616175Y-93268157D01*
X184595198Y-93271419D01*
X184564056Y-93272433D01*
X184518426Y-93271746D01*
X184498652Y-93271217D01*
X184454229Y-93270342D01*
X184418770Y-93269111D01*
X184391272Y-93265450D01*
X184370731Y-93257289D01*
X184356141Y-93242555D01*
X184346500Y-93219178D01*
X184340804Y-93185086D01*
X184338048Y-93138206D01*
X184337228Y-93076468D01*
X184337341Y-92997800D01*
X184337440Y-92938573D01*
X184337440Y-92647974D01*
X184075228Y-92385908D01*
X183813017Y-92123843D01*
X183726140Y-92213964D01*
X183608324Y-92348385D01*
X183502648Y-92495056D01*
X183407969Y-92655813D01*
X183323147Y-92832491D01*
X183287340Y-92919067D01*
X183244328Y-93037626D01*
X183204580Y-93165646D01*
X183169915Y-93296305D01*
X183142152Y-93422781D01*
X183123934Y-93532040D01*
X183119591Y-93563702D01*
X183113741Y-93605724D01*
X183108384Y-93643800D01*
X183099342Y-93767238D01*
X183105174Y-93904265D01*
X183125836Y-94054673D01*
X183161288Y-94218252D01*
X183211486Y-94394793D01*
X183276389Y-94584086D01*
X183323099Y-94705520D01*
X183341435Y-94749112D01*
X183367130Y-94806926D01*
X183398371Y-94875052D01*
X183433345Y-94949581D01*
X183470238Y-95026604D01*
X183505662Y-95099031D01*
X183573865Y-95233247D01*
X183638776Y-95352502D01*
X183703295Y-95461190D01*
X183770324Y-95563702D01*
X183842765Y-95664430D01*
X183923520Y-95767767D01*
X184015490Y-95878104D01*
X184036583Y-95902673D01*
X184091104Y-95964065D01*
X184157687Y-96036070D01*
X184233342Y-96115653D01*
X184315078Y-96199777D01*
X184399905Y-96285407D01*
X184484831Y-96369508D01*
X184566865Y-96449042D01*
X184643018Y-96520976D01*
X184672720Y-96548366D01*
X184721442Y-96592970D01*
X184765051Y-96633001D01*
X184801335Y-96666420D01*
X184828081Y-96691186D01*
X184843076Y-96705259D01*
X184845440Y-96707605D01*
X184855450Y-96716904D01*
X184878710Y-96737343D01*
X184912929Y-96766970D01*
X184955815Y-96803835D01*
X185005078Y-96845985D01*
X185058425Y-96891471D01*
X185113566Y-96938340D01*
X185168211Y-96984641D01*
X185220066Y-97028422D01*
X185266843Y-97067733D01*
X185306249Y-97100621D01*
X185327908Y-97118520D01*
X185405299Y-97181632D01*
X185474503Y-97237173D01*
X185534322Y-97284228D01*
X185583558Y-97321885D01*
X185621016Y-97349228D01*
X185645496Y-97365343D01*
X185655803Y-97369318D01*
X185656011Y-97369006D01*
G36*
X184932045Y-88777160D02*
G01*
X184926672Y-88721074D01*
X184919810Y-88660882D01*
X184912015Y-88600367D01*
X184903841Y-88543312D01*
X184895843Y-88493501D01*
X184888575Y-88454715D01*
X184882592Y-88430739D01*
X184880558Y-88425935D01*
X184877247Y-88413285D01*
X184872785Y-88387490D01*
X184870283Y-88370055D01*
X184865757Y-88339983D01*
X184861689Y-88319140D01*
X184860099Y-88314136D01*
X184856453Y-88301924D01*
X184849642Y-88273875D01*
X184840589Y-88234057D01*
X184830220Y-88186537D01*
X184819458Y-88135383D01*
X184819246Y-88134354D01*
X184814244Y-88112439D01*
X184805457Y-88076295D01*
X184793750Y-88029288D01*
X184779988Y-87974780D01*
X184765036Y-87916135D01*
X184749758Y-87856718D01*
X184735022Y-87799890D01*
X184721691Y-87749017D01*
X184710630Y-87707462D01*
X184702705Y-87678587D01*
X184698781Y-87665758D01*
X184698655Y-87665506D01*
X184693802Y-87651035D01*
X184688332Y-87626063D01*
X184687863Y-87623454D01*
X184682446Y-87596651D01*
X184677653Y-87588841D01*
X184671525Y-87600267D01*
X184663460Y-87626475D01*
X184646313Y-87680154D01*
X184623504Y-87743863D01*
X184597782Y-87810519D01*
X184571894Y-87873043D01*
X184548589Y-87924354D01*
X184545138Y-87931340D01*
X184510720Y-87999920D01*
X184570569Y-87999920D01*
X184603589Y-88000230D01*
X184630067Y-88002504D01*
X184650724Y-88008763D01*
X184666284Y-88021029D01*
X184677468Y-88041321D01*
X184684999Y-88071659D01*
X184689600Y-88114065D01*
X184691992Y-88170559D01*
X184692897Y-88243160D01*
X184693039Y-88333889D01*
X184693040Y-88342475D01*
X184693040Y-88614918D01*
X184815965Y-88736679D01*
X184938891Y-88858440D01*
X184932045Y-88777160D01*
X184932045Y-88777160D01*
G37*
X184932045Y-88777160D02*
X184926672Y-88721074D01*
X184919810Y-88660882D01*
X184912015Y-88600367D01*
X184903841Y-88543312D01*
X184895843Y-88493501D01*
X184888575Y-88454715D01*
X184882592Y-88430739D01*
X184880558Y-88425935D01*
X184877247Y-88413285D01*
X184872785Y-88387490D01*
X184870283Y-88370055D01*
X184865757Y-88339983D01*
X184861689Y-88319140D01*
X184860099Y-88314136D01*
X184856453Y-88301924D01*
X184849642Y-88273875D01*
X184840589Y-88234057D01*
X184830220Y-88186537D01*
X184819458Y-88135383D01*
X184819246Y-88134354D01*
X184814244Y-88112439D01*
X184805457Y-88076295D01*
X184793750Y-88029288D01*
X184779988Y-87974780D01*
X184765036Y-87916135D01*
X184749758Y-87856718D01*
X184735022Y-87799890D01*
X184721691Y-87749017D01*
X184710630Y-87707462D01*
X184702705Y-87678587D01*
X184698781Y-87665758D01*
X184698655Y-87665506D01*
X184693802Y-87651035D01*
X184688332Y-87626063D01*
X184687863Y-87623454D01*
X184682446Y-87596651D01*
X184677653Y-87588841D01*
X184671525Y-87600267D01*
X184663460Y-87626475D01*
X184646313Y-87680154D01*
X184623504Y-87743863D01*
X184597782Y-87810519D01*
X184571894Y-87873043D01*
X184548589Y-87924354D01*
X184545138Y-87931340D01*
X184510720Y-87999920D01*
X184570569Y-87999920D01*
X184603589Y-88000230D01*
X184630067Y-88002504D01*
X184650724Y-88008763D01*
X184666284Y-88021029D01*
X184677468Y-88041321D01*
X184684999Y-88071659D01*
X184689600Y-88114065D01*
X184691992Y-88170559D01*
X184692897Y-88243160D01*
X184693039Y-88333889D01*
X184693040Y-88342475D01*
X184693040Y-88614918D01*
X184815965Y-88736679D01*
X184938891Y-88858440D01*
X184932045Y-88777160D01*
D13*
G36*
X115000000Y-103225000D02*
G01*
X115000000Y-106925000D01*
X117500000Y-106925000D01*
X117500000Y-103225000D01*
X115000000Y-103225000D01*
G37*
X115000000Y-103225000D02*
X115000000Y-106925000D01*
X117500000Y-106925000D01*
X117500000Y-103225000D01*
X115000000Y-103225000D01*
G36*
X115000000Y-91475000D02*
G01*
X115000000Y-102025000D01*
X117500000Y-102025000D01*
X117500000Y-91475000D01*
X115000000Y-91475000D01*
G37*
X115000000Y-91475000D02*
X115000000Y-102025000D01*
X117500000Y-102025000D01*
X117500000Y-91475000D01*
X115000000Y-91475000D01*
G36*
X115000000Y-87075000D02*
G01*
X115000000Y-90275000D01*
X117500000Y-90275000D01*
X117500000Y-87075000D01*
X115000000Y-87075000D01*
G37*
X115000000Y-87075000D02*
X115000000Y-90275000D01*
X117500000Y-90275000D01*
X117500000Y-87075000D01*
X115000000Y-87075000D01*
G36*
X126597740Y-105338626D02*
G01*
X126646136Y-105348253D01*
X126683902Y-105363896D01*
X126737311Y-105386019D01*
X126737312Y-105386020D01*
X126819369Y-105440848D01*
X126889152Y-105510631D01*
X126889153Y-105510633D01*
X126943981Y-105592689D01*
X126981747Y-105683865D01*
X127001000Y-105780655D01*
X127001000Y-105879345D01*
X126981747Y-105976135D01*
X126943981Y-106067311D01*
X126943980Y-106067312D01*
X126889152Y-106149369D01*
X126819369Y-106219152D01*
X126778062Y-106246752D01*
X126737311Y-106273981D01*
X126683902Y-106296104D01*
X126646136Y-106311747D01*
X126597740Y-106321373D01*
X126549345Y-106331000D01*
X126450655Y-106331000D01*
X126402260Y-106321373D01*
X126353864Y-106311747D01*
X126316098Y-106296104D01*
X126262689Y-106273981D01*
X126221938Y-106246752D01*
X126180631Y-106219152D01*
X126110848Y-106149369D01*
X126056020Y-106067312D01*
X126056019Y-106067311D01*
X126018253Y-105976135D01*
X125999000Y-105879345D01*
X125999000Y-105780655D01*
X126018253Y-105683865D01*
X126056019Y-105592689D01*
X126110847Y-105510633D01*
X126110848Y-105510631D01*
X126180631Y-105440848D01*
X126262688Y-105386020D01*
X126262689Y-105386019D01*
X126316098Y-105363896D01*
X126353864Y-105348253D01*
X126402260Y-105338626D01*
X126450655Y-105329000D01*
X126549345Y-105329000D01*
X126597740Y-105338626D01*
X126597740Y-105338626D01*
G37*
G36*
X123597740Y-105338626D02*
G01*
X123646136Y-105348253D01*
X123683902Y-105363896D01*
X123737311Y-105386019D01*
X123737312Y-105386020D01*
X123819369Y-105440848D01*
X123889152Y-105510631D01*
X123889153Y-105510633D01*
X123943981Y-105592689D01*
X123981747Y-105683865D01*
X124001000Y-105780655D01*
X124001000Y-105879345D01*
X123981747Y-105976135D01*
X123943981Y-106067311D01*
X123943980Y-106067312D01*
X123889152Y-106149369D01*
X123819369Y-106219152D01*
X123778062Y-106246752D01*
X123737311Y-106273981D01*
X123683902Y-106296104D01*
X123646136Y-106311747D01*
X123597740Y-106321373D01*
X123549345Y-106331000D01*
X123450655Y-106331000D01*
X123402260Y-106321373D01*
X123353864Y-106311747D01*
X123316098Y-106296104D01*
X123262689Y-106273981D01*
X123221938Y-106246752D01*
X123180631Y-106219152D01*
X123110848Y-106149369D01*
X123056020Y-106067312D01*
X123056019Y-106067311D01*
X123018253Y-105976135D01*
X122999000Y-105879345D01*
X122999000Y-105780655D01*
X123018253Y-105683865D01*
X123056019Y-105592689D01*
X123110847Y-105510633D01*
X123110848Y-105510631D01*
X123180631Y-105440848D01*
X123262688Y-105386020D01*
X123262689Y-105386019D01*
X123316098Y-105363896D01*
X123353864Y-105348253D01*
X123402260Y-105338626D01*
X123450655Y-105329000D01*
X123549345Y-105329000D01*
X123597740Y-105338626D01*
X123597740Y-105338626D01*
G37*
G36*
X195634239Y-93811467D02*
G01*
X195948282Y-93873934D01*
X196539926Y-94119001D01*
X196947176Y-94391117D01*
X196997055Y-94424445D01*
X197072392Y-94474784D01*
X197525216Y-94927608D01*
X197880999Y-95460074D01*
X198126066Y-96051718D01*
X198251000Y-96679804D01*
X198251000Y-97320196D01*
X198126066Y-97948282D01*
X197880999Y-98539926D01*
X197690137Y-98825570D01*
X197525217Y-99072391D01*
X197072391Y-99525217D01*
X196966477Y-99595986D01*
X196539926Y-99880999D01*
X195948282Y-100126066D01*
X195634239Y-100188533D01*
X195320197Y-100251000D01*
X194679803Y-100251000D01*
X194365761Y-100188533D01*
X194051718Y-100126066D01*
X193460074Y-99880999D01*
X193033523Y-99595986D01*
X192927609Y-99525217D01*
X192474783Y-99072391D01*
X192309863Y-98825570D01*
X192119001Y-98539926D01*
X191873934Y-97948282D01*
X191749000Y-97320196D01*
X191749000Y-96679804D01*
X191873934Y-96051718D01*
X192119001Y-95460074D01*
X192474784Y-94927608D01*
X192927608Y-94474784D01*
X193002946Y-94424445D01*
X193052824Y-94391117D01*
X193460074Y-94119001D01*
X194051718Y-93873934D01*
X194365761Y-93811467D01*
X194679803Y-93749000D01*
X195320197Y-93749000D01*
X195634239Y-93811467D01*
X195634239Y-93811467D01*
G37*
G36*
X133951000Y-87077265D02*
G01*
X133953402Y-87101651D01*
X133960515Y-87125100D01*
X133972066Y-87146711D01*
X133987611Y-87165653D01*
X134006553Y-87181198D01*
X134028164Y-87192749D01*
X134051613Y-87199862D01*
X134075999Y-87202264D01*
X134100385Y-87199862D01*
X134123834Y-87192749D01*
X134145445Y-87181198D01*
X134164387Y-87165653D01*
X134179932Y-87146711D01*
X134186233Y-87136198D01*
X134209644Y-87092400D01*
X134278499Y-87008499D01*
X134362400Y-86939643D01*
X134430945Y-86903005D01*
X134458121Y-86888479D01*
X134561985Y-86856973D01*
X134642933Y-86849000D01*
X134697067Y-86849000D01*
X134778015Y-86856973D01*
X134881879Y-86888479D01*
X134909055Y-86903005D01*
X134977600Y-86939643D01*
X135061501Y-87008499D01*
X135130357Y-87092400D01*
X135166995Y-87160945D01*
X135181521Y-87188121D01*
X135185388Y-87200869D01*
X135194760Y-87223496D01*
X135208374Y-87243870D01*
X135225701Y-87261197D01*
X135246075Y-87274811D01*
X135268714Y-87284188D01*
X135292747Y-87288969D01*
X135317251Y-87288969D01*
X135341285Y-87284189D01*
X135363924Y-87274812D01*
X135384298Y-87261198D01*
X135401625Y-87243871D01*
X135415239Y-87223497D01*
X135424612Y-87200869D01*
X135428479Y-87188121D01*
X135443005Y-87160945D01*
X135479643Y-87092400D01*
X135548499Y-87008499D01*
X135632400Y-86939643D01*
X135700945Y-86903005D01*
X135728121Y-86888479D01*
X135831985Y-86856973D01*
X135912933Y-86849000D01*
X135967067Y-86849000D01*
X136048015Y-86856973D01*
X136151879Y-86888479D01*
X136179055Y-86903005D01*
X136247600Y-86939643D01*
X136331501Y-87008499D01*
X136400357Y-87092400D01*
X136436995Y-87160945D01*
X136451521Y-87188121D01*
X136455388Y-87200869D01*
X136464760Y-87223496D01*
X136478374Y-87243870D01*
X136495701Y-87261197D01*
X136516075Y-87274811D01*
X136538714Y-87284188D01*
X136562747Y-87288969D01*
X136587251Y-87288969D01*
X136611285Y-87284189D01*
X136633924Y-87274812D01*
X136654298Y-87261198D01*
X136671625Y-87243871D01*
X136685239Y-87223497D01*
X136694612Y-87200869D01*
X136698479Y-87188121D01*
X136713005Y-87160945D01*
X136749643Y-87092400D01*
X136818499Y-87008499D01*
X136902400Y-86939643D01*
X136970945Y-86903005D01*
X136998121Y-86888479D01*
X137101985Y-86856973D01*
X137182933Y-86849000D01*
X137237067Y-86849000D01*
X137318015Y-86856973D01*
X137421879Y-86888479D01*
X137449055Y-86903005D01*
X137517600Y-86939643D01*
X137601501Y-87008499D01*
X137670357Y-87092400D01*
X137706995Y-87160945D01*
X137721521Y-87188121D01*
X137725388Y-87200869D01*
X137734760Y-87223496D01*
X137748374Y-87243870D01*
X137765701Y-87261197D01*
X137786075Y-87274811D01*
X137808714Y-87284188D01*
X137832747Y-87288969D01*
X137857251Y-87288969D01*
X137881285Y-87284189D01*
X137903924Y-87274812D01*
X137924298Y-87261198D01*
X137941625Y-87243871D01*
X137955239Y-87223497D01*
X137964612Y-87200869D01*
X137968479Y-87188121D01*
X137983005Y-87160945D01*
X138019643Y-87092400D01*
X138088499Y-87008499D01*
X138172400Y-86939643D01*
X138240945Y-86903005D01*
X138268121Y-86888479D01*
X138371985Y-86856973D01*
X138452933Y-86849000D01*
X138507067Y-86849000D01*
X138588015Y-86856973D01*
X138691879Y-86888479D01*
X138719055Y-86903005D01*
X138787600Y-86939643D01*
X138871501Y-87008499D01*
X138940357Y-87092400D01*
X138976995Y-87160945D01*
X138991521Y-87188121D01*
X138995388Y-87200869D01*
X139004760Y-87223496D01*
X139018374Y-87243870D01*
X139035701Y-87261197D01*
X139056075Y-87274811D01*
X139078714Y-87284188D01*
X139102747Y-87288969D01*
X139127251Y-87288969D01*
X139151285Y-87284189D01*
X139173924Y-87274812D01*
X139194298Y-87261198D01*
X139211625Y-87243871D01*
X139225239Y-87223497D01*
X139234612Y-87200869D01*
X139238479Y-87188121D01*
X139253005Y-87160945D01*
X139289643Y-87092400D01*
X139358499Y-87008499D01*
X139442400Y-86939643D01*
X139510945Y-86903005D01*
X139538121Y-86888479D01*
X139641985Y-86856973D01*
X139722933Y-86849000D01*
X139777067Y-86849000D01*
X139858015Y-86856973D01*
X139961879Y-86888479D01*
X139989055Y-86903005D01*
X140057600Y-86939643D01*
X140141501Y-87008499D01*
X140210357Y-87092400D01*
X140246995Y-87160945D01*
X140261521Y-87188121D01*
X140293027Y-87291985D01*
X140303666Y-87400000D01*
X140293027Y-87508015D01*
X140261521Y-87611879D01*
X140261191Y-87612496D01*
X140210357Y-87707600D01*
X140141501Y-87791501D01*
X140057600Y-87860357D01*
X139989055Y-87896995D01*
X139961879Y-87911521D01*
X139858015Y-87943027D01*
X139777067Y-87951000D01*
X139722933Y-87951000D01*
X139641985Y-87943027D01*
X139538121Y-87911521D01*
X139510945Y-87896995D01*
X139442400Y-87860357D01*
X139358499Y-87791501D01*
X139289643Y-87707600D01*
X139238809Y-87612496D01*
X139238479Y-87611879D01*
X139234612Y-87599131D01*
X139225240Y-87576504D01*
X139211626Y-87556130D01*
X139194299Y-87538803D01*
X139173925Y-87525189D01*
X139151286Y-87515812D01*
X139127253Y-87511031D01*
X139102749Y-87511031D01*
X139078715Y-87515811D01*
X139056076Y-87525188D01*
X139035702Y-87538802D01*
X139018375Y-87556129D01*
X139004761Y-87576503D01*
X138995388Y-87599131D01*
X138991521Y-87611879D01*
X138991191Y-87612496D01*
X138940357Y-87707600D01*
X138871501Y-87791501D01*
X138787600Y-87860357D01*
X138719055Y-87896995D01*
X138691879Y-87911521D01*
X138588015Y-87943027D01*
X138507067Y-87951000D01*
X138452933Y-87951000D01*
X138371985Y-87943027D01*
X138268121Y-87911521D01*
X138240945Y-87896995D01*
X138172400Y-87860357D01*
X138088499Y-87791501D01*
X138019643Y-87707600D01*
X137968809Y-87612496D01*
X137968479Y-87611879D01*
X137964612Y-87599131D01*
X137955240Y-87576504D01*
X137941626Y-87556130D01*
X137924299Y-87538803D01*
X137903925Y-87525189D01*
X137881286Y-87515812D01*
X137857253Y-87511031D01*
X137832749Y-87511031D01*
X137808715Y-87515811D01*
X137786076Y-87525188D01*
X137765702Y-87538802D01*
X137748375Y-87556129D01*
X137734761Y-87576503D01*
X137725388Y-87599131D01*
X137721521Y-87611879D01*
X137721191Y-87612496D01*
X137670357Y-87707600D01*
X137601501Y-87791501D01*
X137517600Y-87860357D01*
X137449055Y-87896995D01*
X137421879Y-87911521D01*
X137318015Y-87943027D01*
X137237067Y-87951000D01*
X137182933Y-87951000D01*
X137101985Y-87943027D01*
X136998121Y-87911521D01*
X136970945Y-87896995D01*
X136902400Y-87860357D01*
X136818499Y-87791501D01*
X136749643Y-87707600D01*
X136698809Y-87612496D01*
X136698479Y-87611879D01*
X136694612Y-87599131D01*
X136685240Y-87576504D01*
X136671626Y-87556130D01*
X136654299Y-87538803D01*
X136633925Y-87525189D01*
X136611286Y-87515812D01*
X136587253Y-87511031D01*
X136562749Y-87511031D01*
X136538715Y-87515811D01*
X136516076Y-87525188D01*
X136495702Y-87538802D01*
X136478375Y-87556129D01*
X136464761Y-87576503D01*
X136455388Y-87599131D01*
X136451521Y-87611879D01*
X136451191Y-87612496D01*
X136400357Y-87707600D01*
X136331501Y-87791501D01*
X136247600Y-87860357D01*
X136179055Y-87896995D01*
X136151879Y-87911521D01*
X136048015Y-87943027D01*
X135967067Y-87951000D01*
X135912933Y-87951000D01*
X135831985Y-87943027D01*
X135728121Y-87911521D01*
X135700945Y-87896995D01*
X135632400Y-87860357D01*
X135548499Y-87791501D01*
X135479643Y-87707600D01*
X135428809Y-87612496D01*
X135428479Y-87611879D01*
X135424612Y-87599131D01*
X135415240Y-87576504D01*
X135401626Y-87556130D01*
X135384299Y-87538803D01*
X135363925Y-87525189D01*
X135341286Y-87515812D01*
X135317253Y-87511031D01*
X135292749Y-87511031D01*
X135268715Y-87515811D01*
X135246076Y-87525188D01*
X135225702Y-87538802D01*
X135208375Y-87556129D01*
X135194761Y-87576503D01*
X135185388Y-87599131D01*
X135181521Y-87611879D01*
X135181191Y-87612496D01*
X135130357Y-87707600D01*
X135061501Y-87791501D01*
X134977600Y-87860357D01*
X134909055Y-87896995D01*
X134881879Y-87911521D01*
X134778015Y-87943027D01*
X134697067Y-87951000D01*
X134642933Y-87951000D01*
X134561985Y-87943027D01*
X134458121Y-87911521D01*
X134430945Y-87896995D01*
X134362400Y-87860357D01*
X134278499Y-87791501D01*
X134209645Y-87707601D01*
X134209644Y-87707600D01*
X134186236Y-87663807D01*
X134172625Y-87643437D01*
X134155298Y-87626110D01*
X134134924Y-87612496D01*
X134112285Y-87603119D01*
X134088252Y-87598338D01*
X134063748Y-87598338D01*
X134039714Y-87603118D01*
X134017076Y-87612495D01*
X133996701Y-87626109D01*
X133979374Y-87643436D01*
X133965760Y-87663810D01*
X133956383Y-87686449D01*
X133951602Y-87710482D01*
X133951000Y-87722735D01*
X133951000Y-87951000D01*
X132849000Y-87951000D01*
X132849000Y-86849000D01*
X133951000Y-86849000D01*
X133951000Y-87077265D01*
X133951000Y-87077265D01*
G37*
M02*
