G04 #@! TF.GenerationSoftware,KiCad,Pcbnew,(5.1.0-0)*
G04 #@! TF.CreationDate,2020-08-21T20:36:15-04:00*
G04 #@! TF.ProjectId,Rick Flash,5269636b-2046-46c6-9173-682e6b696361,1.1*
G04 #@! TF.SameCoordinates,Original*
G04 #@! TF.FileFunction,Paste,Top*
G04 #@! TF.FilePolarity,Positive*
%FSLAX46Y46*%
G04 Gerber Fmt 4.6, Leading zero omitted, Abs format (unit mm)*
G04 Created by KiCad (PCBNEW (5.1.0-0)) date 2020-08-21 20:36:15*
%MOMM*%
%LPD*%
G04 APERTURE LIST*
%ADD10C,0.100000*%
%ADD11C,0.975000*%
%ADD12R,1.300000X0.800000*%
%ADD13R,1.000000X2.500000*%
%ADD14R,1.800000X1.000000*%
%ADD15R,1.000000X0.800000*%
%ADD16R,0.700000X1.500000*%
%ADD17R,2.000000X2.000000*%
G04 APERTURE END LIST*
D10*
G36*
X138767142Y-106801174D02*
G01*
X138790803Y-106804684D01*
X138814007Y-106810496D01*
X138836529Y-106818554D01*
X138858153Y-106828782D01*
X138878670Y-106841079D01*
X138897883Y-106855329D01*
X138915607Y-106871393D01*
X138931671Y-106889117D01*
X138945921Y-106908330D01*
X138958218Y-106928847D01*
X138968446Y-106950471D01*
X138976504Y-106972993D01*
X138982316Y-106996197D01*
X138985826Y-107019858D01*
X138987000Y-107043750D01*
X138987000Y-107956250D01*
X138985826Y-107980142D01*
X138982316Y-108003803D01*
X138976504Y-108027007D01*
X138968446Y-108049529D01*
X138958218Y-108071153D01*
X138945921Y-108091670D01*
X138931671Y-108110883D01*
X138915607Y-108128607D01*
X138897883Y-108144671D01*
X138878670Y-108158921D01*
X138858153Y-108171218D01*
X138836529Y-108181446D01*
X138814007Y-108189504D01*
X138790803Y-108195316D01*
X138767142Y-108198826D01*
X138743250Y-108200000D01*
X138255750Y-108200000D01*
X138231858Y-108198826D01*
X138208197Y-108195316D01*
X138184993Y-108189504D01*
X138162471Y-108181446D01*
X138140847Y-108171218D01*
X138120330Y-108158921D01*
X138101117Y-108144671D01*
X138083393Y-108128607D01*
X138067329Y-108110883D01*
X138053079Y-108091670D01*
X138040782Y-108071153D01*
X138030554Y-108049529D01*
X138022496Y-108027007D01*
X138016684Y-108003803D01*
X138013174Y-107980142D01*
X138012000Y-107956250D01*
X138012000Y-107043750D01*
X138013174Y-107019858D01*
X138016684Y-106996197D01*
X138022496Y-106972993D01*
X138030554Y-106950471D01*
X138040782Y-106928847D01*
X138053079Y-106908330D01*
X138067329Y-106889117D01*
X138083393Y-106871393D01*
X138101117Y-106855329D01*
X138120330Y-106841079D01*
X138140847Y-106828782D01*
X138162471Y-106818554D01*
X138184993Y-106810496D01*
X138208197Y-106804684D01*
X138231858Y-106801174D01*
X138255750Y-106800000D01*
X138743250Y-106800000D01*
X138767142Y-106801174D01*
X138767142Y-106801174D01*
G37*
D11*
X138499500Y-107500000D03*
D10*
G36*
X136892142Y-106801174D02*
G01*
X136915803Y-106804684D01*
X136939007Y-106810496D01*
X136961529Y-106818554D01*
X136983153Y-106828782D01*
X137003670Y-106841079D01*
X137022883Y-106855329D01*
X137040607Y-106871393D01*
X137056671Y-106889117D01*
X137070921Y-106908330D01*
X137083218Y-106928847D01*
X137093446Y-106950471D01*
X137101504Y-106972993D01*
X137107316Y-106996197D01*
X137110826Y-107019858D01*
X137112000Y-107043750D01*
X137112000Y-107956250D01*
X137110826Y-107980142D01*
X137107316Y-108003803D01*
X137101504Y-108027007D01*
X137093446Y-108049529D01*
X137083218Y-108071153D01*
X137070921Y-108091670D01*
X137056671Y-108110883D01*
X137040607Y-108128607D01*
X137022883Y-108144671D01*
X137003670Y-108158921D01*
X136983153Y-108171218D01*
X136961529Y-108181446D01*
X136939007Y-108189504D01*
X136915803Y-108195316D01*
X136892142Y-108198826D01*
X136868250Y-108200000D01*
X136380750Y-108200000D01*
X136356858Y-108198826D01*
X136333197Y-108195316D01*
X136309993Y-108189504D01*
X136287471Y-108181446D01*
X136265847Y-108171218D01*
X136245330Y-108158921D01*
X136226117Y-108144671D01*
X136208393Y-108128607D01*
X136192329Y-108110883D01*
X136178079Y-108091670D01*
X136165782Y-108071153D01*
X136155554Y-108049529D01*
X136147496Y-108027007D01*
X136141684Y-108003803D01*
X136138174Y-107980142D01*
X136137000Y-107956250D01*
X136137000Y-107043750D01*
X136138174Y-107019858D01*
X136141684Y-106996197D01*
X136147496Y-106972993D01*
X136155554Y-106950471D01*
X136165782Y-106928847D01*
X136178079Y-106908330D01*
X136192329Y-106889117D01*
X136208393Y-106871393D01*
X136226117Y-106855329D01*
X136245330Y-106841079D01*
X136265847Y-106828782D01*
X136287471Y-106818554D01*
X136309993Y-106810496D01*
X136333197Y-106804684D01*
X136356858Y-106801174D01*
X136380750Y-106800000D01*
X136868250Y-106800000D01*
X136892142Y-106801174D01*
X136892142Y-106801174D01*
G37*
D11*
X136624500Y-107500000D03*
D10*
G36*
X145767142Y-104301174D02*
G01*
X145790803Y-104304684D01*
X145814007Y-104310496D01*
X145836529Y-104318554D01*
X145858153Y-104328782D01*
X145878670Y-104341079D01*
X145897883Y-104355329D01*
X145915607Y-104371393D01*
X145931671Y-104389117D01*
X145945921Y-104408330D01*
X145958218Y-104428847D01*
X145968446Y-104450471D01*
X145976504Y-104472993D01*
X145982316Y-104496197D01*
X145985826Y-104519858D01*
X145987000Y-104543750D01*
X145987000Y-105456250D01*
X145985826Y-105480142D01*
X145982316Y-105503803D01*
X145976504Y-105527007D01*
X145968446Y-105549529D01*
X145958218Y-105571153D01*
X145945921Y-105591670D01*
X145931671Y-105610883D01*
X145915607Y-105628607D01*
X145897883Y-105644671D01*
X145878670Y-105658921D01*
X145858153Y-105671218D01*
X145836529Y-105681446D01*
X145814007Y-105689504D01*
X145790803Y-105695316D01*
X145767142Y-105698826D01*
X145743250Y-105700000D01*
X145255750Y-105700000D01*
X145231858Y-105698826D01*
X145208197Y-105695316D01*
X145184993Y-105689504D01*
X145162471Y-105681446D01*
X145140847Y-105671218D01*
X145120330Y-105658921D01*
X145101117Y-105644671D01*
X145083393Y-105628607D01*
X145067329Y-105610883D01*
X145053079Y-105591670D01*
X145040782Y-105571153D01*
X145030554Y-105549529D01*
X145022496Y-105527007D01*
X145016684Y-105503803D01*
X145013174Y-105480142D01*
X145012000Y-105456250D01*
X145012000Y-104543750D01*
X145013174Y-104519858D01*
X145016684Y-104496197D01*
X145022496Y-104472993D01*
X145030554Y-104450471D01*
X145040782Y-104428847D01*
X145053079Y-104408330D01*
X145067329Y-104389117D01*
X145083393Y-104371393D01*
X145101117Y-104355329D01*
X145120330Y-104341079D01*
X145140847Y-104328782D01*
X145162471Y-104318554D01*
X145184993Y-104310496D01*
X145208197Y-104304684D01*
X145231858Y-104301174D01*
X145255750Y-104300000D01*
X145743250Y-104300000D01*
X145767142Y-104301174D01*
X145767142Y-104301174D01*
G37*
D11*
X145499500Y-105000000D03*
D10*
G36*
X143892142Y-104301174D02*
G01*
X143915803Y-104304684D01*
X143939007Y-104310496D01*
X143961529Y-104318554D01*
X143983153Y-104328782D01*
X144003670Y-104341079D01*
X144022883Y-104355329D01*
X144040607Y-104371393D01*
X144056671Y-104389117D01*
X144070921Y-104408330D01*
X144083218Y-104428847D01*
X144093446Y-104450471D01*
X144101504Y-104472993D01*
X144107316Y-104496197D01*
X144110826Y-104519858D01*
X144112000Y-104543750D01*
X144112000Y-105456250D01*
X144110826Y-105480142D01*
X144107316Y-105503803D01*
X144101504Y-105527007D01*
X144093446Y-105549529D01*
X144083218Y-105571153D01*
X144070921Y-105591670D01*
X144056671Y-105610883D01*
X144040607Y-105628607D01*
X144022883Y-105644671D01*
X144003670Y-105658921D01*
X143983153Y-105671218D01*
X143961529Y-105681446D01*
X143939007Y-105689504D01*
X143915803Y-105695316D01*
X143892142Y-105698826D01*
X143868250Y-105700000D01*
X143380750Y-105700000D01*
X143356858Y-105698826D01*
X143333197Y-105695316D01*
X143309993Y-105689504D01*
X143287471Y-105681446D01*
X143265847Y-105671218D01*
X143245330Y-105658921D01*
X143226117Y-105644671D01*
X143208393Y-105628607D01*
X143192329Y-105610883D01*
X143178079Y-105591670D01*
X143165782Y-105571153D01*
X143155554Y-105549529D01*
X143147496Y-105527007D01*
X143141684Y-105503803D01*
X143138174Y-105480142D01*
X143137000Y-105456250D01*
X143137000Y-104543750D01*
X143138174Y-104519858D01*
X143141684Y-104496197D01*
X143147496Y-104472993D01*
X143155554Y-104450471D01*
X143165782Y-104428847D01*
X143178079Y-104408330D01*
X143192329Y-104389117D01*
X143208393Y-104371393D01*
X143226117Y-104355329D01*
X143245330Y-104341079D01*
X143265847Y-104328782D01*
X143287471Y-104318554D01*
X143309993Y-104310496D01*
X143333197Y-104304684D01*
X143356858Y-104301174D01*
X143380750Y-104300000D01*
X143868250Y-104300000D01*
X143892142Y-104301174D01*
X143892142Y-104301174D01*
G37*
D11*
X143624500Y-105000000D03*
D10*
G36*
X142267142Y-104301174D02*
G01*
X142290803Y-104304684D01*
X142314007Y-104310496D01*
X142336529Y-104318554D01*
X142358153Y-104328782D01*
X142378670Y-104341079D01*
X142397883Y-104355329D01*
X142415607Y-104371393D01*
X142431671Y-104389117D01*
X142445921Y-104408330D01*
X142458218Y-104428847D01*
X142468446Y-104450471D01*
X142476504Y-104472993D01*
X142482316Y-104496197D01*
X142485826Y-104519858D01*
X142487000Y-104543750D01*
X142487000Y-105456250D01*
X142485826Y-105480142D01*
X142482316Y-105503803D01*
X142476504Y-105527007D01*
X142468446Y-105549529D01*
X142458218Y-105571153D01*
X142445921Y-105591670D01*
X142431671Y-105610883D01*
X142415607Y-105628607D01*
X142397883Y-105644671D01*
X142378670Y-105658921D01*
X142358153Y-105671218D01*
X142336529Y-105681446D01*
X142314007Y-105689504D01*
X142290803Y-105695316D01*
X142267142Y-105698826D01*
X142243250Y-105700000D01*
X141755750Y-105700000D01*
X141731858Y-105698826D01*
X141708197Y-105695316D01*
X141684993Y-105689504D01*
X141662471Y-105681446D01*
X141640847Y-105671218D01*
X141620330Y-105658921D01*
X141601117Y-105644671D01*
X141583393Y-105628607D01*
X141567329Y-105610883D01*
X141553079Y-105591670D01*
X141540782Y-105571153D01*
X141530554Y-105549529D01*
X141522496Y-105527007D01*
X141516684Y-105503803D01*
X141513174Y-105480142D01*
X141512000Y-105456250D01*
X141512000Y-104543750D01*
X141513174Y-104519858D01*
X141516684Y-104496197D01*
X141522496Y-104472993D01*
X141530554Y-104450471D01*
X141540782Y-104428847D01*
X141553079Y-104408330D01*
X141567329Y-104389117D01*
X141583393Y-104371393D01*
X141601117Y-104355329D01*
X141620330Y-104341079D01*
X141640847Y-104328782D01*
X141662471Y-104318554D01*
X141684993Y-104310496D01*
X141708197Y-104304684D01*
X141731858Y-104301174D01*
X141755750Y-104300000D01*
X142243250Y-104300000D01*
X142267142Y-104301174D01*
X142267142Y-104301174D01*
G37*
D11*
X141999500Y-105000000D03*
D10*
G36*
X140392142Y-104301174D02*
G01*
X140415803Y-104304684D01*
X140439007Y-104310496D01*
X140461529Y-104318554D01*
X140483153Y-104328782D01*
X140503670Y-104341079D01*
X140522883Y-104355329D01*
X140540607Y-104371393D01*
X140556671Y-104389117D01*
X140570921Y-104408330D01*
X140583218Y-104428847D01*
X140593446Y-104450471D01*
X140601504Y-104472993D01*
X140607316Y-104496197D01*
X140610826Y-104519858D01*
X140612000Y-104543750D01*
X140612000Y-105456250D01*
X140610826Y-105480142D01*
X140607316Y-105503803D01*
X140601504Y-105527007D01*
X140593446Y-105549529D01*
X140583218Y-105571153D01*
X140570921Y-105591670D01*
X140556671Y-105610883D01*
X140540607Y-105628607D01*
X140522883Y-105644671D01*
X140503670Y-105658921D01*
X140483153Y-105671218D01*
X140461529Y-105681446D01*
X140439007Y-105689504D01*
X140415803Y-105695316D01*
X140392142Y-105698826D01*
X140368250Y-105700000D01*
X139880750Y-105700000D01*
X139856858Y-105698826D01*
X139833197Y-105695316D01*
X139809993Y-105689504D01*
X139787471Y-105681446D01*
X139765847Y-105671218D01*
X139745330Y-105658921D01*
X139726117Y-105644671D01*
X139708393Y-105628607D01*
X139692329Y-105610883D01*
X139678079Y-105591670D01*
X139665782Y-105571153D01*
X139655554Y-105549529D01*
X139647496Y-105527007D01*
X139641684Y-105503803D01*
X139638174Y-105480142D01*
X139637000Y-105456250D01*
X139637000Y-104543750D01*
X139638174Y-104519858D01*
X139641684Y-104496197D01*
X139647496Y-104472993D01*
X139655554Y-104450471D01*
X139665782Y-104428847D01*
X139678079Y-104408330D01*
X139692329Y-104389117D01*
X139708393Y-104371393D01*
X139726117Y-104355329D01*
X139745330Y-104341079D01*
X139765847Y-104328782D01*
X139787471Y-104318554D01*
X139809993Y-104310496D01*
X139833197Y-104304684D01*
X139856858Y-104301174D01*
X139880750Y-104300000D01*
X140368250Y-104300000D01*
X140392142Y-104301174D01*
X140392142Y-104301174D01*
G37*
D11*
X140124500Y-105000000D03*
D10*
G36*
X138767142Y-104301174D02*
G01*
X138790803Y-104304684D01*
X138814007Y-104310496D01*
X138836529Y-104318554D01*
X138858153Y-104328782D01*
X138878670Y-104341079D01*
X138897883Y-104355329D01*
X138915607Y-104371393D01*
X138931671Y-104389117D01*
X138945921Y-104408330D01*
X138958218Y-104428847D01*
X138968446Y-104450471D01*
X138976504Y-104472993D01*
X138982316Y-104496197D01*
X138985826Y-104519858D01*
X138987000Y-104543750D01*
X138987000Y-105456250D01*
X138985826Y-105480142D01*
X138982316Y-105503803D01*
X138976504Y-105527007D01*
X138968446Y-105549529D01*
X138958218Y-105571153D01*
X138945921Y-105591670D01*
X138931671Y-105610883D01*
X138915607Y-105628607D01*
X138897883Y-105644671D01*
X138878670Y-105658921D01*
X138858153Y-105671218D01*
X138836529Y-105681446D01*
X138814007Y-105689504D01*
X138790803Y-105695316D01*
X138767142Y-105698826D01*
X138743250Y-105700000D01*
X138255750Y-105700000D01*
X138231858Y-105698826D01*
X138208197Y-105695316D01*
X138184993Y-105689504D01*
X138162471Y-105681446D01*
X138140847Y-105671218D01*
X138120330Y-105658921D01*
X138101117Y-105644671D01*
X138083393Y-105628607D01*
X138067329Y-105610883D01*
X138053079Y-105591670D01*
X138040782Y-105571153D01*
X138030554Y-105549529D01*
X138022496Y-105527007D01*
X138016684Y-105503803D01*
X138013174Y-105480142D01*
X138012000Y-105456250D01*
X138012000Y-104543750D01*
X138013174Y-104519858D01*
X138016684Y-104496197D01*
X138022496Y-104472993D01*
X138030554Y-104450471D01*
X138040782Y-104428847D01*
X138053079Y-104408330D01*
X138067329Y-104389117D01*
X138083393Y-104371393D01*
X138101117Y-104355329D01*
X138120330Y-104341079D01*
X138140847Y-104328782D01*
X138162471Y-104318554D01*
X138184993Y-104310496D01*
X138208197Y-104304684D01*
X138231858Y-104301174D01*
X138255750Y-104300000D01*
X138743250Y-104300000D01*
X138767142Y-104301174D01*
X138767142Y-104301174D01*
G37*
D11*
X138499500Y-105000000D03*
D10*
G36*
X136892142Y-104301174D02*
G01*
X136915803Y-104304684D01*
X136939007Y-104310496D01*
X136961529Y-104318554D01*
X136983153Y-104328782D01*
X137003670Y-104341079D01*
X137022883Y-104355329D01*
X137040607Y-104371393D01*
X137056671Y-104389117D01*
X137070921Y-104408330D01*
X137083218Y-104428847D01*
X137093446Y-104450471D01*
X137101504Y-104472993D01*
X137107316Y-104496197D01*
X137110826Y-104519858D01*
X137112000Y-104543750D01*
X137112000Y-105456250D01*
X137110826Y-105480142D01*
X137107316Y-105503803D01*
X137101504Y-105527007D01*
X137093446Y-105549529D01*
X137083218Y-105571153D01*
X137070921Y-105591670D01*
X137056671Y-105610883D01*
X137040607Y-105628607D01*
X137022883Y-105644671D01*
X137003670Y-105658921D01*
X136983153Y-105671218D01*
X136961529Y-105681446D01*
X136939007Y-105689504D01*
X136915803Y-105695316D01*
X136892142Y-105698826D01*
X136868250Y-105700000D01*
X136380750Y-105700000D01*
X136356858Y-105698826D01*
X136333197Y-105695316D01*
X136309993Y-105689504D01*
X136287471Y-105681446D01*
X136265847Y-105671218D01*
X136245330Y-105658921D01*
X136226117Y-105644671D01*
X136208393Y-105628607D01*
X136192329Y-105610883D01*
X136178079Y-105591670D01*
X136165782Y-105571153D01*
X136155554Y-105549529D01*
X136147496Y-105527007D01*
X136141684Y-105503803D01*
X136138174Y-105480142D01*
X136137000Y-105456250D01*
X136137000Y-104543750D01*
X136138174Y-104519858D01*
X136141684Y-104496197D01*
X136147496Y-104472993D01*
X136155554Y-104450471D01*
X136165782Y-104428847D01*
X136178079Y-104408330D01*
X136192329Y-104389117D01*
X136208393Y-104371393D01*
X136226117Y-104355329D01*
X136245330Y-104341079D01*
X136265847Y-104328782D01*
X136287471Y-104318554D01*
X136309993Y-104310496D01*
X136333197Y-104304684D01*
X136356858Y-104301174D01*
X136380750Y-104300000D01*
X136868250Y-104300000D01*
X136892142Y-104301174D01*
X136892142Y-104301174D01*
G37*
D11*
X136624500Y-105000000D03*
D10*
G36*
X143892142Y-106801174D02*
G01*
X143915803Y-106804684D01*
X143939007Y-106810496D01*
X143961529Y-106818554D01*
X143983153Y-106828782D01*
X144003670Y-106841079D01*
X144022883Y-106855329D01*
X144040607Y-106871393D01*
X144056671Y-106889117D01*
X144070921Y-106908330D01*
X144083218Y-106928847D01*
X144093446Y-106950471D01*
X144101504Y-106972993D01*
X144107316Y-106996197D01*
X144110826Y-107019858D01*
X144112000Y-107043750D01*
X144112000Y-107956250D01*
X144110826Y-107980142D01*
X144107316Y-108003803D01*
X144101504Y-108027007D01*
X144093446Y-108049529D01*
X144083218Y-108071153D01*
X144070921Y-108091670D01*
X144056671Y-108110883D01*
X144040607Y-108128607D01*
X144022883Y-108144671D01*
X144003670Y-108158921D01*
X143983153Y-108171218D01*
X143961529Y-108181446D01*
X143939007Y-108189504D01*
X143915803Y-108195316D01*
X143892142Y-108198826D01*
X143868250Y-108200000D01*
X143380750Y-108200000D01*
X143356858Y-108198826D01*
X143333197Y-108195316D01*
X143309993Y-108189504D01*
X143287471Y-108181446D01*
X143265847Y-108171218D01*
X143245330Y-108158921D01*
X143226117Y-108144671D01*
X143208393Y-108128607D01*
X143192329Y-108110883D01*
X143178079Y-108091670D01*
X143165782Y-108071153D01*
X143155554Y-108049529D01*
X143147496Y-108027007D01*
X143141684Y-108003803D01*
X143138174Y-107980142D01*
X143137000Y-107956250D01*
X143137000Y-107043750D01*
X143138174Y-107019858D01*
X143141684Y-106996197D01*
X143147496Y-106972993D01*
X143155554Y-106950471D01*
X143165782Y-106928847D01*
X143178079Y-106908330D01*
X143192329Y-106889117D01*
X143208393Y-106871393D01*
X143226117Y-106855329D01*
X143245330Y-106841079D01*
X143265847Y-106828782D01*
X143287471Y-106818554D01*
X143309993Y-106810496D01*
X143333197Y-106804684D01*
X143356858Y-106801174D01*
X143380750Y-106800000D01*
X143868250Y-106800000D01*
X143892142Y-106801174D01*
X143892142Y-106801174D01*
G37*
D11*
X143624500Y-107500000D03*
D10*
G36*
X145767142Y-106801174D02*
G01*
X145790803Y-106804684D01*
X145814007Y-106810496D01*
X145836529Y-106818554D01*
X145858153Y-106828782D01*
X145878670Y-106841079D01*
X145897883Y-106855329D01*
X145915607Y-106871393D01*
X145931671Y-106889117D01*
X145945921Y-106908330D01*
X145958218Y-106928847D01*
X145968446Y-106950471D01*
X145976504Y-106972993D01*
X145982316Y-106996197D01*
X145985826Y-107019858D01*
X145987000Y-107043750D01*
X145987000Y-107956250D01*
X145985826Y-107980142D01*
X145982316Y-108003803D01*
X145976504Y-108027007D01*
X145968446Y-108049529D01*
X145958218Y-108071153D01*
X145945921Y-108091670D01*
X145931671Y-108110883D01*
X145915607Y-108128607D01*
X145897883Y-108144671D01*
X145878670Y-108158921D01*
X145858153Y-108171218D01*
X145836529Y-108181446D01*
X145814007Y-108189504D01*
X145790803Y-108195316D01*
X145767142Y-108198826D01*
X145743250Y-108200000D01*
X145255750Y-108200000D01*
X145231858Y-108198826D01*
X145208197Y-108195316D01*
X145184993Y-108189504D01*
X145162471Y-108181446D01*
X145140847Y-108171218D01*
X145120330Y-108158921D01*
X145101117Y-108144671D01*
X145083393Y-108128607D01*
X145067329Y-108110883D01*
X145053079Y-108091670D01*
X145040782Y-108071153D01*
X145030554Y-108049529D01*
X145022496Y-108027007D01*
X145016684Y-108003803D01*
X145013174Y-107980142D01*
X145012000Y-107956250D01*
X145012000Y-107043750D01*
X145013174Y-107019858D01*
X145016684Y-106996197D01*
X145022496Y-106972993D01*
X145030554Y-106950471D01*
X145040782Y-106928847D01*
X145053079Y-106908330D01*
X145067329Y-106889117D01*
X145083393Y-106871393D01*
X145101117Y-106855329D01*
X145120330Y-106841079D01*
X145140847Y-106828782D01*
X145162471Y-106818554D01*
X145184993Y-106810496D01*
X145208197Y-106804684D01*
X145231858Y-106801174D01*
X145255750Y-106800000D01*
X145743250Y-106800000D01*
X145767142Y-106801174D01*
X145767142Y-106801174D01*
G37*
D11*
X145499500Y-107500000D03*
D12*
X170650000Y-86550000D03*
X170650000Y-87830000D03*
X170650000Y-89090000D03*
X170650000Y-90360000D03*
X170650000Y-91640000D03*
X170650000Y-92910000D03*
X170650000Y-94170000D03*
X170650000Y-95450000D03*
X164350000Y-95450000D03*
X164350000Y-94170000D03*
X164350000Y-92910000D03*
X164350000Y-91640000D03*
X164350000Y-90360000D03*
X164350000Y-89090000D03*
X164350000Y-87830000D03*
X164350000Y-86550000D03*
D13*
X129500000Y-86900000D03*
X131500000Y-86900000D03*
X133500000Y-86900000D03*
X135500000Y-86900000D03*
X137500000Y-86900000D03*
X139500000Y-86900000D03*
X141500000Y-86900000D03*
X143500000Y-86900000D03*
D14*
X145000000Y-89500000D03*
X145000000Y-91500000D03*
X145000000Y-93500000D03*
X145000000Y-95500000D03*
X145000000Y-97500000D03*
X145000000Y-99500000D03*
D13*
X143500000Y-102100000D03*
X141500000Y-102100000D03*
X139500000Y-102100000D03*
X137500000Y-102100000D03*
X135500000Y-102100000D03*
X133500000Y-102100000D03*
X131500000Y-102100000D03*
X129500000Y-102100000D03*
D12*
X187650000Y-98550000D03*
X187650000Y-99830000D03*
X187650000Y-101090000D03*
X187650000Y-102360000D03*
X187650000Y-103640000D03*
X187650000Y-104910000D03*
X187650000Y-106170000D03*
X187650000Y-107450000D03*
X181350000Y-107450000D03*
X181350000Y-106170000D03*
X181350000Y-104910000D03*
X181350000Y-103640000D03*
X181350000Y-102360000D03*
X181350000Y-101090000D03*
X181350000Y-99830000D03*
X181350000Y-98550000D03*
X179150000Y-98550000D03*
X179150000Y-99830000D03*
X179150000Y-101090000D03*
X179150000Y-102360000D03*
X179150000Y-103640000D03*
X179150000Y-104910000D03*
X179150000Y-106170000D03*
X179150000Y-107450000D03*
X172850000Y-107450000D03*
X172850000Y-106170000D03*
X172850000Y-104910000D03*
X172850000Y-103640000D03*
X172850000Y-102360000D03*
X172850000Y-101090000D03*
X172850000Y-99830000D03*
X172850000Y-98550000D03*
X170650000Y-98550000D03*
X170650000Y-99830000D03*
X170650000Y-101090000D03*
X170650000Y-102360000D03*
X170650000Y-103640000D03*
X170650000Y-104910000D03*
X170650000Y-106170000D03*
X170650000Y-107450000D03*
X164350000Y-107450000D03*
X164350000Y-106170000D03*
X164350000Y-104910000D03*
X164350000Y-103640000D03*
X164350000Y-102360000D03*
X164350000Y-101090000D03*
X164350000Y-99830000D03*
X164350000Y-98550000D03*
X162150000Y-98550000D03*
X162150000Y-99830000D03*
X162150000Y-101090000D03*
X162150000Y-102360000D03*
X162150000Y-103640000D03*
X162150000Y-104910000D03*
X162150000Y-106170000D03*
X162150000Y-107450000D03*
X155850000Y-107450000D03*
X155850000Y-106170000D03*
X155850000Y-104910000D03*
X155850000Y-103640000D03*
X155850000Y-102360000D03*
X155850000Y-101090000D03*
X155850000Y-99830000D03*
X155850000Y-98550000D03*
X153650000Y-98550000D03*
X153650000Y-99830000D03*
X153650000Y-101090000D03*
X153650000Y-102360000D03*
X153650000Y-103640000D03*
X153650000Y-104910000D03*
X153650000Y-106170000D03*
X153650000Y-107450000D03*
X147350000Y-107450000D03*
X147350000Y-106170000D03*
X147350000Y-104910000D03*
X147350000Y-103640000D03*
X147350000Y-102360000D03*
X147350000Y-101090000D03*
X147350000Y-99830000D03*
X147350000Y-98550000D03*
X179150000Y-86550000D03*
X179150000Y-87830000D03*
X179150000Y-89090000D03*
X179150000Y-90360000D03*
X179150000Y-91640000D03*
X179150000Y-92910000D03*
X179150000Y-94170000D03*
X179150000Y-95450000D03*
X172850000Y-95450000D03*
X172850000Y-94170000D03*
X172850000Y-92910000D03*
X172850000Y-91640000D03*
X172850000Y-90360000D03*
X172850000Y-89090000D03*
X172850000Y-87830000D03*
X172850000Y-86550000D03*
X162150000Y-86550000D03*
X162150000Y-87830000D03*
X162150000Y-89090000D03*
X162150000Y-90360000D03*
X162150000Y-91640000D03*
X162150000Y-92910000D03*
X162150000Y-94170000D03*
X162150000Y-95450000D03*
X155850000Y-95450000D03*
X155850000Y-94170000D03*
X155850000Y-92910000D03*
X155850000Y-91640000D03*
X155850000Y-90360000D03*
X155850000Y-89090000D03*
X155850000Y-87830000D03*
X155850000Y-86550000D03*
X153650000Y-86550000D03*
X153650000Y-87830000D03*
X153650000Y-89090000D03*
X153650000Y-90360000D03*
X153650000Y-91640000D03*
X153650000Y-92910000D03*
X153650000Y-94170000D03*
X153650000Y-95450000D03*
X147350000Y-95450000D03*
X147350000Y-94170000D03*
X147350000Y-92910000D03*
X147350000Y-91640000D03*
X147350000Y-90360000D03*
X147350000Y-89090000D03*
X147350000Y-87830000D03*
X147350000Y-86550000D03*
D15*
X121350000Y-104720000D03*
X128650000Y-104720000D03*
X128650000Y-106930000D03*
X121350000Y-106930000D03*
D16*
X127250000Y-104070000D03*
X125750000Y-104070000D03*
X122750000Y-104070000D03*
D17*
X182000000Y-87500000D03*
X182000000Y-94500000D03*
X189000000Y-94500000D03*
X189000000Y-87500000D03*
M02*
