G04 #@! TF.GenerationSoftware,KiCad,Pcbnew,(5.1.0-0)*
G04 #@! TF.CreationDate,2020-08-21T20:36:15-04:00*
G04 #@! TF.ProjectId,Rick Flash,5269636b-2046-46c6-9173-682e6b696361,1.1*
G04 #@! TF.SameCoordinates,Original*
G04 #@! TF.FileFunction,Legend,Bot*
G04 #@! TF.FilePolarity,Positive*
%FSLAX46Y46*%
G04 Gerber Fmt 4.6, Leading zero omitted, Abs format (unit mm)*
G04 Created by KiCad (PCBNEW (5.1.0-0)) date 2020-08-21 20:36:15*
%MOMM*%
%LPD*%
G04 APERTURE LIST*
%ADD10C,0.150000*%
%ADD11C,0.010000*%
G04 APERTURE END LIST*
D10*
X132725000Y-88707023D02*
X132686904Y-88630833D01*
X132686904Y-88516547D01*
X132725000Y-88402261D01*
X132801190Y-88326071D01*
X132877380Y-88287976D01*
X133029761Y-88249880D01*
X133144047Y-88249880D01*
X133296428Y-88287976D01*
X133372619Y-88326071D01*
X133448809Y-88402261D01*
X133486904Y-88516547D01*
X133486904Y-88592738D01*
X133448809Y-88707023D01*
X133410714Y-88745119D01*
X133144047Y-88745119D01*
X133144047Y-88592738D01*
X133486904Y-89087976D02*
X132686904Y-89087976D01*
X133486904Y-89545119D01*
X132686904Y-89545119D01*
X133486904Y-89926071D02*
X132686904Y-89926071D01*
X132686904Y-90116547D01*
X132725000Y-90230833D01*
X132801190Y-90307023D01*
X132877380Y-90345119D01*
X133029761Y-90383214D01*
X133144047Y-90383214D01*
X133296428Y-90345119D01*
X133372619Y-90307023D01*
X133448809Y-90230833D01*
X133486904Y-90116547D01*
X133486904Y-89926071D01*
X134075000Y-88707023D02*
X134036904Y-88630833D01*
X134036904Y-88516547D01*
X134075000Y-88402261D01*
X134151190Y-88326071D01*
X134227380Y-88287976D01*
X134379761Y-88249880D01*
X134494047Y-88249880D01*
X134646428Y-88287976D01*
X134722619Y-88326071D01*
X134798809Y-88402261D01*
X134836904Y-88516547D01*
X134836904Y-88592738D01*
X134798809Y-88707023D01*
X134760714Y-88745119D01*
X134494047Y-88745119D01*
X134494047Y-88592738D01*
X134836904Y-89087976D02*
X134036904Y-89087976D01*
X134036904Y-89392738D01*
X134075000Y-89468928D01*
X134113095Y-89507023D01*
X134189285Y-89545119D01*
X134303571Y-89545119D01*
X134379761Y-89507023D01*
X134417857Y-89468928D01*
X134455952Y-89392738D01*
X134455952Y-89087976D01*
X134836904Y-89887976D02*
X134036904Y-89887976D01*
X134036904Y-90421309D02*
X134036904Y-90573690D01*
X134075000Y-90649880D01*
X134151190Y-90726071D01*
X134303571Y-90764166D01*
X134570238Y-90764166D01*
X134722619Y-90726071D01*
X134798809Y-90649880D01*
X134836904Y-90573690D01*
X134836904Y-90421309D01*
X134798809Y-90345119D01*
X134722619Y-90268928D01*
X134570238Y-90230833D01*
X134303571Y-90230833D01*
X134151190Y-90268928D01*
X134075000Y-90345119D01*
X134036904Y-90421309D01*
X134036904Y-91259404D02*
X134036904Y-91335595D01*
X134075000Y-91411785D01*
X134113095Y-91449880D01*
X134189285Y-91487976D01*
X134341666Y-91526071D01*
X134532142Y-91526071D01*
X134684523Y-91487976D01*
X134760714Y-91449880D01*
X134798809Y-91411785D01*
X134836904Y-91335595D01*
X134836904Y-91259404D01*
X134798809Y-91183214D01*
X134760714Y-91145119D01*
X134684523Y-91107023D01*
X134532142Y-91068928D01*
X134341666Y-91068928D01*
X134189285Y-91107023D01*
X134113095Y-91145119D01*
X134075000Y-91183214D01*
X134036904Y-91259404D01*
X135386904Y-88211785D02*
X135386904Y-88707023D01*
X135691666Y-88440357D01*
X135691666Y-88554642D01*
X135729761Y-88630833D01*
X135767857Y-88668928D01*
X135844047Y-88707023D01*
X136034523Y-88707023D01*
X136110714Y-88668928D01*
X136148809Y-88630833D01*
X136186904Y-88554642D01*
X136186904Y-88326071D01*
X136148809Y-88249880D01*
X136110714Y-88211785D01*
X136110714Y-89049880D02*
X136148809Y-89087976D01*
X136186904Y-89049880D01*
X136148809Y-89011785D01*
X136110714Y-89049880D01*
X136186904Y-89049880D01*
X135386904Y-89354642D02*
X135386904Y-89849880D01*
X135691666Y-89583214D01*
X135691666Y-89697500D01*
X135729761Y-89773690D01*
X135767857Y-89811785D01*
X135844047Y-89849880D01*
X136034523Y-89849880D01*
X136110714Y-89811785D01*
X136148809Y-89773690D01*
X136186904Y-89697500D01*
X136186904Y-89468928D01*
X136148809Y-89392738D01*
X136110714Y-89354642D01*
X135386904Y-90078452D02*
X136186904Y-90345119D01*
X135386904Y-90611785D01*
X136736904Y-88173690D02*
X136736904Y-88630833D01*
X137536904Y-88402261D02*
X136736904Y-88402261D01*
X136736904Y-88821309D02*
X137536904Y-89354642D01*
X136736904Y-89354642D02*
X137536904Y-88821309D01*
X138886904Y-88745119D02*
X138505952Y-88478452D01*
X138886904Y-88287976D02*
X138086904Y-88287976D01*
X138086904Y-88592738D01*
X138125000Y-88668928D01*
X138163095Y-88707023D01*
X138239285Y-88745119D01*
X138353571Y-88745119D01*
X138429761Y-88707023D01*
X138467857Y-88668928D01*
X138505952Y-88592738D01*
X138505952Y-88287976D01*
X138086904Y-89011785D02*
X138886904Y-89545119D01*
X138086904Y-89545119D02*
X138886904Y-89011785D01*
X140236904Y-88745119D02*
X139855952Y-88478452D01*
X140236904Y-88287976D02*
X139436904Y-88287976D01*
X139436904Y-88592738D01*
X139475000Y-88668928D01*
X139513095Y-88707023D01*
X139589285Y-88745119D01*
X139703571Y-88745119D01*
X139779761Y-88707023D01*
X139817857Y-88668928D01*
X139855952Y-88592738D01*
X139855952Y-88287976D01*
X139817857Y-89087976D02*
X139817857Y-89354642D01*
X140236904Y-89468928D02*
X140236904Y-89087976D01*
X139436904Y-89087976D01*
X139436904Y-89468928D01*
X140198809Y-89773690D02*
X140236904Y-89887976D01*
X140236904Y-90078452D01*
X140198809Y-90154642D01*
X140160714Y-90192738D01*
X140084523Y-90230833D01*
X140008333Y-90230833D01*
X139932142Y-90192738D01*
X139894047Y-90154642D01*
X139855952Y-90078452D01*
X139817857Y-89926071D01*
X139779761Y-89849880D01*
X139741666Y-89811785D01*
X139665476Y-89773690D01*
X139589285Y-89773690D01*
X139513095Y-89811785D01*
X139475000Y-89849880D01*
X139436904Y-89926071D01*
X139436904Y-90116547D01*
X139475000Y-90230833D01*
X139817857Y-90573690D02*
X139817857Y-90840357D01*
X140236904Y-90954642D02*
X140236904Y-90573690D01*
X139436904Y-90573690D01*
X139436904Y-90954642D01*
X139436904Y-91183214D02*
X139436904Y-91640357D01*
X140236904Y-91411785D02*
X139436904Y-91411785D01*
D11*
G36*
X184595960Y-92647920D02*
G01*
X184913519Y-92330480D01*
X184979972Y-92264354D01*
X185042318Y-92202892D01*
X185099037Y-92147552D01*
X185148610Y-92099790D01*
X185189515Y-92061065D01*
X185220232Y-92032832D01*
X185239240Y-92016549D01*
X185244782Y-92013040D01*
X185256564Y-92019621D01*
X185280312Y-92037811D01*
X185313203Y-92065279D01*
X185352418Y-92099695D01*
X185380085Y-92124800D01*
X185422314Y-92162587D01*
X185460568Y-92194911D01*
X185491896Y-92219427D01*
X185513348Y-92233786D01*
X185520539Y-92236560D01*
X185541208Y-92229011D01*
X185566555Y-92210207D01*
X185590649Y-92185914D01*
X185607559Y-92161899D01*
X185611960Y-92147686D01*
X185605481Y-92132286D01*
X185587883Y-92105868D01*
X185561923Y-92072253D01*
X185533220Y-92038480D01*
X185494294Y-91994425D01*
X185467141Y-91963107D01*
X185449928Y-91942167D01*
X185440823Y-91929251D01*
X185437993Y-91921999D01*
X185439599Y-91918061D01*
X185450239Y-91914275D01*
X185477941Y-91905825D01*
X185520177Y-91893443D01*
X185574420Y-91877860D01*
X185638140Y-91859809D01*
X185708811Y-91840020D01*
X185720118Y-91836874D01*
X185811756Y-91811287D01*
X185885773Y-91790257D01*
X185944167Y-91773050D01*
X185988937Y-91758933D01*
X186022080Y-91747170D01*
X186045595Y-91737029D01*
X186061479Y-91727774D01*
X186071731Y-91718671D01*
X186078349Y-91708988D01*
X186080586Y-91704438D01*
X186087010Y-91683535D01*
X186085819Y-91661955D01*
X186075560Y-91637230D01*
X186054775Y-91606891D01*
X186022009Y-91568469D01*
X185975806Y-91519494D01*
X185964977Y-91508371D01*
X185851686Y-91392433D01*
X186176263Y-91067737D01*
X186500840Y-90743040D01*
X187075000Y-90743040D01*
X187075000Y-90693659D01*
X187076493Y-90651268D01*
X187080206Y-90607230D01*
X187081460Y-90597139D01*
X187087921Y-90550000D01*
X186521931Y-90550000D01*
X186197017Y-90225544D01*
X185872103Y-89901087D01*
X185985588Y-89783939D01*
X186025817Y-89741157D01*
X186060454Y-89701923D01*
X186086967Y-89669282D01*
X186102822Y-89646278D01*
X186105999Y-89639200D01*
X186105441Y-89604157D01*
X186089278Y-89572220D01*
X186062164Y-89548043D01*
X186028753Y-89536280D01*
X186004613Y-89537798D01*
X185986326Y-89547324D01*
X185957640Y-89567922D01*
X185922670Y-89596439D01*
X185889817Y-89625720D01*
X185854977Y-89657495D01*
X185825361Y-89683417D01*
X185804193Y-89700737D01*
X185794825Y-89706720D01*
X185786921Y-89698148D01*
X185782129Y-89683860D01*
X185777810Y-89666434D01*
X185768991Y-89632793D01*
X185756589Y-89586310D01*
X185741523Y-89530356D01*
X185724709Y-89468301D01*
X185707065Y-89403517D01*
X185689507Y-89339375D01*
X185672954Y-89279245D01*
X185658322Y-89226499D01*
X185646528Y-89184509D01*
X185640967Y-89165088D01*
X185623002Y-89113816D01*
X185603056Y-89080320D01*
X185578959Y-89062056D01*
X185548539Y-89056481D01*
X185548273Y-89056480D01*
X185527184Y-89060104D01*
X185502002Y-89071960D01*
X185470762Y-89093527D01*
X185431499Y-89126283D01*
X185382246Y-89171706D01*
X185337640Y-89214907D01*
X185261440Y-89289748D01*
X184606120Y-88634958D01*
X184606120Y-88060800D01*
X184423240Y-88060800D01*
X184423240Y-88624800D01*
X184098249Y-88949671D01*
X183773259Y-89274542D01*
X183709954Y-89213771D01*
X183678561Y-89183627D01*
X183657371Y-89163329D01*
X183641908Y-89148675D01*
X183627694Y-89135462D01*
X183610249Y-89119488D01*
X183585097Y-89096552D01*
X183582935Y-89094580D01*
X183551912Y-89067995D01*
X183528313Y-89053258D01*
X183505912Y-89047165D01*
X183489189Y-89046320D01*
X183472217Y-89046969D01*
X183457665Y-89050128D01*
X183444724Y-89057612D01*
X183432582Y-89071240D01*
X183420429Y-89092828D01*
X183407456Y-89124193D01*
X183392853Y-89167152D01*
X183375808Y-89223522D01*
X183355512Y-89295119D01*
X183331155Y-89383762D01*
X183319303Y-89427306D01*
X183300745Y-89495038D01*
X183283603Y-89556590D01*
X183268687Y-89609136D01*
X183256805Y-89649851D01*
X183248767Y-89675906D01*
X183245734Y-89684156D01*
X183236532Y-89685001D01*
X183216307Y-89672751D01*
X183184100Y-89646727D01*
X183149039Y-89615512D01*
X183111558Y-89582694D01*
X183076993Y-89554976D01*
X183049361Y-89535425D01*
X183033480Y-89527280D01*
X182999149Y-89528019D01*
X182967811Y-89544341D01*
X182944005Y-89571568D01*
X182932271Y-89605023D01*
X182933764Y-89630010D01*
X182943730Y-89648280D01*
X182966237Y-89677793D01*
X182999041Y-89715850D01*
X183034015Y-89753430D01*
X183421266Y-89753430D01*
X183421491Y-89741192D01*
X183426491Y-89724853D01*
X183434988Y-89693775D01*
X183445643Y-89652957D01*
X183453530Y-89621812D01*
X183475516Y-89535748D01*
X183495077Y-89462898D01*
X183511804Y-89404636D01*
X183525287Y-89362336D01*
X183535119Y-89337372D01*
X183540176Y-89330800D01*
X183549550Y-89337613D01*
X183571116Y-89356667D01*
X183602644Y-89385887D01*
X183641907Y-89423196D01*
X183686677Y-89466517D01*
X183703890Y-89483358D01*
X183756480Y-89535379D01*
X183795586Y-89575167D01*
X183822602Y-89604332D01*
X183838916Y-89624487D01*
X183845920Y-89637241D01*
X183845006Y-89644207D01*
X183843667Y-89645254D01*
X183827812Y-89651546D01*
X183796146Y-89661781D01*
X183752537Y-89674893D01*
X183700857Y-89689812D01*
X183644974Y-89705471D01*
X183588760Y-89720802D01*
X183536082Y-89734737D01*
X183490813Y-89746207D01*
X183456820Y-89754144D01*
X183437975Y-89757480D01*
X183436926Y-89757520D01*
X183421266Y-89753430D01*
X183034015Y-89753430D01*
X183039899Y-89759752D01*
X183051770Y-89772000D01*
X183162607Y-89885428D01*
X182830206Y-90217714D01*
X182497806Y-90550000D01*
X181934040Y-90550000D01*
X181934040Y-90636019D01*
X182665260Y-90636019D01*
X182964558Y-90332893D01*
X183028671Y-90268277D01*
X183088556Y-90208536D01*
X183142680Y-90155152D01*
X183189514Y-90109607D01*
X183227525Y-90073383D01*
X183255183Y-90047963D01*
X183270956Y-90034830D01*
X183273941Y-90033343D01*
X183285395Y-90041641D01*
X183307332Y-90060731D01*
X183335794Y-90087110D01*
X183348173Y-90098973D01*
X183408280Y-90156104D01*
X183456708Y-90199247D01*
X183495510Y-90229390D01*
X183526740Y-90247522D01*
X183552450Y-90254631D01*
X183574694Y-90251708D01*
X183595526Y-90239741D01*
X183611221Y-90225662D01*
X183630115Y-90203652D01*
X183639682Y-90182409D01*
X183638918Y-90159455D01*
X183626814Y-90132309D01*
X183602365Y-90098492D01*
X183564563Y-90055523D01*
X183525430Y-90014338D01*
X183498732Y-89985282D01*
X183479592Y-89961592D01*
X183470870Y-89946943D01*
X183470998Y-89944375D01*
X183482203Y-89939979D01*
X183510407Y-89930983D01*
X183553012Y-89918154D01*
X183607420Y-89902262D01*
X183671031Y-89884075D01*
X183741248Y-89864362D01*
X183744749Y-89863388D01*
X183838491Y-89837031D01*
X183914480Y-89814884D01*
X183974669Y-89796188D01*
X184021009Y-89780186D01*
X184055452Y-89766119D01*
X184079949Y-89753230D01*
X184096451Y-89740759D01*
X184106911Y-89727949D01*
X184110424Y-89721311D01*
X184115331Y-89704004D01*
X184113468Y-89684826D01*
X184103437Y-89661374D01*
X184083836Y-89631249D01*
X184053265Y-89592048D01*
X184010322Y-89541370D01*
X183995609Y-89524475D01*
X183962429Y-89486047D01*
X183934710Y-89453023D01*
X183914918Y-89428411D01*
X183905517Y-89415217D01*
X183905080Y-89414037D01*
X183911997Y-89405687D01*
X183931540Y-89384862D01*
X183961893Y-89353383D01*
X184001243Y-89313068D01*
X184047774Y-89265738D01*
X184099674Y-89213215D01*
X184155126Y-89157317D01*
X184212317Y-89099865D01*
X184269432Y-89042679D01*
X184324658Y-88987580D01*
X184376178Y-88936388D01*
X184422180Y-88890923D01*
X184460848Y-88853006D01*
X184490368Y-88824455D01*
X184508926Y-88807093D01*
X184514680Y-88802480D01*
X184522734Y-88809433D01*
X184543620Y-88829302D01*
X184575831Y-88860605D01*
X184617859Y-88901862D01*
X184668198Y-88951588D01*
X184725341Y-89008303D01*
X184787781Y-89070524D01*
X184824254Y-89106975D01*
X185128622Y-89411470D01*
X185036882Y-89505755D01*
X184984258Y-89560802D01*
X184945070Y-89604282D01*
X184917726Y-89638305D01*
X184914808Y-89642860D01*
X185178858Y-89642860D01*
X185183757Y-89634215D01*
X185200633Y-89613887D01*
X185226990Y-89584456D01*
X185260331Y-89548504D01*
X185298161Y-89508612D01*
X185337984Y-89467361D01*
X185377305Y-89427332D01*
X185413628Y-89391106D01*
X185444457Y-89361263D01*
X185467296Y-89340386D01*
X185479651Y-89331055D01*
X185480598Y-89330800D01*
X185484989Y-89340128D01*
X185493851Y-89366216D01*
X185506308Y-89406219D01*
X185521484Y-89457294D01*
X185538501Y-89516597D01*
X185544933Y-89539498D01*
X185562031Y-89601632D01*
X185576842Y-89657205D01*
X185588609Y-89703229D01*
X185596576Y-89736720D01*
X185599986Y-89754688D01*
X185599967Y-89756746D01*
X185589872Y-89756469D01*
X185563754Y-89751374D01*
X185525078Y-89742397D01*
X185477308Y-89730475D01*
X185423911Y-89716546D01*
X185368350Y-89701546D01*
X185314090Y-89686413D01*
X185264596Y-89672083D01*
X185223334Y-89659494D01*
X185193767Y-89649582D01*
X185179361Y-89643285D01*
X185178858Y-89642860D01*
X184914808Y-89642860D01*
X184900634Y-89664980D01*
X184892202Y-89686419D01*
X184890600Y-89699664D01*
X184892623Y-89716460D01*
X184899811Y-89731739D01*
X184913843Y-89746196D01*
X184936398Y-89760527D01*
X184969155Y-89775429D01*
X185013791Y-89791599D01*
X185071986Y-89809731D01*
X185145418Y-89830522D01*
X185235766Y-89854669D01*
X185312240Y-89874525D01*
X185376794Y-89891380D01*
X185434729Y-89906938D01*
X185483146Y-89920387D01*
X185519144Y-89930912D01*
X185539826Y-89937700D01*
X185543549Y-89939466D01*
X185541660Y-89950215D01*
X185528167Y-89969396D01*
X185516912Y-89981718D01*
X185461016Y-90040455D01*
X185420295Y-90088253D01*
X185393751Y-90126474D01*
X185380387Y-90156481D01*
X185378280Y-90171066D01*
X185387221Y-90206176D01*
X185410356Y-90235316D01*
X185442146Y-90252783D01*
X185460131Y-90255360D01*
X185487190Y-90247965D01*
X185523821Y-90225473D01*
X185570620Y-90187429D01*
X185628182Y-90133377D01*
X185657407Y-90104064D01*
X185688421Y-90073462D01*
X185714813Y-90049288D01*
X185733033Y-90034696D01*
X185738751Y-90031840D01*
X185747951Y-90038805D01*
X185769917Y-90058705D01*
X185803108Y-90090049D01*
X185845979Y-90131344D01*
X185896988Y-90181099D01*
X185954593Y-90237822D01*
X186017249Y-90300022D01*
X186051443Y-90334163D01*
X186353639Y-90636485D01*
X186046183Y-90943818D01*
X185738727Y-91251150D01*
X185625494Y-91145281D01*
X185575835Y-91099278D01*
X185538122Y-91065644D01*
X185509799Y-91042515D01*
X185488309Y-91028028D01*
X185471096Y-91020319D01*
X185455604Y-91017523D01*
X185450067Y-91017360D01*
X185434004Y-91019465D01*
X185419305Y-91026918D01*
X185405256Y-91041427D01*
X185391147Y-91064700D01*
X185376264Y-91098443D01*
X185359897Y-91144366D01*
X185341332Y-91204174D01*
X185319859Y-91279577D01*
X185294763Y-91372282D01*
X185282068Y-91420215D01*
X185263933Y-91488435D01*
X185247268Y-91550015D01*
X185232825Y-91602268D01*
X185221355Y-91642508D01*
X185213608Y-91668049D01*
X185210513Y-91676194D01*
X185201436Y-91671912D01*
X185181361Y-91655946D01*
X185153583Y-91631056D01*
X185131602Y-91610078D01*
X185087416Y-91567831D01*
X185053799Y-91538383D01*
X185027555Y-91519583D01*
X185005491Y-91509281D01*
X184984413Y-91505327D01*
X184975602Y-91505040D01*
X184945880Y-91511422D01*
X184919561Y-91533208D01*
X184916903Y-91536300D01*
X184901786Y-91556227D01*
X184893439Y-91574560D01*
X184893039Y-91593691D01*
X184901765Y-91616012D01*
X184920793Y-91643913D01*
X184951301Y-91679787D01*
X184987124Y-91718159D01*
X185399930Y-91718159D01*
X185401112Y-91697057D01*
X185402983Y-91683943D01*
X185408278Y-91657682D01*
X185418104Y-91616716D01*
X185431164Y-91565809D01*
X185446160Y-91509723D01*
X185461795Y-91453219D01*
X185476773Y-91401061D01*
X185489797Y-91358010D01*
X185499569Y-91328829D01*
X185500045Y-91327566D01*
X185511540Y-91297412D01*
X185663350Y-91450157D01*
X185708407Y-91495981D01*
X185748147Y-91537338D01*
X185780464Y-91571956D01*
X185803249Y-91597562D01*
X185814395Y-91611888D01*
X185815160Y-91613746D01*
X185806800Y-91625342D01*
X185797380Y-91629717D01*
X185724598Y-91650426D01*
X185653303Y-91670202D01*
X185586409Y-91688285D01*
X185526825Y-91703913D01*
X185477465Y-91716325D01*
X185441240Y-91724760D01*
X185421062Y-91728457D01*
X185419262Y-91728560D01*
X185405324Y-91726860D01*
X185399930Y-91718159D01*
X184987124Y-91718159D01*
X184994468Y-91726025D01*
X185026957Y-91759761D01*
X185126911Y-91862963D01*
X184823399Y-92166602D01*
X184758609Y-92231200D01*
X184698105Y-92291106D01*
X184643421Y-92344831D01*
X184596089Y-92390889D01*
X184557643Y-92427792D01*
X184529618Y-92454051D01*
X184513546Y-92468179D01*
X184510378Y-92470240D01*
X184501021Y-92463286D01*
X184479291Y-92443649D01*
X184447027Y-92413165D01*
X184406068Y-92373673D01*
X184358255Y-92327009D01*
X184305427Y-92275010D01*
X184249424Y-92219514D01*
X184192087Y-92162359D01*
X184135253Y-92105380D01*
X184080765Y-92050416D01*
X184030460Y-91999304D01*
X183986180Y-91953882D01*
X183949763Y-91915985D01*
X183923051Y-91887452D01*
X183907881Y-91870119D01*
X183905080Y-91865780D01*
X183911917Y-91854159D01*
X183930145Y-91832583D01*
X183956337Y-91805000D01*
X183967135Y-91794282D01*
X184028272Y-91732076D01*
X184075557Y-91678625D01*
X184108283Y-91634835D01*
X184125744Y-91601613D01*
X184128600Y-91587277D01*
X184119360Y-91552518D01*
X184095251Y-91524179D01*
X184061682Y-91507441D01*
X184042708Y-91505040D01*
X184025496Y-91506790D01*
X184007723Y-91513518D01*
X183986018Y-91527438D01*
X183957010Y-91550767D01*
X183917330Y-91585720D01*
X183910134Y-91592208D01*
X183867009Y-91629860D01*
X183835091Y-91654914D01*
X183815398Y-91666630D01*
X183809114Y-91665868D01*
X183805304Y-91652660D01*
X183796976Y-91622665D01*
X183784905Y-91578717D01*
X183769867Y-91523646D01*
X183752638Y-91460285D01*
X183738608Y-91408520D01*
X183712228Y-91311786D01*
X183690171Y-91232891D01*
X183671762Y-91169979D01*
X183656328Y-91121193D01*
X183643198Y-91084675D01*
X183631697Y-91058570D01*
X183621153Y-91041020D01*
X183610893Y-91030168D01*
X183600244Y-91024157D01*
X183599166Y-91023763D01*
X183577744Y-91018795D01*
X183556261Y-91020574D01*
X183532118Y-91030647D01*
X183502715Y-91050563D01*
X183465452Y-91081870D01*
X183417731Y-91126114D01*
X183402011Y-91141156D01*
X183283921Y-91254681D01*
X182974590Y-90945350D01*
X182665260Y-90636019D01*
X181934040Y-90636019D01*
X181934040Y-90732880D01*
X182508200Y-90732880D01*
X182825640Y-91050440D01*
X182891716Y-91116743D01*
X182953136Y-91178764D01*
X183008446Y-91235007D01*
X183056193Y-91283975D01*
X183094923Y-91324173D01*
X183123182Y-91354103D01*
X183139517Y-91372270D01*
X183143079Y-91377210D01*
X183136332Y-91387346D01*
X183117745Y-91409132D01*
X183089805Y-91439806D01*
X183054995Y-91476606D01*
X183036433Y-91495782D01*
X182988354Y-91546066D01*
X182953710Y-91585132D01*
X182936510Y-91608046D01*
X183214200Y-91608046D01*
X183221115Y-91596354D01*
X183240420Y-91572866D01*
X183269956Y-91539973D01*
X183307561Y-91500064D01*
X183351076Y-91455526D01*
X183362104Y-91444468D01*
X183412824Y-91394184D01*
X183451261Y-91357099D01*
X183479190Y-91331739D01*
X183498384Y-91316631D01*
X183510618Y-91310300D01*
X183517667Y-91311273D01*
X183519582Y-91313633D01*
X183525016Y-91328571D01*
X183534278Y-91359783D01*
X183546408Y-91403797D01*
X183560447Y-91457138D01*
X183574437Y-91512317D01*
X183589234Y-91571239D01*
X183602742Y-91624112D01*
X183614053Y-91667461D01*
X183622261Y-91697808D01*
X183626327Y-91711344D01*
X183628301Y-91720030D01*
X183624924Y-91725342D01*
X183614055Y-91726941D01*
X183593557Y-91724488D01*
X183561290Y-91717645D01*
X183515116Y-91706073D01*
X183452894Y-91689434D01*
X183404700Y-91676254D01*
X183334724Y-91656603D01*
X183282652Y-91640915D01*
X183246602Y-91628515D01*
X183224695Y-91618731D01*
X183215048Y-91610888D01*
X183214200Y-91608046D01*
X182936510Y-91608046D01*
X182930935Y-91615472D01*
X182918465Y-91639576D01*
X182914737Y-91659938D01*
X182918186Y-91679049D01*
X182919357Y-91682309D01*
X182926213Y-91696925D01*
X182936178Y-91709911D01*
X182951252Y-91722065D01*
X182973434Y-91734181D01*
X183004725Y-91747054D01*
X183047124Y-91761481D01*
X183102631Y-91778256D01*
X183173245Y-91798175D01*
X183260966Y-91822033D01*
X183290706Y-91830020D01*
X183356839Y-91847884D01*
X183417773Y-91864596D01*
X183470285Y-91879252D01*
X183511151Y-91890947D01*
X183537147Y-91898778D01*
X183543400Y-91900901D01*
X183571370Y-91911535D01*
X183489726Y-91999605D01*
X183456837Y-92036782D01*
X183429194Y-92071214D01*
X183409884Y-92098849D01*
X183402161Y-92114633D01*
X183402719Y-92155178D01*
X183421189Y-92189939D01*
X183451098Y-92212319D01*
X183475918Y-92222325D01*
X183494410Y-92222127D01*
X183516094Y-92212663D01*
X183534422Y-92200004D01*
X183563690Y-92176131D01*
X183600357Y-92144083D01*
X183640879Y-92106899D01*
X183655604Y-92092959D01*
X183764279Y-91989201D01*
X184083599Y-92308400D01*
X184402920Y-92627600D01*
X184402920Y-93222080D01*
X184595960Y-93222080D01*
X184595960Y-92647920D01*
X184595960Y-92647920D01*
G37*
X184595960Y-92647920D02*
X184913519Y-92330480D01*
X184979972Y-92264354D01*
X185042318Y-92202892D01*
X185099037Y-92147552D01*
X185148610Y-92099790D01*
X185189515Y-92061065D01*
X185220232Y-92032832D01*
X185239240Y-92016549D01*
X185244782Y-92013040D01*
X185256564Y-92019621D01*
X185280312Y-92037811D01*
X185313203Y-92065279D01*
X185352418Y-92099695D01*
X185380085Y-92124800D01*
X185422314Y-92162587D01*
X185460568Y-92194911D01*
X185491896Y-92219427D01*
X185513348Y-92233786D01*
X185520539Y-92236560D01*
X185541208Y-92229011D01*
X185566555Y-92210207D01*
X185590649Y-92185914D01*
X185607559Y-92161899D01*
X185611960Y-92147686D01*
X185605481Y-92132286D01*
X185587883Y-92105868D01*
X185561923Y-92072253D01*
X185533220Y-92038480D01*
X185494294Y-91994425D01*
X185467141Y-91963107D01*
X185449928Y-91942167D01*
X185440823Y-91929251D01*
X185437993Y-91921999D01*
X185439599Y-91918061D01*
X185450239Y-91914275D01*
X185477941Y-91905825D01*
X185520177Y-91893443D01*
X185574420Y-91877860D01*
X185638140Y-91859809D01*
X185708811Y-91840020D01*
X185720118Y-91836874D01*
X185811756Y-91811287D01*
X185885773Y-91790257D01*
X185944167Y-91773050D01*
X185988937Y-91758933D01*
X186022080Y-91747170D01*
X186045595Y-91737029D01*
X186061479Y-91727774D01*
X186071731Y-91718671D01*
X186078349Y-91708988D01*
X186080586Y-91704438D01*
X186087010Y-91683535D01*
X186085819Y-91661955D01*
X186075560Y-91637230D01*
X186054775Y-91606891D01*
X186022009Y-91568469D01*
X185975806Y-91519494D01*
X185964977Y-91508371D01*
X185851686Y-91392433D01*
X186176263Y-91067737D01*
X186500840Y-90743040D01*
X187075000Y-90743040D01*
X187075000Y-90693659D01*
X187076493Y-90651268D01*
X187080206Y-90607230D01*
X187081460Y-90597139D01*
X187087921Y-90550000D01*
X186521931Y-90550000D01*
X186197017Y-90225544D01*
X185872103Y-89901087D01*
X185985588Y-89783939D01*
X186025817Y-89741157D01*
X186060454Y-89701923D01*
X186086967Y-89669282D01*
X186102822Y-89646278D01*
X186105999Y-89639200D01*
X186105441Y-89604157D01*
X186089278Y-89572220D01*
X186062164Y-89548043D01*
X186028753Y-89536280D01*
X186004613Y-89537798D01*
X185986326Y-89547324D01*
X185957640Y-89567922D01*
X185922670Y-89596439D01*
X185889817Y-89625720D01*
X185854977Y-89657495D01*
X185825361Y-89683417D01*
X185804193Y-89700737D01*
X185794825Y-89706720D01*
X185786921Y-89698148D01*
X185782129Y-89683860D01*
X185777810Y-89666434D01*
X185768991Y-89632793D01*
X185756589Y-89586310D01*
X185741523Y-89530356D01*
X185724709Y-89468301D01*
X185707065Y-89403517D01*
X185689507Y-89339375D01*
X185672954Y-89279245D01*
X185658322Y-89226499D01*
X185646528Y-89184509D01*
X185640967Y-89165088D01*
X185623002Y-89113816D01*
X185603056Y-89080320D01*
X185578959Y-89062056D01*
X185548539Y-89056481D01*
X185548273Y-89056480D01*
X185527184Y-89060104D01*
X185502002Y-89071960D01*
X185470762Y-89093527D01*
X185431499Y-89126283D01*
X185382246Y-89171706D01*
X185337640Y-89214907D01*
X185261440Y-89289748D01*
X184606120Y-88634958D01*
X184606120Y-88060800D01*
X184423240Y-88060800D01*
X184423240Y-88624800D01*
X184098249Y-88949671D01*
X183773259Y-89274542D01*
X183709954Y-89213771D01*
X183678561Y-89183627D01*
X183657371Y-89163329D01*
X183641908Y-89148675D01*
X183627694Y-89135462D01*
X183610249Y-89119488D01*
X183585097Y-89096552D01*
X183582935Y-89094580D01*
X183551912Y-89067995D01*
X183528313Y-89053258D01*
X183505912Y-89047165D01*
X183489189Y-89046320D01*
X183472217Y-89046969D01*
X183457665Y-89050128D01*
X183444724Y-89057612D01*
X183432582Y-89071240D01*
X183420429Y-89092828D01*
X183407456Y-89124193D01*
X183392853Y-89167152D01*
X183375808Y-89223522D01*
X183355512Y-89295119D01*
X183331155Y-89383762D01*
X183319303Y-89427306D01*
X183300745Y-89495038D01*
X183283603Y-89556590D01*
X183268687Y-89609136D01*
X183256805Y-89649851D01*
X183248767Y-89675906D01*
X183245734Y-89684156D01*
X183236532Y-89685001D01*
X183216307Y-89672751D01*
X183184100Y-89646727D01*
X183149039Y-89615512D01*
X183111558Y-89582694D01*
X183076993Y-89554976D01*
X183049361Y-89535425D01*
X183033480Y-89527280D01*
X182999149Y-89528019D01*
X182967811Y-89544341D01*
X182944005Y-89571568D01*
X182932271Y-89605023D01*
X182933764Y-89630010D01*
X182943730Y-89648280D01*
X182966237Y-89677793D01*
X182999041Y-89715850D01*
X183034015Y-89753430D01*
X183421266Y-89753430D01*
X183421491Y-89741192D01*
X183426491Y-89724853D01*
X183434988Y-89693775D01*
X183445643Y-89652957D01*
X183453530Y-89621812D01*
X183475516Y-89535748D01*
X183495077Y-89462898D01*
X183511804Y-89404636D01*
X183525287Y-89362336D01*
X183535119Y-89337372D01*
X183540176Y-89330800D01*
X183549550Y-89337613D01*
X183571116Y-89356667D01*
X183602644Y-89385887D01*
X183641907Y-89423196D01*
X183686677Y-89466517D01*
X183703890Y-89483358D01*
X183756480Y-89535379D01*
X183795586Y-89575167D01*
X183822602Y-89604332D01*
X183838916Y-89624487D01*
X183845920Y-89637241D01*
X183845006Y-89644207D01*
X183843667Y-89645254D01*
X183827812Y-89651546D01*
X183796146Y-89661781D01*
X183752537Y-89674893D01*
X183700857Y-89689812D01*
X183644974Y-89705471D01*
X183588760Y-89720802D01*
X183536082Y-89734737D01*
X183490813Y-89746207D01*
X183456820Y-89754144D01*
X183437975Y-89757480D01*
X183436926Y-89757520D01*
X183421266Y-89753430D01*
X183034015Y-89753430D01*
X183039899Y-89759752D01*
X183051770Y-89772000D01*
X183162607Y-89885428D01*
X182830206Y-90217714D01*
X182497806Y-90550000D01*
X181934040Y-90550000D01*
X181934040Y-90636019D01*
X182665260Y-90636019D01*
X182964558Y-90332893D01*
X183028671Y-90268277D01*
X183088556Y-90208536D01*
X183142680Y-90155152D01*
X183189514Y-90109607D01*
X183227525Y-90073383D01*
X183255183Y-90047963D01*
X183270956Y-90034830D01*
X183273941Y-90033343D01*
X183285395Y-90041641D01*
X183307332Y-90060731D01*
X183335794Y-90087110D01*
X183348173Y-90098973D01*
X183408280Y-90156104D01*
X183456708Y-90199247D01*
X183495510Y-90229390D01*
X183526740Y-90247522D01*
X183552450Y-90254631D01*
X183574694Y-90251708D01*
X183595526Y-90239741D01*
X183611221Y-90225662D01*
X183630115Y-90203652D01*
X183639682Y-90182409D01*
X183638918Y-90159455D01*
X183626814Y-90132309D01*
X183602365Y-90098492D01*
X183564563Y-90055523D01*
X183525430Y-90014338D01*
X183498732Y-89985282D01*
X183479592Y-89961592D01*
X183470870Y-89946943D01*
X183470998Y-89944375D01*
X183482203Y-89939979D01*
X183510407Y-89930983D01*
X183553012Y-89918154D01*
X183607420Y-89902262D01*
X183671031Y-89884075D01*
X183741248Y-89864362D01*
X183744749Y-89863388D01*
X183838491Y-89837031D01*
X183914480Y-89814884D01*
X183974669Y-89796188D01*
X184021009Y-89780186D01*
X184055452Y-89766119D01*
X184079949Y-89753230D01*
X184096451Y-89740759D01*
X184106911Y-89727949D01*
X184110424Y-89721311D01*
X184115331Y-89704004D01*
X184113468Y-89684826D01*
X184103437Y-89661374D01*
X184083836Y-89631249D01*
X184053265Y-89592048D01*
X184010322Y-89541370D01*
X183995609Y-89524475D01*
X183962429Y-89486047D01*
X183934710Y-89453023D01*
X183914918Y-89428411D01*
X183905517Y-89415217D01*
X183905080Y-89414037D01*
X183911997Y-89405687D01*
X183931540Y-89384862D01*
X183961893Y-89353383D01*
X184001243Y-89313068D01*
X184047774Y-89265738D01*
X184099674Y-89213215D01*
X184155126Y-89157317D01*
X184212317Y-89099865D01*
X184269432Y-89042679D01*
X184324658Y-88987580D01*
X184376178Y-88936388D01*
X184422180Y-88890923D01*
X184460848Y-88853006D01*
X184490368Y-88824455D01*
X184508926Y-88807093D01*
X184514680Y-88802480D01*
X184522734Y-88809433D01*
X184543620Y-88829302D01*
X184575831Y-88860605D01*
X184617859Y-88901862D01*
X184668198Y-88951588D01*
X184725341Y-89008303D01*
X184787781Y-89070524D01*
X184824254Y-89106975D01*
X185128622Y-89411470D01*
X185036882Y-89505755D01*
X184984258Y-89560802D01*
X184945070Y-89604282D01*
X184917726Y-89638305D01*
X184914808Y-89642860D01*
X185178858Y-89642860D01*
X185183757Y-89634215D01*
X185200633Y-89613887D01*
X185226990Y-89584456D01*
X185260331Y-89548504D01*
X185298161Y-89508612D01*
X185337984Y-89467361D01*
X185377305Y-89427332D01*
X185413628Y-89391106D01*
X185444457Y-89361263D01*
X185467296Y-89340386D01*
X185479651Y-89331055D01*
X185480598Y-89330800D01*
X185484989Y-89340128D01*
X185493851Y-89366216D01*
X185506308Y-89406219D01*
X185521484Y-89457294D01*
X185538501Y-89516597D01*
X185544933Y-89539498D01*
X185562031Y-89601632D01*
X185576842Y-89657205D01*
X185588609Y-89703229D01*
X185596576Y-89736720D01*
X185599986Y-89754688D01*
X185599967Y-89756746D01*
X185589872Y-89756469D01*
X185563754Y-89751374D01*
X185525078Y-89742397D01*
X185477308Y-89730475D01*
X185423911Y-89716546D01*
X185368350Y-89701546D01*
X185314090Y-89686413D01*
X185264596Y-89672083D01*
X185223334Y-89659494D01*
X185193767Y-89649582D01*
X185179361Y-89643285D01*
X185178858Y-89642860D01*
X184914808Y-89642860D01*
X184900634Y-89664980D01*
X184892202Y-89686419D01*
X184890600Y-89699664D01*
X184892623Y-89716460D01*
X184899811Y-89731739D01*
X184913843Y-89746196D01*
X184936398Y-89760527D01*
X184969155Y-89775429D01*
X185013791Y-89791599D01*
X185071986Y-89809731D01*
X185145418Y-89830522D01*
X185235766Y-89854669D01*
X185312240Y-89874525D01*
X185376794Y-89891380D01*
X185434729Y-89906938D01*
X185483146Y-89920387D01*
X185519144Y-89930912D01*
X185539826Y-89937700D01*
X185543549Y-89939466D01*
X185541660Y-89950215D01*
X185528167Y-89969396D01*
X185516912Y-89981718D01*
X185461016Y-90040455D01*
X185420295Y-90088253D01*
X185393751Y-90126474D01*
X185380387Y-90156481D01*
X185378280Y-90171066D01*
X185387221Y-90206176D01*
X185410356Y-90235316D01*
X185442146Y-90252783D01*
X185460131Y-90255360D01*
X185487190Y-90247965D01*
X185523821Y-90225473D01*
X185570620Y-90187429D01*
X185628182Y-90133377D01*
X185657407Y-90104064D01*
X185688421Y-90073462D01*
X185714813Y-90049288D01*
X185733033Y-90034696D01*
X185738751Y-90031840D01*
X185747951Y-90038805D01*
X185769917Y-90058705D01*
X185803108Y-90090049D01*
X185845979Y-90131344D01*
X185896988Y-90181099D01*
X185954593Y-90237822D01*
X186017249Y-90300022D01*
X186051443Y-90334163D01*
X186353639Y-90636485D01*
X186046183Y-90943818D01*
X185738727Y-91251150D01*
X185625494Y-91145281D01*
X185575835Y-91099278D01*
X185538122Y-91065644D01*
X185509799Y-91042515D01*
X185488309Y-91028028D01*
X185471096Y-91020319D01*
X185455604Y-91017523D01*
X185450067Y-91017360D01*
X185434004Y-91019465D01*
X185419305Y-91026918D01*
X185405256Y-91041427D01*
X185391147Y-91064700D01*
X185376264Y-91098443D01*
X185359897Y-91144366D01*
X185341332Y-91204174D01*
X185319859Y-91279577D01*
X185294763Y-91372282D01*
X185282068Y-91420215D01*
X185263933Y-91488435D01*
X185247268Y-91550015D01*
X185232825Y-91602268D01*
X185221355Y-91642508D01*
X185213608Y-91668049D01*
X185210513Y-91676194D01*
X185201436Y-91671912D01*
X185181361Y-91655946D01*
X185153583Y-91631056D01*
X185131602Y-91610078D01*
X185087416Y-91567831D01*
X185053799Y-91538383D01*
X185027555Y-91519583D01*
X185005491Y-91509281D01*
X184984413Y-91505327D01*
X184975602Y-91505040D01*
X184945880Y-91511422D01*
X184919561Y-91533208D01*
X184916903Y-91536300D01*
X184901786Y-91556227D01*
X184893439Y-91574560D01*
X184893039Y-91593691D01*
X184901765Y-91616012D01*
X184920793Y-91643913D01*
X184951301Y-91679787D01*
X184987124Y-91718159D01*
X185399930Y-91718159D01*
X185401112Y-91697057D01*
X185402983Y-91683943D01*
X185408278Y-91657682D01*
X185418104Y-91616716D01*
X185431164Y-91565809D01*
X185446160Y-91509723D01*
X185461795Y-91453219D01*
X185476773Y-91401061D01*
X185489797Y-91358010D01*
X185499569Y-91328829D01*
X185500045Y-91327566D01*
X185511540Y-91297412D01*
X185663350Y-91450157D01*
X185708407Y-91495981D01*
X185748147Y-91537338D01*
X185780464Y-91571956D01*
X185803249Y-91597562D01*
X185814395Y-91611888D01*
X185815160Y-91613746D01*
X185806800Y-91625342D01*
X185797380Y-91629717D01*
X185724598Y-91650426D01*
X185653303Y-91670202D01*
X185586409Y-91688285D01*
X185526825Y-91703913D01*
X185477465Y-91716325D01*
X185441240Y-91724760D01*
X185421062Y-91728457D01*
X185419262Y-91728560D01*
X185405324Y-91726860D01*
X185399930Y-91718159D01*
X184987124Y-91718159D01*
X184994468Y-91726025D01*
X185026957Y-91759761D01*
X185126911Y-91862963D01*
X184823399Y-92166602D01*
X184758609Y-92231200D01*
X184698105Y-92291106D01*
X184643421Y-92344831D01*
X184596089Y-92390889D01*
X184557643Y-92427792D01*
X184529618Y-92454051D01*
X184513546Y-92468179D01*
X184510378Y-92470240D01*
X184501021Y-92463286D01*
X184479291Y-92443649D01*
X184447027Y-92413165D01*
X184406068Y-92373673D01*
X184358255Y-92327009D01*
X184305427Y-92275010D01*
X184249424Y-92219514D01*
X184192087Y-92162359D01*
X184135253Y-92105380D01*
X184080765Y-92050416D01*
X184030460Y-91999304D01*
X183986180Y-91953882D01*
X183949763Y-91915985D01*
X183923051Y-91887452D01*
X183907881Y-91870119D01*
X183905080Y-91865780D01*
X183911917Y-91854159D01*
X183930145Y-91832583D01*
X183956337Y-91805000D01*
X183967135Y-91794282D01*
X184028272Y-91732076D01*
X184075557Y-91678625D01*
X184108283Y-91634835D01*
X184125744Y-91601613D01*
X184128600Y-91587277D01*
X184119360Y-91552518D01*
X184095251Y-91524179D01*
X184061682Y-91507441D01*
X184042708Y-91505040D01*
X184025496Y-91506790D01*
X184007723Y-91513518D01*
X183986018Y-91527438D01*
X183957010Y-91550767D01*
X183917330Y-91585720D01*
X183910134Y-91592208D01*
X183867009Y-91629860D01*
X183835091Y-91654914D01*
X183815398Y-91666630D01*
X183809114Y-91665868D01*
X183805304Y-91652660D01*
X183796976Y-91622665D01*
X183784905Y-91578717D01*
X183769867Y-91523646D01*
X183752638Y-91460285D01*
X183738608Y-91408520D01*
X183712228Y-91311786D01*
X183690171Y-91232891D01*
X183671762Y-91169979D01*
X183656328Y-91121193D01*
X183643198Y-91084675D01*
X183631697Y-91058570D01*
X183621153Y-91041020D01*
X183610893Y-91030168D01*
X183600244Y-91024157D01*
X183599166Y-91023763D01*
X183577744Y-91018795D01*
X183556261Y-91020574D01*
X183532118Y-91030647D01*
X183502715Y-91050563D01*
X183465452Y-91081870D01*
X183417731Y-91126114D01*
X183402011Y-91141156D01*
X183283921Y-91254681D01*
X182974590Y-90945350D01*
X182665260Y-90636019D01*
X181934040Y-90636019D01*
X181934040Y-90732880D01*
X182508200Y-90732880D01*
X182825640Y-91050440D01*
X182891716Y-91116743D01*
X182953136Y-91178764D01*
X183008446Y-91235007D01*
X183056193Y-91283975D01*
X183094923Y-91324173D01*
X183123182Y-91354103D01*
X183139517Y-91372270D01*
X183143079Y-91377210D01*
X183136332Y-91387346D01*
X183117745Y-91409132D01*
X183089805Y-91439806D01*
X183054995Y-91476606D01*
X183036433Y-91495782D01*
X182988354Y-91546066D01*
X182953710Y-91585132D01*
X182936510Y-91608046D01*
X183214200Y-91608046D01*
X183221115Y-91596354D01*
X183240420Y-91572866D01*
X183269956Y-91539973D01*
X183307561Y-91500064D01*
X183351076Y-91455526D01*
X183362104Y-91444468D01*
X183412824Y-91394184D01*
X183451261Y-91357099D01*
X183479190Y-91331739D01*
X183498384Y-91316631D01*
X183510618Y-91310300D01*
X183517667Y-91311273D01*
X183519582Y-91313633D01*
X183525016Y-91328571D01*
X183534278Y-91359783D01*
X183546408Y-91403797D01*
X183560447Y-91457138D01*
X183574437Y-91512317D01*
X183589234Y-91571239D01*
X183602742Y-91624112D01*
X183614053Y-91667461D01*
X183622261Y-91697808D01*
X183626327Y-91711344D01*
X183628301Y-91720030D01*
X183624924Y-91725342D01*
X183614055Y-91726941D01*
X183593557Y-91724488D01*
X183561290Y-91717645D01*
X183515116Y-91706073D01*
X183452894Y-91689434D01*
X183404700Y-91676254D01*
X183334724Y-91656603D01*
X183282652Y-91640915D01*
X183246602Y-91628515D01*
X183224695Y-91618731D01*
X183215048Y-91610888D01*
X183214200Y-91608046D01*
X182936510Y-91608046D01*
X182930935Y-91615472D01*
X182918465Y-91639576D01*
X182914737Y-91659938D01*
X182918186Y-91679049D01*
X182919357Y-91682309D01*
X182926213Y-91696925D01*
X182936178Y-91709911D01*
X182951252Y-91722065D01*
X182973434Y-91734181D01*
X183004725Y-91747054D01*
X183047124Y-91761481D01*
X183102631Y-91778256D01*
X183173245Y-91798175D01*
X183260966Y-91822033D01*
X183290706Y-91830020D01*
X183356839Y-91847884D01*
X183417773Y-91864596D01*
X183470285Y-91879252D01*
X183511151Y-91890947D01*
X183537147Y-91898778D01*
X183543400Y-91900901D01*
X183571370Y-91911535D01*
X183489726Y-91999605D01*
X183456837Y-92036782D01*
X183429194Y-92071214D01*
X183409884Y-92098849D01*
X183402161Y-92114633D01*
X183402719Y-92155178D01*
X183421189Y-92189939D01*
X183451098Y-92212319D01*
X183475918Y-92222325D01*
X183494410Y-92222127D01*
X183516094Y-92212663D01*
X183534422Y-92200004D01*
X183563690Y-92176131D01*
X183600357Y-92144083D01*
X183640879Y-92106899D01*
X183655604Y-92092959D01*
X183764279Y-91989201D01*
X184083599Y-92308400D01*
X184402920Y-92627600D01*
X184402920Y-93222080D01*
X184595960Y-93222080D01*
X184595960Y-92647920D01*
M02*
