M48
; DRILL file {KiCad (5.1.0-0)} date Friday, August 21, 2020 at 08:36:18 PM
; FORMAT={-:-/ absolute / inch / decimal}
; #@! TF.CreationDate,2020-08-21T20:36:18-04:00
; #@! TF.GenerationSoftware,Kicad,Pcbnew,(5.1.0-0)
; #@! TF.FileFunction,Plated,1,2,PTH
FMAT,2
INCH
T1C0.0157
T2C0.0197
T3C0.1260
%
G90
G05
T1
X4.7189Y-4.0651
X4.7835Y-3.3858
X5.0Y-3.3858
X5.3176Y-4.1229
X5.3367Y-3.5539
X5.4186Y-3.5165
X5.4685Y-3.5035
X5.524Y-4.2351
X5.5415Y-3.9148
X5.5613Y-3.4952
X5.6979Y-3.4127
X5.6979Y-3.9968
X5.7492Y-4.081
X5.8518Y-3.4509
X5.8518Y-3.5009
X5.8518Y-3.7146
X5.8788Y-4.0167
X5.9048Y-4.1432
X5.9093Y-4.241
X5.9103Y-3.9852
X5.9497Y-3.9905
X5.9574Y-4.2276
X5.9673Y-3.7892
X5.974Y-3.9592
X6.1401Y-3.8396
X6.2036Y-3.3902
X6.2106Y-3.8351
X6.2189Y-3.7912
X6.219Y-3.5389
X6.2351Y-4.0634
X6.2781Y-3.9137
X6.2918Y-4.1399
X6.2938Y-3.5086
X6.3062Y-4.0426
X6.3219Y-4.001
X6.5437Y-3.5086
X6.5733Y-4.0693
X6.5828Y-4.1087
X6.5886Y-3.5816
X6.6102Y-3.9831
X6.6599Y-3.8297
X6.6608Y-3.4147
X6.6673Y-3.9857
X6.8296Y-3.8008
X6.8559Y-3.6787
X6.8582Y-3.4521
X6.8602Y-3.5435
X6.8602Y-3.9662
X6.8602Y-4.1046
X6.8609Y-3.7369
X6.8612Y-3.9139
X6.8617Y-4.2073
X6.8625Y-3.4098
X6.8637Y-3.5032
T2
X7.5896Y-3.7835
X7.5902Y-3.8558
X7.6402Y-3.7319
X7.6418Y-3.9065
X7.7126Y-3.7313
X7.7141Y-3.9059
X7.7641Y-3.782
X7.7648Y-3.8543
T3
X7.6772Y-3.8189
T0
M30
